<svg xmlns="http://www.w3.org/2000/svg" width="464.2" height="372.218" viewBox="0 0 464.2 372.218"><defs><style>.a{fill:#3ab44c;}.b{fill:#e6f0c7;}.c,.e{fill:#c8c7e0;}.d{fill:#7bb4d6;}.e{opacity:0.4;}.f{fill:#dff3ff;}.g{fill:#f20066;}.h{fill:#4949d3;}.i{fill:#06cc72;}.j{fill:#3498db;}</style></defs><path class="a" d="M680.7,417.2a5.9,5.9,0,0,0-.5,1.16,4.749,4.749,0,0,0,.331,1.16C680.531,419.023,680.614,418.36,680.7,417.2Z" transform="translate(-680.2 -333.608)"/><path class="b" d="M1144.595,610.979c-2.32,30.744-16.905,53.615-44,68.365-10.524,5.718-22.042,8.37-33.975,9.2-.829-.083-1.657-.166-2.486-.166H757.44A81.569,81.569,0,0,1,681.7,607c.248-69.608.083-139.216.083-208.825,0-22.457,7.789-41.765,23.534-57.758C710.952,334.7,717.25,329.48,724.542,326a96.04,96.04,0,0,1,26.766-8.452c9.115-1.409,18.148-1.16,27.18-1.16q142.075-.124,284.234,0a81.446,81.446,0,0,1,80.05,63.476c1.16,4.972.994,10.027,1.823,14.916v16.573Q1144.719,511.166,1144.595,610.979Zm-59.167,1.74h0c-.663,1.077-1.326,2.154-2.072,3.315-1.574,2.32-3.232,4.641-4.806,7.044-.249.249-.415.58-.663.829l-.994,1.243c-1.906,1.906-3.729,3.812-5.635,5.635l-.994.746a77.252,77.252,0,0,1-11.436,7.789c-4.558,2.4-9.032,4.972-14.419,5.386-5.718,1.74-11.6,2.072-17.568,2.072H919.114c-1.74,0-3.563-.58-5.221.58,1.574,6.8.663,13.673.829,20.468.083,4.723.166,9.364,0,14.087-.166,2.9.746,3.729,3.646,3.729,47.814-.083,95.546,0,143.36-.166,13.093-.083,25.606-2.9,37.124-9.447,24.694-14,39.445-34.556,41.516-63.393.166-1.906-.083-2.817-1.823-3.812-8.2-4.641-17.071-8.038-25.44-12.347-4.475-2.32-9.447-3.812-14-6.878,3.646-1.657,5.469.829,7.624,1.906,10.11,4.723,20.137,9.53,30.163,14.336,4.226,1.989,4.309,2.072,4.309-2.486V402.486c0-4.641-.249-4.723-4.558-2.735-13.922,6.547-27.678,13.424-41.931,19.225-1.823.746-2.569,2.072-2.569,4.226-.166,33.893.083,67.868-.166,101.76-.166,20.551.083,41.1.083,61.653,0,8.121-2.818,15.662-5.055,23.286A4.183,4.183,0,0,0,1085.428,612.719ZM909.584,646.695H794.4a68.641,68.641,0,0,1-22.954-5.635,61.77,61.77,0,0,1-27.843-24.2,66.1,66.1,0,0,1-9.364-28.009c-.166-1.492-.414-3.315-2.237-1.823-4.972,4.143-11.27,5.635-16.822,8.453-4.972,2.486-9.7,5.718-15.5,6.215.249-.5.414-1.16.829-1.326,9.778-4.641,19.474-9.613,29.5-13.673,3.232-1.326,4.226-2.652,4.226-5.8-.083-33.23,0-66.542,0-99.772V423.534c0-1.906.083-3.646-2.32-4.641-14.336-5.635-27.926-12.844-42.013-19.225-4.558-2.072-4.641-2.154-4.641,2.9V605.1c.083,1.657.746,2.237,2.4,1.243a25.344,25.344,0,0,1,11.353-4.06c-2.9,2.652-6.546,3.978-10.11,5.386-3.149,1.243-3.646,3.066-3.4,6.049a74.744,74.744,0,0,0,8.867,29.086c14.585,26.1,36.793,41.6,66.708,42.262,48.477,1.077,96.872.414,145.349.58,3.895,0,5.221-.994,5.221-5.055.083-10.607-.912-21.131.58-31.738C912.484,647.109,911.324,646.363,909.584,646.695ZM796.222,358.318H909.253c1.74.249,3.149-.083,2.9-2.237-1.326-10.856-.414-21.711-.5-32.65,0-3.315-.995-4.143-4.226-4.143q-71.6.124-143.277.083a73.973,73.973,0,0,0-21.794,2.9c-11.436,3.563-22.043,9.115-30.909,17.4-13.922,13.01-22.788,28.921-25.523,47.9-1.077,7.541-1.077,7.624,5.718,10.773,12.43,5.8,25.026,11.519,37.456,17.4,3.149,1.492,4.972,1.16,5.3-2.652.083-.912.414-1.906.58-2.818,4.806-22.54,17.734-38.367,39.03-47.4C781.223,359.809,788.93,360.058,796.222,358.318Zm236.916.083c14.584,1.574,27.346,6.878,38.533,16.9,11.436,10.358,17.816,22.954,20.054,37.87.58,3.646,1.823,4.143,4.806,2.735,2.734-1.326,5.469-2.486,8.2-3.729l33.313-15.413c1.16-.58,2.735-1.077,2.652-2.818-.166-3.4-.083-6.961-.746-10.276a78.316,78.316,0,0,0-18.811-37.622c-16.656-18.314-37.539-26.766-62.15-26.683-47.068.083-94.22,0-141.288,0H914.97c-.58,12.927.911,25.606-.995,38.285,1.574,1.243,3.4.663,5.138.663Q976.043,358.442,1033.138,358.4Zm-36.627,43.671c-3.149.58-1.906-.58-.746-1.906,9.613-11.6,19.142-23.12,28.672-34.8.829-.994,2.237-2.072,1.492-3.563-.663-1.243-2.237-.829-3.4-.829H971.983c-2.486,0-3.563.829-4.475,3.149-4.309,11.187-8.867,22.291-13.342,33.4-.663,1.574-.994,3.563-2.983,4.641-.5-1.906.414-3.066.911-4.309,4.309-10.856,8.618-21.794,13.093-32.65,1.326-3.149,1.077-4.392-2.735-4.392-15.5.166-30.909.166-46.405,0-3.48,0-4.143,1.492-4.143,4.475.166,10.938.166,21.794.166,32.732,0,1.409.663,3.066-1.077,4.309-1.077-1.574-.746-3.232-.746-4.806-.083-10.773-.166-21.545-.083-32.318,0-3.149-.746-4.475-4.143-4.392-13.673.166-27.346.083-41.019,0-3.563,0-3.895,1.326-2.817,4.309,4.06,11.021,8.038,22.043,12.016,33.064.414,1.16,1.326,2.4.249,3.978-1.409-1.243-1.657-2.9-2.237-4.309-4.061-11.27-8.121-22.54-12.182-33.893-.663-1.823-1.491-3.066-3.729-3.066-17.816.083-35.633,0-53.449,0-2.818,0-3.563,1.077-1.657,3.4,8.7,10.69,17.319,21.38,26.1,32.07,1.243,1.492,3.149,2.569,3.646,4.641.5,1.823-.746,1.077-1.574.912-10.441-12.927-20.965-25.937-31.407-38.865-.829-.994-1.574-2.155-3.4-1.823-2.983.58-6.049.663-8.95,1.243-26.683,5.635-47.151,29.666-48.229,56.432-.083,1.823-.331,3.4,1.906,4.392,11.518,4.972,22.871,10.11,34.307,15.247.083.746.166,1.409.249,2.155-10.939-4.889-21.877-9.778-32.815-14.833-2.735-1.243-3.895-1.16-3.812,2.32q.124,23.617,0,47.234c0,2.569.746,3.563,3.4,3.895,11.1,1.326,22.208,2.9,33.23,4.309v1.74c-10.939-1.492-21.877-2.818-32.815-4.392-2.9-.414-3.895.249-3.812,3.232.166,11.436.083,22.871.083,34.39,0,5.966,0,5.884,6.215,5.138,10.11-1.326,20.219-2.569,30.412-3.895-.248.746-.414,1.492-.663,2.237-2.486-.58-4.723,1.077-7.126,1.077-8.867,0-17.485,1.989-26.186,2.818-1.906.166-2.486,1.077-2.486,2.983.083,17.319,0,34.721,0,52.04,0,1.989.58,2.818,2.652,1.74q16.9-8.08,33.975-15.993c-.083.912-.166,1.74-.166,2.652-11.187,4.392-21.711,10.11-32.733,14.668-3.315,1.409-3.977,3.232-3.149,6.215.249.911.331,1.906.5,2.817,4.392,26.02,27.346,47.731,52.952,50.135,1.906.166,3.563.331,5.055-1.575,10.524-13.093,21.3-26.02,31.9-39.03.663-.083,1.409-.58,1.906.083.58.829-.414,1.077-.746,1.574-9.778,11.933-19.639,23.783-29.418,35.716-.746.911-2.237,1.74-1.74,3.066.5,1.409,2.155.829,3.315.829,18.231,0,36.462-.083,54.692,0,2.735,0,4.226-.829,5.138-3.48,3.4-10.193,6.961-20.3,10.607-30.412.663-1.906.829-4.143,2.734-5.635.829,1.906-.083,3.232-.58,4.641-3.646,10.441-7.292,20.8-11.021,31.241-.912,2.569-.58,3.812,2.486,3.812,13.673-.083,27.346-.166,41.019,0,2.735,0,3.563-.829,3.563-3.563-.083-11.021-.083-22.126,0-33.147,0-1.492-.332-3.149,1.657-5.138.083,2.4.249,3.895.249,5.3,0,10.773.166,21.545,0,32.318-.083,3.232.994,4.226,4.226,4.226,15.165-.166,30.412-.166,45.577,0,3.646,0,3.48-1.492,2.486-4.06-3.729-9.2-7.375-18.4-11.021-27.595-1.243-3.066-2.32-6.132-3.729-9.944,2.569.994,2.569,2.569,3.066,3.729q6.837,16.9,13.424,33.81c1.077,2.817,2.486,4.06,5.718,3.978,16.408-.166,32.9,0,49.306-.083.994,0,2.486.5,2.983-.746.58-1.16-.663-1.906-1.326-2.735l-18.4-22.871c-3.563-4.392-6.961-8.867-10.524-13.259-1.16-1.409-.829-1.906.912-1.657,10.607,13.176,21.3,26.352,31.821,39.61,1.243,1.574,2.818,1.492,4.475,1.409a61.943,61.943,0,0,0,58.007-56.681c.249-2.9-.58-4.226-3.232-5.138-3.315-1.243-6.546-2.983-9.861-4.309-7.872-3.315-15.247-7.624-23.451-10.11v-2.237c11.187,4.972,22.457,9.861,33.561,15,2.652,1.243,3.232.663,3.232-2.154-.083-15.993-.083-31.987-.083-47.98,0-2.4-.332-3.48-3.232-3.895-11.187-1.823-22.374-2.983-33.561-4.309v-1.657c11.187,1.326,22.374,2.569,33.478,4.143,2.652.331,3.315-.331,3.315-2.9-.083-12.679-.166-25.357,0-37.953,0-3.232-1.243-3.646-3.895-3.149-6.546,1.077-13.01,2.155-19.639,2.652-4.475.332-8.7,2.652-13.259,1.74v-1.74c10.773-1.409,21.545-3.066,32.318-4.143,3.48-.331,4.557-1.409,4.475-4.972-.166-15.247-.083-30.578-.083-45.825,0-4.558,0-4.558-4.392-2.569-10.856,4.889-21.38,10.276-32.4,14.667l.249-1.989c11.518-5.221,23.037-10.524,34.638-15.745,1.574-.746,1.74-1.823,1.657-3.315a51.115,51.115,0,0,0-2.818-15c-8.535-23.866-25.274-38.036-50.217-42.262-2.818-.5-5.718-.663-7.872,1.989C1017.56,376.549,1007.036,389.31,996.511,402.072Z" transform="translate(-680.457 -316.325)"/><path class="c" d="M1062.306,662.318H790.833A41.555,41.555,0,0,1,749.4,620.884V407.833A41.555,41.555,0,0,1,790.833,366.4h271.472a41.555,41.555,0,0,1,41.433,41.433V620.884A41.555,41.555,0,0,1,1062.306,662.318Z" transform="translate(-692.056 -324.904)"/><path class="d" d="M792.58,578.641c.083-.912.166-1.823.166-2.652.083-13.839.166-27.76.166-41.6a3.788,3.788,0,0,0-.911-3.066c.248-.746.414-1.492.663-2.237.414-11.518.249-22.954,0-34.473v-1.74q.5-21.5,0-43.008c-.083-.746-.166-1.409-.249-2.154,0-6.878.249-13.756.083-20.717a16.574,16.574,0,0,1,3.4-10.773c3.48-3.315,7.707-4.309,12.43-4.309q17.278.124,34.556,0c1.574,0,3.314.5,4.723-.746.166-.083.331-.083.5-.166.829.166,2.072.912,1.574-.911-.5-2.072-2.4-3.066-3.646-4.641l-26.1-32.07c-1.906-2.32-1.16-3.4,1.657-3.4h53.449c2.237,0,3.066,1.243,3.729,3.066,3.978,11.27,8.121,22.623,12.182,33.893.5,1.492.829,3.149,2.237,4.309,1.077-1.575.166-2.818-.249-3.978-3.978-11.021-7.955-22.043-12.016-33.064-1.077-2.983-.746-4.309,2.818-4.309,13.673.083,27.346.166,41.019,0,3.4,0,4.143,1.326,4.143,4.392-.083,10.773,0,21.545.083,32.318,0,1.574-.249,3.232.746,4.806,1.74-1.243,1.077-2.9,1.077-4.309,0-10.938,0-21.794-.166-32.732,0-2.983.663-4.558,4.143-4.475,15.5.166,30.909.083,46.406,0,3.812,0,4.061,1.243,2.735,4.392-4.475,10.856-8.784,21.711-13.093,32.65-.5,1.243-1.409,2.4-.911,4.309,1.989-1.077,2.32-3.066,2.983-4.641,4.475-11.1,9.033-22.208,13.342-33.4.911-2.32,2.072-3.149,4.475-3.149,16.822.083,33.727,0,50.549,0,1.16,0,2.735-.414,3.4.829.746,1.492-.663,2.569-1.492,3.563q-14.294,17.4-28.672,34.8c-1.077,1.326-2.4,2.4.746,1.906,1.74.083,3.563.249,5.3.332h35.467c9.778,0,15.247,5.635,15.247,15.413,0,6.712.083,13.507.083,20.22l-.249,1.989V576.487c.083,6.629.166,13.176.083,19.805,0,9.7-5.552,15.248-15.413,15.248-14.17.083-28.34.166-42.511.166-1.74-.249-2.072.249-.911,1.657,3.563,4.392,6.961,8.867,10.524,13.259l18.4,22.871c.663.829,1.906,1.574,1.326,2.734s-1.989.746-2.983.746c-16.408,0-32.9-.083-49.306.083-3.232,0-4.641-1.243-5.718-3.978-4.392-11.353-8.95-22.54-13.425-33.81-.5-1.16-.5-2.735-3.066-3.729,1.409,3.729,2.486,6.878,3.729,9.944,3.646,9.2,7.292,18.4,11.021,27.595.995,2.569,1.16,4.06-2.486,4.06-15.165-.166-30.412-.166-45.577,0-3.232,0-4.309-.912-4.226-4.226.166-10.773.083-21.545,0-32.318,0-1.491-.083-2.9-.249-5.3-1.989,1.989-1.657,3.646-1.657,5.138,0,11.021-.083,22.125,0,33.147,0,2.652-.829,3.563-3.563,3.563q-20.509-.124-41.019,0c-3.066,0-3.4-1.16-2.486-3.812,3.729-10.358,7.375-20.8,11.021-31.241.5-1.409,1.326-2.735.58-4.641-1.906,1.492-2.072,3.729-2.735,5.635-3.646,10.11-7.21,20.219-10.607,30.412-.911,2.652-2.4,3.481-5.138,3.481-18.231-.083-36.462,0-54.692,0-1.16,0-2.817.58-3.315-.829-.5-1.243.994-2.072,1.74-3.066,9.778-11.933,19.64-23.783,29.418-35.716.415-.5,1.409-.746.746-1.575-.5-.663-1.243-.166-1.906-.083-13.507-.083-26.932-.083-40.439-.249-8.287-.166-13.922-5.8-14-14.087C792.58,591.32,792.663,585.022,792.58,578.641ZM931.8,418.625H846.444c-11.187,0-22.374-.083-33.561.331-9.7.331-13.839,5.138-13.922,14.75V590.325c0,9.115,4.806,14.087,13.922,14.5,1.906.083,3.895.083,5.8.083h200.455c10.607,0,21.3.083,31.9,0,6.8-.083,12.6-3.978,13.176-9.115a101.856,101.856,0,0,0,.829-12.347c.083-49.554-.166-99.109.166-148.663.083-10.441-6.547-16.242-16.242-16.159C1009.94,418.791,970.827,418.625,931.8,418.625Z" transform="translate(-699.355 -325.503)"/><path class="e" d="M1126.574,639.959c1.574-2.32,3.232-4.641,4.807-7.044,1.906-.332,2.237-1.657,2.071-3.232h0c1.575-.415,1.906-1.492,1.657-2.9,2.32-7.624,5.138-15.164,5.055-23.286,0-20.551-.249-41.1-.083-61.653.166-33.893,0-67.868.166-101.761,0-2.072.746-3.48,2.569-4.226,14.253-5.718,28.009-12.679,41.931-19.225,4.309-2.072,4.558-1.989,4.558,2.735q0,100.435,0,200.87c0,4.558-.083,4.558-4.309,2.486-10.027-4.806-20.137-9.613-30.164-14.336-2.237-1.077-4.061-3.563-7.624-1.906,4.557,3.066,9.53,4.558,14,6.878,8.37,4.309,17.154,7.706,25.44,12.347,1.74.994,1.989,1.906,1.823,3.812-2.072,28.838-16.822,49.389-41.516,63.393-11.519,6.547-24.114,9.364-37.124,9.447-47.814.166-95.546.083-143.36.166-2.9,0-3.812-.912-3.646-3.729.249-4.723.166-9.364,0-14.087-.165-6.8.746-13.756-.829-20.468,2.238.083,4.392.166,6.629.166h96.789c7.044,0,14.087,0,21.131-.083,2.32,0,4.806-.083,6.049-2.735,5.3-.331,9.778-2.983,14.419-5.386,1.16,1.657,2.569.083,3.149-.331,2.983-2.238,7.707-2.652,8.287-7.458l.994-.746c3.812,0,5.055-2.486,5.635-5.635l.995-1.243c.249.083.414.166.663.248A2.633,2.633,0,0,1,1126.574,639.959Z" transform="translate(-728.481 -333.289)"/><path class="e" d="M961.9,358.284c1.906-12.679.5-25.357.995-38.284h2.735c47.068,0,94.22.083,141.288,0,24.611-.083,45.494,8.37,62.15,26.683a79.051,79.051,0,0,1,18.811,37.622,69.767,69.767,0,0,1,.746,10.275c.083,1.74-1.492,2.237-2.652,2.818-11.1,5.221-22.208,10.275-33.313,15.413-2.735,1.243-5.469,2.4-8.2,3.729-2.983,1.409-4.309.912-4.806-2.735-2.237-14.916-8.535-27.512-20.054-37.87-11.1-10.027-23.865-15.33-38.533-16.9-1.409-1.906-3.48-.911-5.138-.911-18.977-.083-38.036-.083-57.013-.083Z" transform="translate(-728.464 -316.954)"/><path class="e" d="M797.021,358.913c-7.292,1.74-15,1.492-22.043,4.475-21.3,9.033-34.224,24.86-39.03,47.4-.166.912-.5,1.906-.58,2.818-.332,3.812-2.154,4.143-5.3,2.652-12.43-5.884-25.026-11.6-37.456-17.4-6.8-3.149-6.8-3.232-5.718-10.773,2.818-18.977,11.6-34.887,25.523-47.9,8.867-8.287,19.474-13.839,30.909-17.4a73.61,73.61,0,0,1,21.794-2.9q71.6.124,143.277-.083c3.232,0,4.143.829,4.226,4.143.083,10.856-.829,21.794.5,32.65.249,2.155-1.16,2.486-2.9,2.237-.994-1.492-2.486-.829-3.729-.829H801C799.507,358.085,798.016,357.422,797.021,358.913Z" transform="translate(-681.256 -316.92)"/><path class="e" d="M700.453,657.553c5.8-.5,10.524-3.812,15.5-6.215,5.635-2.818,11.85-4.309,16.822-8.452,1.823-1.492,2.072.331,2.237,1.823a63.9,63.9,0,0,0,9.364,28.009,62.2,62.2,0,0,0,27.843,24.2,68.641,68.641,0,0,0,22.954,5.635c-.083.166-.166.249-.083.414a.374.374,0,0,0,.249.249c.829.083,1.657.166,2.486.166q54.568,0,109.219.083c1.16,0,2.569.5,3.4-.829,1.74-.249,2.817.414,2.569,2.154-1.491,10.524-.5,21.131-.58,31.738,0,4.061-1.326,5.055-5.221,5.055-48.477-.166-96.954.5-145.349-.58-30-.663-52.123-16.159-66.708-42.262a74.742,74.742,0,0,1-8.867-29.086c-.332-2.983.249-4.806,3.4-6.049,3.563-1.409,7.209-2.735,10.11-5.386A4.993,4.993,0,0,1,700.453,657.553Z" transform="translate(-681.228 -372.18)"/><path class="e" d="M699.748,619.235A26.374,26.374,0,0,0,688.4,623.3c-1.657.994-2.238.5-2.4-1.243-.083-1.077,0-2.238,0-3.315V419.525c0-5.055,0-4.972,4.641-2.9,14,6.3,27.678,13.59,42.014,19.225,2.486.994,2.32,2.735,2.32,4.641V597.855c0,3.149-.995,4.475-4.226,5.8-10.027,4.06-19.722,9.032-29.5,13.673-.415.166-.58.911-.829,1.326C700.163,618.9,699.914,619.069,699.748,619.235Z" transform="translate(-681.186 -333.282)"/><path class="f" d="M1059.5,654.818c14.17-.083,28.341-.166,42.511-.166,9.778-.083,15.33-5.552,15.413-15.247,0-6.629-.083-13.176-.083-19.805,8.2,2.486,15.579,6.8,23.451,10.11,3.315,1.409,6.464,3.149,9.861,4.309,2.569.994,3.4,2.237,3.232,5.138a61.876,61.876,0,0,1-58.007,56.681c-1.657.083-3.149.166-4.475-1.409Q1075.369,674.541,1059.5,654.818Z" transform="translate(-745.186 -368.285)"/><path class="f" d="M788.683,416.413a16.122,16.122,0,0,0-3.4,10.773c.166,6.878,0,13.756-.083,20.717-11.436-5.055-22.871-10.275-34.307-15.247-2.237-.994-1.989-2.569-1.906-4.392,1.077-26.766,21.545-50.8,48.229-56.432,2.983-.663,5.966-.663,8.95-1.243,1.823-.331,2.486.746,3.4,1.823,10.524,12.927,20.965,25.937,31.407,38.865a1.178,1.178,0,0,0-.5.166c-1.657.083-3.315.166-4.972.166-12.679,0-25.357,0-37.953.083C793.82,411.689,789.76,411.441,788.683,416.413Z" transform="translate(-691.977 -325.611)"/><path class="f" d="M1117.8,447.36c0-6.712-.083-13.507-.083-20.22,0-9.778-5.552-15.413-15.247-15.413H1067c-1.74,0-3.563-.166-5.3-.331,10.524-12.762,21.048-25.606,31.49-38.367,2.154-2.652,5.138-2.486,7.872-1.989,25.026,4.226,41.765,18.4,50.217,42.262a51.127,51.127,0,0,1,2.817,15c.083,1.575-.083,2.652-1.657,3.315C1140.838,436.835,1129.319,442.139,1117.8,447.36Z" transform="translate(-745.563 -325.649)"/><path class="f" d="M785.215,621.8c0,6.3,0,12.679.083,18.977.166,8.287,5.718,13.922,14,14.087,13.507.166,26.932.166,40.439.249-10.69,13.01-21.38,25.937-31.9,39.03-1.575,1.906-3.149,1.74-5.055,1.575-25.606-2.4-48.643-24.114-52.952-50.135-.166-.911-.249-1.906-.5-2.817-.829-3.066-.166-4.889,3.149-6.215C763.5,631.91,774.11,626.192,785.215,621.8Z" transform="translate(-691.989 -368.662)"/><path class="g" d="M784.681,564.68a3.788,3.788,0,0,1,.912,3.066c-.083,13.839-.166,27.76-.166,41.6-11.353,5.3-22.623,10.607-33.975,15.993-2.072.994-2.652.249-2.652-1.74,0-17.319.083-34.721,0-52.04,0-1.906.58-2.735,2.486-2.983,8.784-.829,17.4-2.818,26.186-2.818C779.958,565.757,782.2,564.183,784.681,564.68Z" transform="translate(-691.953 -358.859)"/><path class="g" d="M1129.1,607.839V564.5c11.187,1.326,22.457,2.569,33.561,4.309,2.818.5,3.232,1.492,3.232,3.895-.083,15.993-.083,31.987.083,47.98,0,2.818-.58,3.315-3.232,2.155C1151.474,617.783,1140.287,612.811,1129.1,607.839Z" transform="translate(-757.11 -358.845)"/><path class="g" d="M1129,505.331V462.405c11.021-4.309,21.628-9.778,32.4-14.667,4.392-1.989,4.392-1.989,4.392,2.569,0,15.247-.166,30.578.083,45.825.083,3.563-.994,4.558-4.475,4.972C1150.545,502.264,1139.773,503.839,1129,505.331Z" transform="translate(-757.093 -338.623)"/><path class="g" d="M785.427,463.3q.5,21.5,0,43.008c-11.1-1.492-22.125-2.983-33.23-4.309-2.652-.331-3.4-1.326-3.4-3.895.083-15.745.166-31.489,0-47.234,0-3.48,1.16-3.563,3.812-2.32C763.467,453.521,774.489,458.41,785.427,463.3Z" transform="translate(-691.953 -338.854)"/><path class="h" d="M1129,554.131V518.664c4.64.911,8.784-1.409,13.259-1.74,6.546-.5,13.093-1.657,19.639-2.652,2.735-.414,3.978,0,3.895,3.149-.166,12.679-.083,25.357,0,37.953,0,2.569-.663,3.232-3.315,2.9C1151.374,556.783,1140.187,555.54,1129,554.131Z" transform="translate(-757.093 -350.216)"/><path class="h" d="M785.31,519.561c.249,11.518.415,22.954,0,34.472-10.11,1.243-20.219,2.486-30.412,3.895-6.215.829-6.215.912-6.215-5.138,0-11.436.083-22.871-.083-34.39,0-3.066.911-3.729,3.812-3.232C763.433,516.744,774.372,518.069,785.31,519.561Z" transform="translate(-691.919 -350.367)"/><path class="c" d="M1092.5,712.5c-1.243,2.652-3.729,2.735-6.049,2.735-7.044.083-14.087.083-21.131.083H968.529c-2.237,0-4.392-.166-6.629-.166,1.657-1.077,3.48-.58,5.221-.58h107.727C1080.9,714.572,1086.781,714.323,1092.5,712.5Z" transform="translate(-728.464 -384.202)"/><path class="c" d="M1081.146,366.894q-57.054,0-114.108-.166c-1.74,0-3.563.58-5.138-.663,18.977-.083,38.036-.166,57.013-.166" transform="translate(-728.464 -324.819)"/><path class="c" d="M932.851,714.983c-.829,1.326-2.237.829-3.4.829q-54.568,0-109.219-.083c-.828,0-1.657-.083-2.486-.166a.373.373,0,0,1-.249-.248,3.586,3.586,0,0,0,.083-.414Q875.258,715.024,932.851,714.983Z" transform="translate(-703.724 -384.613)"/><path class="c" d="M819.9,366.792c.995-1.492,2.486-.829,3.729-.829q52.7-.124,105.49,0c1.243,0,2.818-.746,3.729.829Z" transform="translate(-704.135 -324.799)"/><path class="c" d="M1148.236,696.6c-.58,4.806-5.3,5.3-8.287,7.458-.58.414-1.906,1.989-3.149.332A73.143,73.143,0,0,0,1148.236,696.6Z" transform="translate(-758.43 -381.478)"/><path class="c" d="M1157.435,688.9c-.58,3.232-1.823,5.718-5.635,5.635C1153.706,692.712,1155.529,690.806,1157.435,688.9Z" transform="translate(-761 -380.159)"/><path class="c" d="M1168.471,674c.249,1.657-.166,2.9-2.071,3.232C1167.146,676.155,1167.809,675.077,1168.471,674Z" transform="translate(-763.501 -377.606)"/><path class="c" d="M1170.557,670.5c.249,1.409-.083,2.486-1.657,2.9A4.325,4.325,0,0,1,1170.557,670.5Z" transform="translate(-763.929 -377.006)"/><path class="i" d="M933.245,428.664c39.113,0,78.144.166,117.257-.166,9.778-.083,16.325,5.8,16.242,16.159-.249,49.554-.083,99.109-.166,148.663a101.831,101.831,0,0,1-.829,12.347c-.58,5.138-6.381,9.115-13.176,9.115-10.607.083-21.3,0-31.9,0H820.215c-1.906,0-3.895.083-5.8-.083-9.115-.414-13.922-5.386-13.922-14.5-.083-18.4,0-36.71,0-55.106V443.58c0-9.613,4.226-14.419,13.922-14.75,11.187-.414,22.374-.331,33.561-.331m213.3,178c-.166-.249-.083-.5.166-.746,1.906-1.16,1.409-3.149,1.409-4.889q0-53.7.083-107.313V439.271c0-5.718-1.657-6.961-7.044-5.386a13.639,13.639,0,0,1-4.06.5q-121.442,0-242.8,0c-3.812,0-5.055,1.326-5.055,5.055.166,11.85.083,23.783.083,35.633q0,62.523-.083,125.129c0,8.7.166,8.7,8.95,8.7q117.837,0,235.756.083c3.729,0,7.458,0,11.187-.083C1061.44,608.817,1062.849,608.486,1061.275,606.5Z" transform="translate(-700.803 -335.543)"/><path class="f" d="M796.9,424.855c1.077-4.972,5.138-4.723,8.867-4.806,12.679-.083,25.357-.083,37.953-.083,1.657,0,3.315-.083,4.972-.166-1.409,1.243-3.149.746-4.724.746q-17.278.124-34.555,0C804.607,420.546,800.38,421.623,796.9,424.855Z" transform="translate(-700.194 -334.053)"/><path class="b" d="M1062.7,607.515a.633.633,0,0,0-.166.746c-15.911.083-31.738.332-47.649.332q-101.3,0-202.61.083c-3.729,0-4.558-.911-4.475-4.558.083-42.677,0-85.353,0-127.947v-35.3c1.243,1.492.829,3.646,2.983,2.9,1.409-.5,2.735-1.492,2.652-2.9-.166-2.072-2.735-.249-3.729-1.823,1.74-1.077,3.729-.663,5.635-.663q120.82,0,241.557.083c5.3,0,5.386-.083,5.386,5.469V603.455C1062.2,604.781,1061.786,606.189,1062.7,607.515Zm-3.149-138.139c.166,0,.332-.083.332-.249,1.657-5.8.414-11.767.746-17.568.166-3.066.994-6.546-3.646-7.375-.58-.083-1.243-1.16-1.409-1.906-.5-2.32-2.072-2.4-4.06-2.4-9.861.083-19.723,0-29.584,0q-41.019,0-82.038-.083c-3.149,0-4.309.829-4.226,4.143.166,16.739.083,33.4,0,50.135,0,2.486.5,3.48,3.315,3.978,13.59,2.154,21.463,12.43,21.545,27.76.083,10.69-9.778,21.545-21.628,23.2-2.818.414-3.232,1.492-3.232,3.978.083,16.739.166,33.4-.083,50.135-.083,3.563,1.16,4.06,4.226,3.978,12.6-.166,25.109,0,37.7,0,24.28,0,48.643-.331,72.923.249,5.22.083,4.64-6.132,9.032-5.718.332,0,.912-.663.994-1.077a12.489,12.489,0,0,0,.083-2.486c0-5.221-.166-10.524.083-15.745.166-3.4-.828-4.475-4.392-4.392-12.016.249-24.031,0-36.047.083-2.569,0-3.646-.58-3.563-3.48.166-7.044-.083-14.087,0-21.131.083-4.972.414-9.944-4.226-13.341,1.906-1.16,2.155,2.4,3.895,1.492v-36.13c-1.906-.5-1.989,2.652-3.895,1.409,4.558-3.232,4.309-8.038,4.309-12.927,0-8.2-.663-16.491.414-24.694h33.81c1.906,0,3.895-.331,5.552.912-2.32.663-4.64.414-6.961.414-9.364,0-18.728.083-28.175,0-2.4,0-3.4.5-3.4,3.232q.124,49.72,0,99.357c0,2.155.414,3.232,2.9,3.232,12.181-.083,24.28,0,36.461.083,2.155,0,3.232-.5,3.232-2.983-.166-6.464-.166-13.01,0-19.474.083-2.32-.746-3.149-3.066-3.149-3.895.083-7.707,0-11.6.083-1.74,0-2.32-.331-2.237-2.32.166-16.656.166-33.4.083-50.052,0-2.072.414-2.652,2.486-2.569,3.895.166,7.707-.083,11.6.083,2.155.083,2.9-.663,2.818-2.818q-.124-9.944,0-19.888A7.923,7.923,0,0,0,1059.549,469.376Zm-124.88,28.258c-2.486.912-7.209,2.735-9.032,3.4-9.447,3.563-15.745,14.253-14.75,24.943.995,10.276,9.364,19.639,19.059,21.463,3.232.58,4.641,0,4.724-3.812.166-9.115-.829-18.231-.249-27.346.5-8.2.083-16.491.083-24.694V445.179c0-5.3,0-5.3-5.552-5.3H821.638c-3.315,0-6.629-.58-7.955,3.729-.166.58-1.243,1.16-1.989,1.326-2.072.5-2.4,1.906-2.32,3.729.083,5.635.166,11.353,0,16.988-.083,2.983.995,3.729,3.895,3.729,12.264-.166,24.611.083,36.876-.166,2.817-.083,3.48.829,3.48,3.48-.166,8.287.083,16.573-.083,24.86a10.224,10.224,0,0,0,3.4,8.287c10.193,10.11,9.612,27.76-1.326,36.876a5.057,5.057,0,0,0-1.989,4.475c0,8.95-.166,17.982.083,26.932.083,3.066-.746,3.978-3.895,3.978-12.264-.166-24.612,0-36.876-.083-2.486,0-3.48.746-3.4,3.232.083,4.392.083,8.867,0,13.259,0,3.48-.829,7.292,3.812,8.784a2.195,2.195,0,0,1,1.243,1.574c.58,2.569,2.4,2.486,4.392,2.486,15.33-.083,30.661,0,45.991,0h65.879c1.989,0,3.812.166,3.812-2.817q-.124-26.1-.083-52.206c0-1.906-.58-2.818-2.818-3.149-15.911-2.4-25.192-16.159-21.711-31.987C912.046,507.826,924.973,496.639,934.668,497.634ZM851.884,523.82V474.1c0-1.989.249-3.729-2.817-3.729-12.264.166-24.611.083-36.876,0-2.32,0-2.818.911-2.818,2.983q.125,9.944,0,19.888c0,1.574.58,2.155,2.072,2.983,4.061,2.072,7.872,0,11.684-.249,2.486-.166,3.315.414,3.315,3.066q-.248,24.611-.083,49.306c0,2.072-.5,2.652-2.486,2.652-3.729-.083-7.458.083-11.187-.083-2.569-.166-3.48.663-3.4,3.232.083,6.381.083,12.678,0,19.059,0,2.4.663,3.4,3.315,3.4,11.85-.166,23.783-.166,35.633,0,2.983,0,3.646-.994,3.646-3.812C851.8,556.386,851.884,540.144,851.884,523.82Zm83.7,23.949c14.253-.912,23.949-10.855,23.949-25.357,0-10.938-9.364-21.131-20.219-22.954-2.735-.414-3.729.331-3.563,3.232.5,6.961.663,14.087.5,20.965C935.994,531.526,936.408,539.482,935.58,547.768Zm125.046-24.363h0c0-4.723.166-9.364,0-14.087-.083-3.812,1.74-8.784-.746-11.1-2.4-2.237-7.375-.331-11.187-.746-3.066-.331-3.646.994-3.646,3.729q.124,22.5,0,45c0,2.652,1.077,3.315,3.4,3.232,2.9-.083,5.8-.083,8.7.083,2.652.166,3.646-.663,3.646-3.4C1060.543,538.57,1060.626,530.946,1060.626,523.405Zm-251.253-.414v20.717c0,5.8,0,5.8,5.635,5.8,1.823,0,3.646-.166,5.386,0,3.646.5,4.806-1.077,4.806-4.641-.166-11.684,0-23.451-.083-35.136-.083-3.895,1.74-9.033-.829-11.518-2.569-2.4-7.624-.414-11.6-.829-2.569-.249-3.4.663-3.315,3.232C809.456,508.075,809.373,515.533,809.373,522.991Zm44.5-17.651v36.213C865.226,533.432,865.143,513.461,853.873,505.34ZM811.031,607.432c.249-1.243,2.735.746,2.486-1.492a2.868,2.868,0,0,0-2.818-2.569c-1.823-.083-1.243,1.492-1.243,2.4C809.373,606.521,809.042,607.847,811.031,607.432Zm249.6-2.32c-.083-.58.166-1.823-.994-1.657-1.326.166-2.735.829-2.9,2.486-.083,1.243.994,1.077,1.74,1.077C1059.714,607.018,1060.792,606.852,1060.626,605.112Zm-.166-161.342c-.083-1.574,1.16-3.315-1.16-3.895-.829-.166-2.32-.58-2.486.58C1056.565,442.527,1058.14,443.356,1060.46,443.77Z" transform="translate(-702.061 -337.224)"/><path class="i" d="M1062.167,606.836c-.911-1.243-.5-2.652-.5-3.978V443.34c0-5.552,0-5.469-5.386-5.469q-120.82,0-241.557-.083c-1.906,0-3.812-.414-5.635.663.994,1.574,3.563-.249,3.729,1.823.166,1.326-1.16,2.4-2.652,2.9-2.154.746-1.74-1.409-2.983-2.9v35.3c0,42.677.083,85.353,0,127.947,0,3.563.746,4.558,4.475,4.558q101.3-.248,202.61-.083c15.911,0,31.738-.166,47.648-.331,1.574,1.989.166,2.32-1.326,2.32-3.729.083-7.458.083-11.187.083q-117.837,0-235.756-.083c-8.784,0-8.95,0-8.95-8.7q0-62.523.083-125.129c0-11.85.083-23.783-.083-35.633-.083-3.729,1.16-5.055,5.055-5.055q121.441.124,242.8,0a13.318,13.318,0,0,0,4.061-.5c5.3-1.574,7.044-.331,7.044,5.386v54.278q0,53.7-.083,107.313C1063.576,603.687,1064.073,605.593,1062.167,606.836Z" transform="translate(-701.53 -336.545)"/><path class="i" d="M935.06,498.316c-9.7-.994-22.706,9.778-24.777,18.894C906.8,533.037,916,546.793,931.993,549.2c2.238.331,2.818,1.243,2.818,3.149q0,26.1.083,52.206c0,2.983-1.823,2.817-3.812,2.817H819.212c-1.989,0-3.895.083-4.392-2.486a2.688,2.688,0,0,0-1.243-1.574c-4.641-1.492-3.895-5.22-3.812-8.784.083-4.392.083-8.867,0-13.259-.083-2.569.911-3.232,3.4-3.232,12.264.083,24.611-.083,36.876.083,3.149.083,3.978-.911,3.895-3.978-.166-8.95-.083-17.982-.083-26.932a5.057,5.057,0,0,1,1.989-4.475c10.938-9.115,11.518-26.766,1.326-36.876a10.33,10.33,0,0,1-3.4-8.287c.166-8.287-.083-16.573.083-24.86.083-2.652-.58-3.48-3.481-3.48-12.264.166-24.611,0-36.876.166-2.9,0-3.978-.746-3.895-3.729.166-5.635.083-11.353,0-16.988,0-1.823.249-3.232,2.32-3.729.746-.166,1.823-.746,1.989-1.326,1.326-4.309,4.641-3.729,7.955-3.729,35.8.083,71.514,0,107.313,0,5.552,0,5.552,0,5.552,5.3V491.6c0,8.287.414,16.491-.083,24.694-.58,9.115.414,18.231.249,27.346-.083,3.812-1.492,4.392-4.723,3.812-9.7-1.823-18.065-11.187-19.059-21.463-.994-10.69,5.221-21.38,14.75-24.943C927.767,500.553,932.574,499.227,935.06,498.316Z" transform="translate(-702.369 -337.492)"/><path class="i" d="M1039.017,540.269c4.641,3.4,4.309,8.37,4.226,13.341-.166,7.044.166,14.087,0,21.131-.083,2.9.912,3.48,3.564,3.48,12.016-.083,24.031.083,36.047-.083,3.563-.083,4.558.994,4.392,4.392-.249,5.221-.083,10.524-.083,15.745a12.47,12.47,0,0,1-.083,2.486c-.083.414-.663,1.077-.994,1.077-4.392-.414-3.812,5.8-9.033,5.718-24.28-.5-48.643-.249-72.923-.249-12.6,0-25.109-.083-37.7,0-3.066,0-4.309-.5-4.226-3.978.249-16.739.166-33.4.083-50.135,0-2.486.331-3.563,3.232-3.978,11.85-1.74,21.711-12.513,21.628-23.2-.083-15.33-7.955-25.606-21.545-27.76-2.818-.414-3.315-1.492-3.315-3.978.083-16.739.166-33.4,0-50.134,0-3.315,1.077-4.143,4.226-4.143q41.019.124,82.038.083h29.584c1.989,0,3.48.083,4.06,2.4.166.746.829,1.823,1.409,1.906,4.64.829,3.812,4.392,3.646,7.375-.332,5.883.911,11.767-.746,17.568-14.17-.166-28.423-.5-42.593.083-1.078,8.2-.414,16.491-.414,24.694,0,4.889.331,9.612-4.309,12.927h.083c-9.281,8.867-8.452,25.606,0,33.23Z" transform="translate(-728.515 -337.514)"/><path class="i" d="M1103.016,475.8a8.9,8.9,0,0,1,1.16,3.895q-.125,9.944,0,19.888c0,2.155-.663,2.9-2.818,2.817-3.895-.166-7.707.083-11.6-.083-2.072-.083-2.486.5-2.486,2.569.083,16.656.083,33.4-.083,50.052,0,1.989.58,2.4,2.238,2.32,3.895-.083,7.706.083,11.6-.083,2.32-.083,3.149.746,3.066,3.149-.166,6.464-.166,13.01,0,19.474.083,2.486-.994,2.983-3.232,2.983-12.181-.083-24.28-.166-36.461-.083-2.569,0-2.9-1.077-2.9-3.232q.124-49.72,0-99.357c0-2.652.994-3.232,3.4-3.232,9.364.083,18.728.083,28.175,0,2.32,0,4.723.249,6.961-.414C1101.11,476.3,1102.022,476.049,1103.016,475.8Zm-26.435,53.864a1.9,1.9,0,0,0-1.989-1.409,1.558,1.558,0,0,0-1.492,1.575,1.6,1.6,0,0,0,1.74,1.823Q1076.333,531.528,1076.582,529.664Z" transform="translate(-745.528 -343.648)"/><path class="i" d="M852.21,530.432c0,16.325-.083,32.567.083,48.891,0,2.818-.663,3.812-3.646,3.812-11.85-.166-23.783-.166-35.633,0-2.652,0-3.315-.994-3.315-3.4.083-6.381.083-12.679,0-19.059-.083-2.569.829-3.4,3.4-3.232,3.729.249,7.458,0,11.187.083,1.989.083,2.486-.58,2.486-2.652q-.124-24.611.083-49.306c0-2.652-.829-3.232-3.315-3.066-3.895.249-7.209.331-11.684.249-1.74,0-2.072-1.409-2.072-2.983V479.883c0-1.989.5-2.983,2.818-2.983,12.264.083,24.611.166,36.876,0,3.066,0,2.817,1.657,2.817,3.729C852.127,497.285,852.21,513.859,852.21,530.432ZM838.7,528.278c-.663.331-1.491.663-1.326,1.906a1.612,1.612,0,0,0,1.906,1.575,1.512,1.512,0,0,0,1.409-1.657C840.691,528.94,840.111,528.36,838.7,528.278Z" transform="translate(-702.386 -343.836)"/><path class="i" d="M962,560.374c.829-8.287.5-16.242.663-24.2.166-6.878,0-14-.5-20.965-.249-2.818.829-3.646,3.563-3.232,10.856,1.823,20.22,12.016,20.22,22.954C985.866,549.435,976.253,559.462,962,560.374Z" transform="translate(-728.481 -349.829)"/><path class="i" d="M1109.661,535.562c0,7.541-.083,15.165.083,22.706.083,2.817-.995,3.646-3.646,3.4-2.9-.166-5.8-.166-8.7-.083-2.4.083-3.48-.5-3.4-3.232q.124-22.5,0-45c0-2.735.58-4.06,3.646-3.729,3.812.414,8.7-1.492,11.187.746,2.486,2.32.663,7.292.746,11.1.249,4.723.083,9.364.083,14.087Z" transform="translate(-751.096 -349.381)"/><path class="i" d="M809.683,535.12c0-7.458.083-14.916-.083-22.374,0-2.486.746-3.48,3.315-3.232,3.978.414,9.033-1.657,11.6.829,2.569,2.4.746,7.541.829,11.519.166,11.684-.083,23.451.083,35.135.083,3.563-1.16,5.138-4.806,4.641a38.934,38.934,0,0,0-5.386,0c-5.635,0-5.635,0-5.635-5.8C809.683,548.875,809.683,542,809.683,535.12Z" transform="translate(-702.37 -349.352)"/><path class="i" d="M1053.823,520.7c1.906,1.16,1.989-1.906,3.895-1.409v36.13c-1.74.829-1.906-2.652-3.895-1.492l.083.083c.663-.911-.083-1.492-.5-2.155-6.381-9.7-6.464-19.391.166-29.086.414-.58,1.243-1.16.331-2.072Z" transform="translate(-743.32 -351.089)"/><path class="i" d="M863.4,519.2c11.27,8.2,11.353,28.092,0,36.213Z" transform="translate(-711.588 -351.084)"/><path class="j" d="M1102.862,475.715c-.994.249-1.906.58-2.9.829-1.657-1.243-3.646-.912-5.552-.912H1060.6c14.17-.58,28.423-.248,42.594-.083C1103.193,475.632,1103.028,475.715,1102.862,475.715Z" transform="translate(-745.374 -343.563)"/><path class="i" d="M811.363,641.56c-1.906.5-1.657-.911-1.575-1.657.083-.911-.58-2.486,1.243-2.4a2.868,2.868,0,0,1,2.817,2.569C814.1,642.223,811.611,640.317,811.363,641.56Z" transform="translate(-702.393 -371.351)"/><path class="i" d="M1112.111,639.254c.166,1.74-.911,1.906-2.072,1.906-.746-.083-1.823.166-1.74-1.077.166-1.657,1.492-2.32,2.9-2.486C1112.277,637.431,1112.028,638.674,1112.111,639.254Z" transform="translate(-753.546 -371.366)"/><path class="i" d="M1111.941,444.069c-2.32-.5-3.895-1.243-3.646-3.232.166-1.16,1.657-.746,2.486-.58C1113.1,440.754,1111.858,442.577,1111.941,444.069Z" transform="translate(-753.542 -337.522)"/><path class="b" d="M1053.624,520.9c.912.829.083,1.492-.332,2.072-6.546,9.7-6.546,19.308-.166,29.086.414.58,1.16,1.243.5,2.154C1045.172,546.589,1044.343,529.767,1053.624,520.9Z" transform="translate(-743.039 -351.375)"/><path class="b" d="M1078.964,540.492c-.166,1.243-.746,1.906-1.823,1.906a1.636,1.636,0,0,1-1.74-1.823,1.558,1.558,0,0,1,1.492-1.575A2.091,2.091,0,0,1,1078.964,540.492Z" transform="translate(-747.91 -354.476)"/><path class="b" d="M844.422,538.9c1.492.083,2.072.663,1.989,1.823A1.512,1.512,0,0,1,845,542.38a1.547,1.547,0,0,1-1.906-1.574C842.93,539.646,843.759,539.232,844.422,538.9Z" transform="translate(-708.105 -354.459)"/><g transform="translate(56.681 44.393)"><path class="f" d="M792.58,578.641c.083-.912.166-1.823.166-2.652.083-13.839.166-27.76.166-41.6a3.788,3.788,0,0,0-.911-3.066c.248-.746.414-1.492.663-2.237.414-11.518.249-22.954,0-34.473v-1.74q.5-21.5,0-43.008c-.083-.746-.166-1.409-.249-2.154,0-6.878.249-13.756.083-20.717a16.574,16.574,0,0,1,3.4-10.773c3.48-3.315,7.707-4.309,12.43-4.309q17.278.124,34.556,0c1.574,0,3.314.5,4.723-.746.166-.083.331-.083.5-.166.829.166,2.072.912,1.574-.911-.5-2.072-2.4-3.066-3.646-4.641l-26.1-32.07c-1.906-2.32-1.16-3.4,1.657-3.4h53.449c2.237,0,3.066,1.243,3.729,3.066,3.978,11.27,8.121,22.623,12.182,33.893.5,1.492.829,3.149,2.237,4.309,1.077-1.575.166-2.818-.249-3.978-3.978-11.021-7.955-22.043-12.016-33.064-1.077-2.983-.746-4.309,2.818-4.309,13.673.083,27.346.166,41.019,0,3.4,0,4.143,1.326,4.143,4.392-.083,10.773,0,21.545.083,32.318,0,1.574-.249,3.232.746,4.806,1.74-1.243,1.077-2.9,1.077-4.309,0-10.938,0-21.794-.166-32.732,0-2.983.663-4.558,4.143-4.475,15.5.166,30.909.083,46.406,0,3.812,0,4.061,1.243,2.735,4.392-4.475,10.856-8.784,21.711-13.093,32.65-.5,1.243-1.409,2.4-.911,4.309,1.989-1.077,2.32-3.066,2.983-4.641,4.475-11.1,9.033-22.208,13.342-33.4.911-2.32,2.072-3.149,4.475-3.149,16.822.083,33.727,0,50.549,0,1.16,0,2.735-.414,3.4.829.746,1.492-.663,2.569-1.492,3.563q-14.294,17.4-28.672,34.8c-1.077,1.326-2.4,2.4.746,1.906,1.74.083,3.563.249,5.3.332h35.467c9.778,0,15.247,5.635,15.247,15.413,0,6.712.083,13.507.083,20.22l-.249,1.989V576.487c.083,6.629.166,13.176.083,19.805,0,9.7-5.552,15.248-15.413,15.248-14.17.083-28.34.166-42.511.166-1.74-.249-2.072.249-.911,1.657,3.563,4.392,6.961,8.867,10.524,13.259l18.4,22.871c.663.829,1.906,1.574,1.326,2.734s-1.989.746-2.983.746c-16.408,0-32.9-.083-49.306.083-3.232,0-4.641-1.243-5.718-3.978-4.392-11.353-8.95-22.54-13.425-33.81-.5-1.16-.5-2.735-3.066-3.729,1.409,3.729,2.486,6.878,3.729,9.944,3.646,9.2,7.292,18.4,11.021,27.595.995,2.569,1.16,4.06-2.486,4.06-15.165-.166-30.412-.166-45.577,0-3.232,0-4.309-.912-4.226-4.226.166-10.773.083-21.545,0-32.318,0-1.491-.083-2.9-.249-5.3-1.989,1.989-1.657,3.646-1.657,5.138,0,11.021-.083,22.125,0,33.147,0,2.652-.829,3.563-3.563,3.563q-20.509-.124-41.019,0c-3.066,0-3.4-1.16-2.486-3.812,3.729-10.358,7.375-20.8,11.021-31.241.5-1.409,1.326-2.735.58-4.641-1.906,1.492-2.072,3.729-2.735,5.635-3.646,10.11-7.21,20.219-10.607,30.412-.911,2.652-2.4,3.481-5.138,3.481-18.231-.083-36.462,0-54.692,0-1.16,0-2.817.58-3.315-.829-.5-1.243.994-2.072,1.74-3.066,9.778-11.933,19.64-23.783,29.418-35.716.415-.5,1.409-.746.746-1.575-.5-.663-1.243-.166-1.906-.083-13.507-.083-26.932-.083-40.439-.249-8.287-.166-13.922-5.8-14-14.087C792.58,591.32,792.663,585.022,792.58,578.641ZM931.8,418.625H846.444c-11.187,0-22.374-.083-33.561.331-9.7.331-13.839,5.138-13.922,14.75V590.325c0,9.115,4.806,14.087,13.922,14.5,1.906.083,3.895.083,5.8.083h200.455c10.607,0,21.3.083,31.9,0,6.8-.083,12.6-3.978,13.176-9.115a101.856,101.856,0,0,0,.829-12.347c.083-49.554-.166-99.109.166-148.663.083-10.441-6.547-16.242-16.242-16.159C1009.94,418.791,970.827,418.625,931.8,418.625Z" transform="translate(-756.036 -369.896)"/><path class="f" d="M784.681,564.68a3.788,3.788,0,0,1,.912,3.066c-.083,13.839-.166,27.76-.166,41.6-11.353,5.3-22.623,10.607-33.975,15.993-2.072.994-2.652.249-2.652-1.74,0-17.319.083-34.721,0-52.04,0-1.906.58-2.735,2.486-2.983,8.784-.829,17.4-2.818,26.186-2.818C779.958,565.757,782.2,564.183,784.681,564.68Z" transform="translate(-748.634 -403.252)"/><path class="f" d="M1129.1,607.839V564.5c11.187,1.326,22.457,2.569,33.561,4.309,2.818.5,3.232,1.492,3.232,3.895-.083,15.993-.083,31.987.083,47.98,0,2.818-.58,3.315-3.232,2.155C1151.474,617.783,1140.287,612.811,1129.1,607.839Z" transform="translate(-813.791 -403.238)"/><path class="f" d="M1129,505.331V462.405c11.021-4.309,21.628-9.778,32.4-14.667,4.392-1.989,4.392-1.989,4.392,2.569,0,15.247-.166,30.578.083,45.825.083,3.563-.994,4.558-4.475,4.972C1150.545,502.264,1139.773,503.839,1129,505.331Z" transform="translate(-813.774 -383.016)"/><path class="f" d="M785.427,463.3q.5,21.5,0,43.008c-11.1-1.492-22.125-2.983-33.23-4.309-2.652-.331-3.4-1.326-3.4-3.895.083-15.745.166-31.489,0-47.234,0-3.48,1.16-3.563,3.812-2.32C763.467,453.521,774.489,458.41,785.427,463.3Z" transform="translate(-748.634 -383.247)"/><path class="f" d="M1129,554.131V518.664c4.64.911,8.784-1.409,13.259-1.74,6.546-.5,13.093-1.657,19.639-2.652,2.735-.414,3.978,0,3.895,3.149-.166,12.679-.083,25.357,0,37.953,0,2.569-.663,3.232-3.315,2.9C1151.374,556.783,1140.187,555.54,1129,554.131Z" transform="translate(-813.774 -394.609)"/><path class="f" d="M785.31,519.561c.249,11.518.415,22.954,0,34.472-10.11,1.243-20.219,2.486-30.412,3.895-6.215.829-6.215.912-6.215-5.138,0-11.436.083-22.871-.083-34.39,0-3.066.911-3.729,3.812-3.232C763.433,516.744,774.372,518.069,785.31,519.561Z" transform="translate(-748.6 -394.76)"/></g><path class="b" d="M811.795,438.383,807.9,438.3v4.972l1.16-.083-.331-3.48,2.569.083Z" transform="translate(-702.079 -337.223)"/></svg>