<svg xmlns="http://www.w3.org/2000/svg" width="14.8" height="14.8" viewBox="0 0 14.8 14.8"><defs><style>.a{fill:#22217f;}</style></defs><path class="a" d="M13.066,1.156h-.694V0H11.216V1.156H3.584V0H2.428V1.156H1.734A1.736,1.736,0,0,0,0,2.891V13.066A1.736,1.736,0,0,0,1.734,14.8H13.066A1.736,1.736,0,0,0,14.8,13.066V2.891A1.736,1.736,0,0,0,13.066,1.156Zm.578,11.909a.579.579,0,0,1-.578.578H1.734a.579.579,0,0,1-.578-.578V5.434H13.644Zm0-8.787H1.156V2.891a.579.579,0,0,1,.578-.578h.694V3.469H3.584V2.312h7.631V3.469h1.156V2.312h.694a.579.579,0,0,1,.578.578Z"/><g transform="translate(2.089 6.491)"><g transform="translate(0 0)"><rect class="a" width="1.741" height="0.871"/></g></g><g transform="translate(4.737 6.491)"><g transform="translate(0 0)"><rect class="a" width="0.871" height="0.871"/></g></g><g transform="translate(6.491 6.491)"><g transform="translate(0 0)"><rect class="a" width="0.871" height="0.871"/></g></g><g transform="translate(9.123 6.491)"><g transform="translate(0 0)"><rect class="a" width="0.871" height="0.871"/></g></g><g transform="translate(11.77 6.491)"><g transform="translate(0 0)"><rect class="a" width="0.871" height="0.871"/></g></g><g transform="translate(2.089 9.123)"><g transform="translate(0 0)"><rect class="a" width="1.741" height="0.871"/></g></g><g transform="translate(4.737 9.123)"><g transform="translate(0 0)"><rect class="a" width="0.871" height="0.871"/></g></g><g transform="translate(6.491 9.123)"><g transform="translate(0 0)"><rect class="a" width="0.871" height="0.871"/></g></g><g transform="translate(9.123 9.123)"><g transform="translate(0 0)"><rect class="a" width="0.871" height="0.871"/></g></g><g transform="translate(2.089 10.9)"><g transform="translate(0 0)"><rect class="a" width="1.741" height="1.741"/></g></g><g transform="translate(4.737 10.9)"><g transform="translate(0 0)"><rect class="a" width="0.871" height="1.741"/></g></g><g transform="translate(6.491 10.9)"><g transform="translate(0 0)"><rect class="a" width="0.871" height="1.741"/></g></g><g transform="translate(9.123 10.9)"><g transform="translate(0 0)"><rect class="a" width="0.871" height="1.741"/></g></g><g transform="translate(11.77 9.123)"><g transform="translate(0 0)"><rect class="a" width="0.871" height="0.871"/></g></g></svg>