<svg xmlns="http://www.w3.org/2000/svg" width="40.4" height="49.405" viewBox="0 0 40.4 49.405"><defs><style>.a{fill:#fff;stroke:#fff;stroke-width:0.4px;}</style></defs><g transform="translate(0.2 0.2)"><g transform="translate(0 0)"><path class="a" d="M86.089,8.344H82.317L69.736,1.356a3.346,3.346,0,0,0-5.38,0L51.774,8.344H48a.957.957,0,0,0-.957.957v3.828a.957.957,0,0,0,.957.957h3.062V44.209a.957.957,0,1,0,1.914,0V41.224l1.507.849v4.635a.957.957,0,0,0,1.914,0V43.151L57.907,44v4.049a.957.957,0,1,0,1.914,0V45.077l1.507.849v2.122a.957.957,0,1,0,1.914,0V47l3.334,1.878a.957.957,0,0,0,.939,0L70.85,47v1.044a.957.957,0,1,0,1.914,0V45.926l1.507-.849v2.971a.957.957,0,1,0,1.914,0V44l1.507-.849v3.557a.957.957,0,1,0,1.914,0V42.073l1.507-.849v2.986a.957.957,0,1,0,1.914,0V14.086h3.062a.957.957,0,0,0,.957-.957V9.3A.958.958,0,0,0,86.089,8.344ZM51.065,12.172H48.96V10.258h2.105v1.914ZM67.046,1.914A1.435,1.435,0,1,1,65.61,3.349,1.437,1.437,0,0,1,67.046,1.914ZM63.74,3.887a3.349,3.349,0,0,0,6.611,0l8.025,4.457H55.716Zm17.372,35.14L74.771,42.6h0l-3.42,1.927h0l-4.3,2.424-4.3-2.424h0L59.32,42.6h0l-6.341-3.572V14.086H81.113V39.027Zm0-26.855H52.979V10.258H81.113v1.914Zm4.019,0H83.027V10.258h2.105Z" transform="translate(-47.046)"/></g><g transform="translate(10.761 15.735)"><g transform="translate(0)"><path class="a" d="M180.025,174.228l-.006-.029a9.239,9.239,0,0,0-18.15,0c0,.01,0,.019-.006.029a9.233,9.233,0,0,0,3.511,9.068c.017.015.033.03.051.044a.935.935,0,0,0,.088.06,9.218,9.218,0,0,0,10.857,0c.026-.016.052-.033.077-.051s.05-.039.074-.061a9.233,9.233,0,0,0,3.5-9.061Zm-8.1-5.51a7.3,7.3,0,0,1,5.857,4.71h-3.128l-2.729-1.983ZM173.482,175l-.969,2.983h-3.137L168.407,175l2.538-1.844Zm-3.517-6.281v2.727l-2.729,1.983h-3.128A7.3,7.3,0,0,1,169.965,168.718Zm-6.3,7.211c0-.183.009-.363.022-.543h2.785l1.138,3.5-1.735,2.257A7.256,7.256,0,0,1,163.665,175.929Zm7.279,7.279a7.234,7.234,0,0,1-3.494-.9l1.824-2.372H172.7l1.754,2.363A7.232,7.232,0,0,1,170.944,183.209Zm5.081-2.074-1.723-2.321,1.114-3.427H178.2c.013.179.022.36.022.543A7.257,7.257,0,0,1,176.025,181.135Z" transform="translate(-161.706 -166.691)"/></g></g><g transform="translate(19.792 34.552)"><path class="a" d="M259.207,370.746h-1.29a1.357,1.357,0,0,1-1.355-1.355v-1.6a1.357,1.357,0,0,1,1.355-1.355h1.29a.98.98,0,0,0,0-1.959h-1.29a3.318,3.318,0,0,0-3.314,3.314v1.6a3.318,3.318,0,0,0,3.314,3.314h1.29a.98.98,0,1,0,0-1.959Z" transform="translate(-254.603 -364.477)"/></g><g transform="translate(14.639 34.552)"><path class="a" d="M203.681,367.611h-1.313v-1.175h1.313a.98.98,0,0,0,0-1.959h-2.293a.98.98,0,0,0-.98.98v6.269a.98.98,0,1,0,1.959,0V369.57h1.313a.98.98,0,1,0,0-1.959Z" transform="translate(-200.409 -364.477)"/></g></g></svg>