<svg xmlns="http://www.w3.org/2000/svg" width="18.126" height="19.329" viewBox="0 0 18.126 19.329"><defs><style>.a{fill:#51bdff;}.b{fill:#22217f;}</style></defs><g transform="translate(-15.937)"><g transform="translate(15.937)"><circle class="a" cx="1" cy="1" r="1" transform="translate(9 12.329)"/><path class="a" d="M28.358,17.819h-9.4a1.512,1.512,0,0,1-1.51-1.51V10.118a1.512,1.512,0,0,1,1.51-1.51H29.83a1.537,1.537,0,0,1,.417.046A.755.755,0,0,0,30.663,7.2a3,3,0,0,0-.833-.1h-.907V4.435a4.531,4.531,0,0,0-9.061,0V7.1h-.9a3.024,3.024,0,0,0-3.02,3.02v6.191a3.024,3.024,0,0,0,3.02,3.02h9.4a.755.755,0,0,0,0-1.51ZM21.372,4.435a3.022,3.022,0,0,1,6.04,0V7.1h-6.04Z" transform="translate(-15.937)"/><circle class="a" cx="1" cy="1" r="1" transform="translate(6 12.329)"/><path class="b" d="M359.363,263.651a2.681,2.681,0,0,0-5.363.031.755.755,0,1,0,1.51,0,1.171,1.171,0,0,1,2.343,0c0,.007,0,.014,0,.021a1.171,1.171,0,0,1-.712,1.058,2.008,2.008,0,0,0-1.214,1.854v.653a.755.755,0,1,0,1.51,0v-.653a.5.5,0,0,1,.3-.465,2.679,2.679,0,0,0,1.629-2.468C359.363,263.671,359.363,263.661,359.363,263.651Z" transform="translate(-341.237 -251.147)"/><ellipse class="b" cx="0.5" cy="1" rx="0.5" ry="1" transform="translate(15 17.329)"/><circle class="a" cx="1" cy="1" r="1" transform="translate(3 12.329)"/></g></g></svg>