<svg xmlns="http://www.w3.org/2000/svg" width="14.406" height="13.488" viewBox="0 0 14.406 13.488"><defs><style>.a{fill:#fff;}</style></defs><path class="a" d="M13.505,19.9H10.657a3.5,3.5,0,0,0,.5-.4,1.884,1.884,0,0,0,0-2.649,1.9,1.9,0,0,0-2.641,0A4.955,4.955,0,0,0,7.235,19.9H7.171a4.96,4.96,0,0,0-1.283-3.051,1.9,1.9,0,0,0-2.641,0,1.884,1.884,0,0,0,0,2.649,3.563,3.563,0,0,0,.5.4H.9a.9.9,0,0,0-.9.9v2.251a.45.45,0,0,0,.45.45H.9v5.4a.9.9,0,0,0,.9.9h10.8a.9.9,0,0,0,.9-.9V23.5h.45a.45.45,0,0,0,.45-.45V20.8A.9.9,0,0,0,13.505,19.9Zm-9.62-2.417a.96.96,0,0,1,1.364,0c.607.61,1.21,2.17,1,2.387a.3.3,0,0,1-.167.03,4.427,4.427,0,0,1-2.2-1.037A.982.982,0,0,1,3.885,17.481ZM6.753,28.9H1.8V23.5H6.753Zm0-6.3H.9V20.8H6.753Zm2.4-5.118a.97.97,0,1,1,1.364,1.379,4.427,4.427,0,0,1-2.2,1.037.3.3,0,0,1-.167-.03C7.947,19.651,8.55,18.092,9.157,17.481ZM12.605,28.9H7.653V23.5h4.952Zm.9-6.3H7.653V20.8h5.852Z" transform="translate(0 -16.314)"/></svg>