<svg xmlns="http://www.w3.org/2000/svg" width="16.903" height="15.263" viewBox="0 0 16.903 15.263"><defs><style>.a{fill:#fff;stroke:#fff;stroke-width:0.5px;}</style></defs><g transform="translate(0.25 0.25)"><g transform="translate(0 0)"><g transform="translate(0 0)"><path class="a" d="M15.583,43.721H.82a.82.82,0,0,0,0,1.64H15.583a.82.82,0,0,0,0-1.64ZM.82,32.239H15.583a.82.82,0,0,0,0-1.64H.82a.82.82,0,0,0,0,1.64ZM15.583,37.16H.82a.82.82,0,0,0,0,1.64H15.583a.82.82,0,0,0,0-1.64Z" transform="translate(0 -30.599)"/></g></g></g></svg>