<svg xmlns="http://www.w3.org/2000/svg" width="18.6" height="18.6" viewBox="0 0 18.6 18.6"><defs><style>.a{fill:#22217f;}</style></defs><g transform="translate(0)"><path class="a" d="M18.237,12.642H13.3V8.065a.363.363,0,0,0-.363-.363H12.3a.767.767,0,0,0-.038-.256l-.7-2.129L13.384,4a.748.748,0,0,0-.439-1.355H10.7L10.012.518a.748.748,0,0,0-1.424,0L7.9,2.646H5.654A.748.748,0,0,0,5.216,4L7.035,5.316l-.7,2.129A.768.768,0,0,0,6.3,7.7H5.667a.363.363,0,0,0-.363.363v4.577H.363A.363.363,0,0,0,0,13.006v5.231a.363.363,0,0,0,.363.363H18.237a.363.363,0,0,0,.363-.363V17.074a.363.363,0,0,0-.727,0v.8H13.3v-4.5h4.577v.8a.363.363,0,0,0,.727,0V13.006a.363.363,0,0,0-.363-.363ZM7.028,7.671,7.808,5.29a.363.363,0,0,0-.132-.407L5.642,3.412c-.009-.006-.013-.009-.008-.024s.01-.015.021-.015h2.51a.363.363,0,0,0,.346-.252L9.279.742c0-.01,0-.015.021-.015s.017,0,.021.015l.769,2.379a.363.363,0,0,0,.346.251h2.51c.011,0,.016,0,.021.015s0,.018-.008.024L10.924,4.883a.363.363,0,0,0-.132.407l.779,2.381c0,.01,0,.015-.008.024s-.017.006-.026,0L9.514,6.219a.364.364,0,0,0-.428,0L7.062,7.7c-.009.006-.013.009-.026,0s-.011-.014-.008-.024ZM9.3,6.962l1.014.74H8.286ZM.726,13.369H5.3v4.5H.726Zm5.3-.363V8.428h6.539v9.445H6.03Zm0,0" transform="translate(0 0)"/><path class="a" d="M438.363,1.25a.363.363,0,0,0,.363-.363V.363a.363.363,0,1,0-.727,0V.887A.363.363,0,0,0,438.363,1.25Zm0,0" transform="translate(-422.088)"/><path class="a" d="M438.363,66.836a.363.363,0,0,0,.363-.363v-.524a.363.363,0,1,0-.727,0v.524A.363.363,0,0,0,438.363,66.836Zm0,0" transform="translate(-422.088 -63.203)"/><path class="a" d="M463.949,40.727h.524a.363.363,0,0,0,0-.727h-.524a.363.363,0,0,0,0,.727Zm0,0" transform="translate(-446.745 -38.547)"/><path class="a" d="M398.363,40.727h.524a.363.363,0,0,0,0-.727h-.524a.363.363,0,0,0,0,.727Zm0,0" transform="translate(-383.542 -38.547)"/><path class="a" d="M54.363,126.6a.363.363,0,0,0,.363-.363v-.524a.363.363,0,0,0-.727,0v.524A.363.363,0,0,0,54.363,126.6Zm0,0" transform="translate(-52.039 -120.794)"/><path class="a" d="M54.363,192.18a.363.363,0,0,0,.363-.363v-.524a.363.363,0,0,0-.727,0v.524A.363.363,0,0,0,54.363,192.18Zm0,0" transform="translate(-52.039 -183.994)"/><path class="a" d="M79.949,166.075h.524a.363.363,0,0,0,0-.727h-.524a.363.363,0,0,0,0,.727Zm0,0" transform="translate(-76.695 -159.341)"/><path class="a" d="M14.363,166.075h.524a.363.363,0,0,0,0-.727h-.524a.363.363,0,0,0,0,.727Zm0,0" transform="translate(-13.492 -159.341)"/><path class="a" d="M492.363,420a.363.363,0,1,0,.257.106A.366.366,0,0,0,492.363,420Zm0,0" transform="translate(-474.127 -404.742)"/></g></svg>