<svg xmlns="http://www.w3.org/2000/svg" width="15.501" height="18.623" viewBox="0 0 15.501 18.623"><defs><style>.a{fill:#fff;stroke:#fff;stroke-width:0.5px;}</style></defs><path class="a" d="M33,17.366l-1.1-12.281a.65.65,0,0,0-.648-.592H28.971V3.467a3.466,3.466,0,1,0-6.933,0V4.492H19.763a.65.65,0,0,0-.648.592l-1.107,12.33a.65.65,0,0,0,.648.709h13.7a.65.65,0,0,0,.65-.65A.662.662,0,0,0,33,17.366Zm-9.657-13.9a2.166,2.166,0,1,1,4.331,0V4.492H23.339ZM19.367,16.822l.99-11.029h1.681V6.957a.65.65,0,1,0,1.3,0V5.793H27.67V6.957a.65.65,0,1,0,1.3,0V5.793h1.679l.99,11.029H19.367Z" transform="translate(-17.754 0.25)"/></svg>