<svg xmlns="http://www.w3.org/2000/svg" width="13.918" height="17.78" viewBox="0 0 13.918 17.78"><defs><style>.a{fill:#fff;stroke:#fff;stroke-width:0.5px;}</style></defs><g transform="translate(0.25 0.25)"><path class="a" d="M88.441,8.132a4.066,4.066,0,1,0-4.066-4.066A4.071,4.071,0,0,0,88.441,8.132Zm0-6.505A2.44,2.44,0,1,1,86,4.066,2.442,2.442,0,0,1,88.441,1.626Z" transform="translate(-81.732)"/><path class="a" d="M42.334,180a6.716,6.716,0,0,0-6.709,6.709v.813H49.043v-.813A6.716,6.716,0,0,0,42.334,180Zm-5.017,5.9a5.083,5.083,0,0,1,10.035,0Z" transform="translate(-35.625 -170.242)"/></g></svg>