<svg xmlns="http://www.w3.org/2000/svg" width="17.931" height="11.429" viewBox="0 0 17.931 11.429"><defs><style>.a{fill:#fff;}</style></defs><g transform="translate(0 0)"><g transform="translate(0 0)"><g transform="translate(0 0)"><path class="a" d="M17.817,98.2c-.16-.219-3.977-5.365-8.852-5.365S.274,97.981.114,98.2a.592.592,0,0,0,0,.7c.16.219,3.977,5.366,8.852,5.366s8.691-5.146,8.852-5.365A.591.591,0,0,0,17.817,98.2Zm-8.852,4.881c-3.591,0-6.7-3.416-7.621-4.532.919-1.118,4.023-4.532,7.621-4.532s6.7,3.415,7.621,4.532C15.667,99.667,12.564,103.081,8.965,103.081Z" transform="translate(0 -92.835)"/></g></g><g transform="translate(5.419 2.167)"><g transform="translate(0 0)"><path class="a" d="M158.269,154.725a3.547,3.547,0,1,0,3.547,3.547A3.551,3.551,0,0,0,158.269,154.725Zm0,5.911a2.365,2.365,0,1,1,2.365-2.365A2.367,2.367,0,0,1,158.269,160.636Z" transform="translate(-154.722 -154.725)"/></g></g></g></svg>