<svg xmlns="http://www.w3.org/2000/svg" width="18" height="11.473" viewBox="0 0 18 11.473"><defs><style>.a{fill:#22217f;}.b{fill:#51bdff;}</style></defs><g transform="translate(0 -92.835)"><g transform="translate(0 92.835)"><g transform="translate(0 0)"><path class="a" d="M17.886,98.221C17.725,98,13.893,92.835,9,92.835S.275,98,.114,98.221a.594.594,0,0,0,0,.7c.161.22,3.992,5.386,8.886,5.386s8.725-5.166,8.886-5.386A.593.593,0,0,0,17.886,98.221ZM9,103.121c-3.6,0-6.726-3.429-7.651-4.55C2.272,97.449,5.388,94.022,9,94.022s6.726,3.428,7.651,4.55C15.728,99.694,12.612,103.121,9,103.121Z" transform="translate(0 -92.835)"/></g></g><g transform="translate(5.345 94.916)"><path class="b" d="M158.377,154.725a3.655,3.655,0,1,0,3.655,3.655A3.659,3.659,0,0,0,158.377,154.725Zm0,6.092a2.437,2.437,0,1,1,2.437-2.437A2.44,2.44,0,0,1,158.377,160.817Z" transform="translate(-154.722 -154.725)"/></g></g></svg>