<svg xmlns="http://www.w3.org/2000/svg" width="16.882" height="16.898" viewBox="0 0 16.882 16.898"><defs><style>.a{fill:#51bdff;}</style></defs><g transform="translate(0 0)"><path class="a" d="M16.918,15.7l-5.4-5.4a6.336,6.336,0,1,0-1,.994l5.4,5.4a.7.7,0,0,0,1-1ZM1.65,6.338A4.929,4.929,0,1,1,10.056,9.83h0A4.928,4.928,0,0,1,1.65,6.338Z" transform="translate(-0.242 -0.001)"/><path class="a" d="M111.353,170.667h-4.225a.7.7,0,0,0,0,1.408h4.225a.7.7,0,1,0,0-1.408Z" transform="translate(-102.92 -165.034)"/></g></svg>