<svg xmlns="http://www.w3.org/2000/svg" width="16.898" height="16.898" viewBox="0 0 16.898 16.898"><defs><style>.a{fill:#51bdff;}</style></defs><g transform="translate(0 0)"><path class="a" d="M16.7,15.771,11.937,11a6.734,6.734,0,1,0-.934.934L15.771,16.7a.66.66,0,0,0,.934-.934Zm-6.145-5.211a5.414,5.414,0,1,1,0-7.656A5.42,5.42,0,0,1,10.559,10.559Z" transform="translate(0 0)"/></g><g transform="translate(2.838 2.838)"><path class="a" d="M93.13,89.238H90.558V86.665a.66.66,0,0,0-1.32,0v2.572H86.665a.66.66,0,0,0,0,1.32h2.572V93.13a.66.66,0,0,0,1.32,0V90.558H93.13a.66.66,0,1,0,0-1.32Z" transform="translate(-86.005 -86.005)"/></g></svg>