<svg xmlns="http://www.w3.org/2000/svg" width="178.467" height="73.833" viewBox="0 0 178.467 73.833">
  <g id="match-perso" transform="translate(-779.395 -686)">
    <g id="bullets_bg" data-name="bullets bg" transform="translate(779.395 690.082)">
      <g id="Groupe_1866" data-name="Groupe 1866" transform="translate(73.768 2.208)" opacity="0.5">
        <path id="Tracé_1643" data-name="Tracé 1643" d="M352.546,37.17a2.529,2.529,0,1,1-2.529-2.529A2.529,2.529,0,0,1,352.546,37.17Z" transform="translate(-347.488 -34.641)" fill="#4d4085"/>
      </g>
      <path id="Tracé_1644" data-name="Tracé 1644" d="M166.19,35.987a2.529,2.529,0,1,1-2.529-2.529A2.529,2.529,0,0,1,166.19,35.987Z" transform="translate(-155.609 -31.761)" fill="#00afff"/>
      <g id="Groupe_1867" data-name="Groupe 1867" transform="translate(18.423 26.716)" opacity="0.5">
        <path id="Tracé_1645" data-name="Tracé 1645" d="M90.676,48.207a.98.98,0,1,1-.98-.98A.98.98,0,0,1,90.676,48.207Z" transform="translate(-88.715 -47.227)" fill="#4d4085"/>
      </g>
      <path id="Tracé_1646" data-name="Tracé 1646" d="M383.708,43.542a2.136,2.136,0,1,1-2.136-2.136A2.136,2.136,0,0,1,383.708,43.542Z" transform="translate(-279.623 -36.276)" fill="#fff"/>
      <circle id="Ellipse_18" data-name="Ellipse 18" cx="3.215" cy="3.215" r="3.215" transform="translate(24.595 41.023) rotate(-45)" fill="#00afff"/>
      <path id="Tracé_1647" data-name="Tracé 1647" d="M209.666,30.462a.933.933,0,1,1-.932-.933A.933.933,0,0,1,209.666,30.462Z" transform="translate(-182.121 -29.529)" fill="#00afff"/>
      <path id="Tracé_1648" data-name="Tracé 1648" d="M107.043,124.067a.933.933,0,1,1-.933-.933A.933.933,0,0,1,107.043,124.067Z" transform="translate(-100.071 -82.704)" fill="#00afff"/>
      <path id="Tracé_1649" data-name="Tracé 1649" d="M293.332,113.093a.933.933,0,1,1-.933-.933A.933.933,0,0,1,293.332,113.093Z" transform="translate(-243.91 -80.024)" fill="#00afff"/>
      <path id="Tracé_1650" data-name="Tracé 1650" d="M272.78,35.041a.933.933,0,1,1-.932-.933A.932.932,0,0,1,272.78,35.041Z" transform="translate(-217.975 -32.13)" fill="#00afff"/>
      <path id="Tracé_1651" data-name="Tracé 1651" d="M383.175,148.158a.933.933,0,1,1-.933-.932A.933.933,0,0,1,383.175,148.158Z" transform="translate(-280.688 -96.391)" fill="#fff"/>
      <ellipse id="Ellipse_19" data-name="Ellipse 19" cx="1.865" cy="1.865" rx="1.865" ry="1.865" transform="translate(18.519 14.66)" fill="#e52c65"/>
      <path id="Tracé_1652" data-name="Tracé 1652" d="M349.206,93.494a1.865,1.865,0,1,1-1.865-1.865A1.865,1.865,0,0,1,349.206,93.494Z" transform="translate(-260.331 -64.807)" fill="#e52c65"/>
      <path id="Tracé_1653" data-name="Tracé 1653" d="M228.06,38.752a2.529,2.529,0,1,1-2.529-2.528A2.529,2.529,0,0,1,228.06,38.752Z" transform="translate(-190.756 -33.332)" fill="#e52c65"/>
      <path id="Tracé_1654" data-name="Tracé 1654" d="M297.553,129.6a1.395,1.395,0,1,1-1.4-1.4A1.395,1.395,0,0,1,297.553,129.6Z" transform="translate(-294.763 -98.833)" fill="#00afff"/>
      <path id="Tracé_1655" data-name="Tracé 1655" d="M138.692,135.193a1.808,1.808,0,1,1-1.808-1.808A1.808,1.808,0,0,1,138.692,135.193Z" transform="translate(-96.646 -114.039)" fill="#3a337e"/>
      <g id="Groupe_1868" data-name="Groupe 1868" transform="translate(106.666 18.302)" opacity="0.5">
        <path id="Tracé_1656" data-name="Tracé 1656" d="M398.735,73.619A1.716,1.716,0,1,1,397.02,71.9,1.715,1.715,0,0,1,398.735,73.619Z" transform="translate(-395.304 -71.903)" fill="#4d4085"/>
      </g>
    </g>
    <g id="bullets_bg-2" data-name="bullets bg" transform="translate(847.764 690.082)">
      <g id="Groupe_1866-2" data-name="Groupe 1866" transform="translate(31.271 2.208)" opacity="0.5">
        <path id="Tracé_1643-2" data-name="Tracé 1643" d="M347.488,37.17a2.529,2.529,0,1,0,2.529-2.529A2.529,2.529,0,0,0,347.488,37.17Z" transform="translate(-347.488 -34.641)" fill="#4d4085"/>
      </g>
      <path id="Tracé_1644-2" data-name="Tracé 1644" d="M161.132,35.987a2.529,2.529,0,1,0,2.529-2.529A2.529,2.529,0,0,0,161.132,35.987Z" transform="translate(-61.615 -31.761)" fill="#00afff"/>
      <g id="Groupe_1867-2" data-name="Groupe 1867" transform="translate(89.714 26.716)" opacity="0.5">
        <path id="Tracé_1645-2" data-name="Tracé 1645" d="M88.715,48.207a.98.98,0,1,0,.98-.98A.98.98,0,0,0,88.715,48.207Z" transform="translate(-88.715 -47.227)" fill="#4d4085"/>
      </g>
      <path id="Tracé_1646-2" data-name="Tracé 1646" d="M379.436,43.542a2.136,2.136,0,1,0,2.136-2.136A2.136,2.136,0,0,0,379.436,43.542Z" transform="translate(-373.423 -36.276)" fill="#fff"/>
      <circle id="Ellipse_18-2" data-name="Ellipse 18" cx="3.215" cy="3.215" r="3.215" transform="translate(80.956 45.569) rotate(-135)" fill="#00afff"/>
      <path id="Tracé_1647-2" data-name="Tracé 1647" d="M207.8,30.462a.933.933,0,1,0,.933-.933A.933.933,0,0,0,207.8,30.462Z" transform="translate(-125.249 -29.529)" fill="#00afff"/>
      <path id="Tracé_1648-2" data-name="Tracé 1648" d="M105.178,124.067a.933.933,0,1,0,.933-.933A.933.933,0,0,0,105.178,124.067Z" transform="translate(-2.053 -82.704)" fill="#00afff"/>
      <path id="Tracé_1649-2" data-name="Tracé 1649" d="M291.467,113.093a.933.933,0,1,0,.933-.933A.933.933,0,0,0,291.467,113.093Z" transform="translate(-230.792 -80.024)" fill="#00afff"/>
      <path id="Tracé_1650-2" data-name="Tracé 1650" d="M270.915,35.041a.933.933,0,1,0,.933-.933A.932.932,0,0,0,270.915,35.041Z" transform="translate(-215.623 -32.13)" fill="#00afff"/>
      <path id="Tracé_1651-2" data-name="Tracé 1651" d="M381.31,148.158a.932.932,0,1,0,.933-.932A.933.933,0,0,0,381.31,148.158Z" transform="translate(-373.7 -96.391)" fill="#fff"/>
      <ellipse id="Ellipse_19-2" data-name="Ellipse 19" cx="1.865" cy="1.865" rx="1.865" ry="1.865" transform="translate(87.849 14.66)" fill="#e52c65"/>
      <path id="Tracé_1652-2" data-name="Tracé 1652" d="M345.476,93.494a1.865,1.865,0,1,0,1.865-1.865A1.865,1.865,0,0,0,345.476,93.494Z" transform="translate(-324.253 -64.807)" fill="#e52c65"/>
      <path id="Tracé_1653-2" data-name="Tracé 1653" d="M223,38.752a2.529,2.529,0,1,0,2.529-2.528A2.529,2.529,0,0,0,223,38.752Z" transform="translate(-150.208 -33.332)" fill="#e52c65"/>
      <path id="Tracé_1654-2" data-name="Tracé 1654" d="M294.763,129.6a1.395,1.395,0,1,0,1.4-1.4A1.395,1.395,0,0,0,294.763,129.6Z" transform="translate(-187.455 -98.833)" fill="#00afff"/>
      <path id="Tracé_1655-2" data-name="Tracé 1655" d="M135.075,135.193a1.808,1.808,0,1,0,1.808-1.808A1.808,1.808,0,0,0,135.075,135.193Z" transform="translate(-67.024 -114.039)" fill="#3a337e"/>
      <g id="Groupe_1868-2" data-name="Groupe 1868" transform="translate(0 18.302)" opacity="0.5">
        <path id="Tracé_1656-2" data-name="Tracé 1656" d="M395.3,73.619A1.716,1.716,0,1,0,397.02,71.9,1.715,1.715,0,0,0,395.3,73.619Z" transform="translate(-395.304 -71.903)" fill="#4d4085"/>
      </g>
    </g>
    <g id="personnage" transform="translate(832.766 686)">
      <g id="Groupe_1784" data-name="Groupe 1784" transform="translate(19.285)">
        <path id="Tracé_1424" data-name="Tracé 1424" d="M90.044,344.977s-.223.945-.6,2.331c-.207.762.144,2.531.256,6.566.081,2.918.117,5.916.117,5.916l1.816,1.085s.192-1.571.512-3.3a49.792,49.792,0,0,0,.924-5.32c.025-2.1-.359-2.76-.11-3.728a15.612,15.612,0,0,0,.6-3.395Z" transform="translate(-77.08 -290.104)" fill="#ffa194"/>
        <path id="Tracé_1425" data-name="Tracé 1425" d="M102.47,344.977s.224.945.6,2.331c.206.762-.144,2.531-.256,6.566-.081,2.918-.118,5.916-.118,5.916l-1.327,1.085a25.47,25.47,0,0,1-1.081-3.72,41.812,41.812,0,0,1-.843-4.895c-.025-2.1.359-2.76.11-3.728a15.612,15.612,0,0,1-.6-3.395Z" transform="translate(-80.899 -290.104)" fill="#ffa194"/>
        <g id="Groupe_1769" data-name="Groupe 1769">
          <path id="Tracé_1426" data-name="Tracé 1426" d="M69.692,282.717l-.777,6.356A66.38,66.38,0,0,0,86.059,291.8a60.463,60.463,0,0,0,17.074-2.568l-.747-6.356a61.37,61.37,0,0,1-16.327,2.34A65.4,65.4,0,0,1,69.692,282.717Z" transform="translate(-68.915 -268.583)" fill="#51bdff"/>
          <path id="Tracé_1427" data-name="Tracé 1427" d="M86.574,272.2a64.263,64.263,0,0,1-15.43-2.243l-.937,7.669a65.4,65.4,0,0,0,16.367,2.5,61.368,61.368,0,0,0,16.327-2.34l-.9-7.673A61.561,61.561,0,0,1,86.574,272.2Z" transform="translate(-69.43 -263.493)" fill="#f20066"/>
          <path id="Tracé_1428" data-name="Tracé 1428" d="M97.56,260.041c-2.327,1.438-7.7,2.146-10.4,2.146-2.553,0-8.282-2.375-11.134-2.737-3.349-.424-3.64,1.155-3.64,1.155l-.619,5.062a64.263,64.263,0,0,0,15.43,2.243,61.562,61.562,0,0,0,15.426-2.087l-.613-5.218S101.077,257.868,97.56,260.041Z" transform="translate(-70.052 -259.202)" fill="#00afff"/>
        </g>
        <g id="Groupe_1774" data-name="Groupe 1774" transform="translate(12.764 5.255)">
          <g id="Groupe_1773" data-name="Groupe 1773">
            <g id="Groupe_1772" data-name="Groupe 1772" transform="translate(0 0.39)">
              <path id="Tracé_1429" data-name="Tracé 1429" d="M98.2,278.586s-1.081-.385-1.053-1.01,0-1.877,0-1.877H94.843s-.028,1.251,0,1.877-1.052,1.01-1.052,1.01a2.824,2.824,0,0,0,1.64,1.11.7.7,0,0,0,.368.094c.068,0,.132-.005.2-.009s.129.009.2.009a.7.7,0,0,0,.368-.094A2.824,2.824,0,0,0,98.2,278.586Z" transform="translate(-91.603 -271.428)" fill="#f97b6e"/>
              <g id="Groupe_1771" data-name="Groupe 1771" transform="translate(1.941)">
                <g id="Groupe_1770" data-name="Groupe 1770">
                  <path id="Tracé_1430" data-name="Tracé 1430" d="M93.91,272.726s-.289-.153-.477.221a.769.769,0,0,0,.482.989C94.238,273.954,93.91,272.726,93.91,272.726Z" transform="translate(-93.38 -270.23)" fill="#ffa194"/>
                  <path id="Tracé_1431" data-name="Tracé 1431" d="M100.586,272.734s.309-.109.439.289a.769.769,0,0,1-.621.908C100.082,273.9,100.586,272.734,100.586,272.734Z" transform="translate(-96.139 -270.24)" fill="#ffa194"/>
                  <path id="Tracé_1432" data-name="Tracé 1432" d="M98.139,271.511c0,1.611-1.37,2.917-2.1,2.917-.7,0-2.1-1.306-2.1-2.917s.939-2.917,2.1-2.917S98.139,269.9,98.139,271.511Z" transform="translate(-93.605 -268.594)" fill="#ffa194"/>
                </g>
              </g>
              <path id="Tracé_1433" data-name="Tracé 1433" d="M98.46,290.075a14.507,14.507,0,0,1-.451-3.376c.091-.9.2-1.7.287-2.276.053-.3.1-.6.148-.9l0-.011v0a30.992,30.992,0,0,0,.388-4.07,21.091,21.091,0,0,0-2.513.433,2.307,2.307,0,0,1-3.55,0,14.2,14.2,0,0,1-1.393-.283,1.855,1.855,0,0,0-1.225,0,10.651,10.651,0,0,0,.183,1.462c.133.751.313,1.692.489,2.591.061.9.457,2.221.688,3.51a5.309,5.309,0,0,1-.008,1.14l0,.035c-.019.157-.044.3-.072.432-.052.237-.12.528-.194.857v0h0a20.61,20.61,0,0,0-.535,3.6h8.132a12.1,12.1,0,0,0-.376-3.154Z" transform="translate(-90.151 -272.921)" fill="#fff"/>
            </g>
            <path id="Tracé_1434" data-name="Tracé 1434" d="M98.11,270.544a2.081,2.081,0,0,0-1.459-2.477c-2.139-.655-2.809,1.49-2.7,2.477Z" transform="translate(-91.664 -267.945)" fill="#442a69"/>
          </g>
        </g>
        <path id="Tracé_1435" data-name="Tracé 1435" d="M99.145,302.37s.745,4.324-1.209,5.714c-2.537,1.805-5.921,1.361-6.858-1.164a26.454,26.454,0,0,1-.065-4.551Z" transform="translate(-77.701 -275.073)" fill="#004cba"/>
        <path id="Tracé_1436" data-name="Tracé 1436" d="M99.342,344.161c-.29-2.2-.692-5.059-1.181-7.349a5.843,5.843,0,0,1-1.257-.4H90.651a5.9,5.9,0,0,1-1.3.412c-.32,2.146-.6,4.8-.789,7.522a5.075,5.075,0,0,0,4.7.319c.311-2.381.637-5.731.637-5.731a49.147,49.147,0,0,0,.794,5.68C95.856,345.491,98.708,344.885,99.342,344.161Z" transform="translate(-76.753 -287.514)" fill="#22217f"/>
        <g id="Groupe_1775" data-name="Groupe 1775" transform="translate(11.299 31.706)">
          <path id="Tracé_1437" data-name="Tracé 1437" d="M94.025,328.455a41.126,41.126,0,0,1-5.622-.42l-.5,5.169a15.855,15.855,0,0,0,5.689.861,29.021,29.021,0,0,0,5.718-.554l-.882-5.4A35.768,35.768,0,0,1,94.025,328.455Z" transform="translate(-87.791 -316.499)" fill="#00afff"/>
          <path id="Tracé_1438" data-name="Tracé 1438" d="M97.509,315.276l-.044-.268.093.239A36.52,36.52,0,0,1,98.6,309.9a11.558,11.558,0,0,0-2.753-.846c-.7-.14-1.229-.208-1.229-.208s-.214.651-1.221.651a1.364,1.364,0,0,1-1.213-.651l-.976.194c-.981.194-2.444.479-3.129.594.048.316-.4,1.816-.368,2.063.148,1.274,1.023,2.156,1.09,3.366a27.153,27.153,0,0,0,4.9.475C94.373,315.535,96.222,315.387,97.509,315.276Z" transform="translate(-87.714 -308.843)" fill="#00afff"/>
          <path id="Tracé_1439" data-name="Tracé 1439" d="M98.762,324.583l-.846-5.181c-1.287.111-3.136.26-3.807.26a27.155,27.155,0,0,1-4.9-.475,2.608,2.608,0,0,1,0,.368l-.475,4.95a41.12,41.12,0,0,0,5.622.42A35.768,35.768,0,0,0,98.762,324.583Z" transform="translate(-88.12 -312.969)" fill="#51bdff"/>
        </g>
        <path id="Tracé_1440" data-name="Tracé 1440" d="M90.947,308.325s.024,1.969.142,2.735A12.511,12.511,0,0,0,92.2,314.4s.163-4.821.677-5.981c.237-.048.461-.082.6-.113a6.1,6.1,0,0,0,.044-.778,4.013,4.013,0,0,0-1.078.017A3.284,3.284,0,0,0,90.947,308.325Z" transform="translate(-77.704 -276.957)" fill="#0c97ec"/>
        <path id="Tracé_1441" data-name="Tracé 1441" d="M101.856,308.328s-.182,2.109-.3,2.875a9.874,9.874,0,0,1-1.171,3.2s-.093-4.821-.606-5.981c-.237-.048-.461-.082-.6-.113a6.1,6.1,0,0,1-.044-.778,4.009,4.009,0,0,1,1.078.017A3.735,3.735,0,0,1,101.856,308.328Z" transform="translate(-80.97 -276.957)" fill="#0c97ec"/>
        <g id="Groupe_1776" data-name="Groupe 1776" transform="translate(11.061 38.645)">
          <path id="Tracé_1442" data-name="Tracé 1442" d="M87.954,321.946c.409-.4.873-.531,1.3,0s.517.48,1.007,0a4.644,4.644,0,0,1,.489-.416c.011-.405-.005-1.014-.005-1.014H88.1a5.124,5.124,0,0,0-.781,1.43,1.229,1.229,0,0,0,0,.157A.7.7,0,0,0,87.954,321.946Z" transform="translate(-87.317 -320.516)" fill="#fff"/>
          <path id="Tracé_1443" data-name="Tracé 1443" d="M88.367,323.492c.643.017,1.061-.017,1.638,0s.7-.549.738-1.149c0-.041,0-.09.005-.139a4.647,4.647,0,0,0-.489.416c-.49.48-.585.531-1.007,0s-.886-.4-1.3,0a.7.7,0,0,1-.632.158C87.351,323.364,87.775,323.475,88.367,323.492Z" transform="translate(-87.32 -321.189)" fill="#442a69"/>
        </g>
        <g id="Groupe_1777" data-name="Groupe 1777" transform="translate(19.424 38.645)">
          <path id="Tracé_1444" data-name="Tracé 1444" d="M104.026,321.946c-.409-.4-.873-.531-1.3,0s-.518.48-1.007,0a4.581,4.581,0,0,0-.488-.416c-.012-.405.005-1.014.005-1.014h2.639a5.122,5.122,0,0,1,.781,1.43,1.343,1.343,0,0,1,0,.157A.694.694,0,0,1,104.026,321.946Z" transform="translate(-101.231 -320.516)" fill="#fff"/>
          <path id="Tracé_1445" data-name="Tracé 1445" d="M103.619,323.492c-.643.017-1.061-.017-1.639,0s-.7-.549-.738-1.149c0-.041,0-.09-.005-.139a4.585,4.585,0,0,1,.488.416c.49.48.585.531,1.007,0s.886-.4,1.3,0a.694.694,0,0,0,.632.158C104.635,323.364,104.212,323.475,103.619,323.492Z" transform="translate(-101.234 -321.189)" fill="#442a69"/>
        </g>
        <path id="Tracé_1446" data-name="Tracé 1446" d="M90.057,299.462c-1.863,0-2.121,3.488-2.2,5.138-.052,1.055,0,8.006,0,8.006l3.337.184s.315-6.673.611-9.145C91.933,302.52,91.893,299.463,90.057,299.462Z" transform="translate(-76.461 -273.86)" fill="#4d4085"/>
        <path id="Tracé_1447" data-name="Tracé 1447" d="M101.595,299.462c1.863,0,2.121,3.488,2.2,5.138.052,1.055,0,8.006,0,8.006l-3.338.184s-.315-6.673-.611-9.145C99.718,302.52,99.759,299.463,101.595,299.462Z" transform="translate(-81.238 -273.86)" fill="#4d4085"/>
        <g id="Groupe_1778" data-name="Groupe 1778" transform="translate(14.391 24.436)">
          <path id="Tracé_1448" data-name="Tracé 1448" d="M95.188,306.855s0,.757-.031,1.151a1.281,1.281,0,0,0,1.118.671c.344.043,1.272-.081,1.316-.671-.033-.613-.044-1.262-.044-1.262Z" transform="translate(-93.774 -301.387)" fill="#f97b6e"/>
          <path id="Tracé_1449" data-name="Tracé 1449" d="M98.423,300.721c-.136-.413-.456-.3-.456-.3s-.026.063-.061.15c-.111-1.538-1.1-2.741-2.3-2.741a2.613,2.613,0,0,0-2.278,2.569c-.1-.022-.286-.016-.42.254a.8.8,0,0,0,.477,1.021,2.222,2.222,0,1,0,4.445-.017A.814.814,0,0,0,98.423,300.721Z" transform="translate(-92.856 -297.831)" fill="#ffa194"/>
        </g>
        <path id="Tracé_1450" data-name="Tracé 1450" d="M98.051,297.325c-.775-1.275-3.475-1.35-4.26-.094a6.882,6.882,0,0,0-.352,2.561l.352.469a8.471,8.471,0,0,1,.435-1.586c.159-.292.852-.109,1.637-.075.7.031,1.491-.117,1.65.112a5.578,5.578,0,0,1,.422,1.548l.352-.469A9.182,9.182,0,0,0,98.051,297.325Z" transform="translate(-78.698 -272.902)" fill="#442a69"/>
        <path id="Tracé_1451" data-name="Tracé 1451" d="M101.588,272.2s2.089-1.871,2.854-2.51,2.76-3.4,3.27-3.975a29.366,29.366,0,0,0,2.424-2.933c.243-.438.211-1.973.456-2.147.426-.3.334,1.217.334,1.217s1.309-1.388,2.038-1.247,1.506.477.046,1.856a11.628,11.628,0,0,0-2.618,2.83c-.986,1.485-.261,1.441-3.645,4.751-.869.851-2.062,3.361-3.6,4.953A6,6,0,0,0,101.588,272.2Z" transform="translate(-81.949 -259.759)" fill="#ffa194"/>
        <path id="Tracé_1452" data-name="Tracé 1452" d="M84.84,272.107a11.541,11.541,0,0,0-2.348-2.413c-.766-.64-2.476-2.806-2.987-3.381a27.943,27.943,0,0,1-2.464-3.089c-.243-.438-.454-2.411-.7-2.585-.426-.3-.334,1.217-.334,1.217s-1.309-1.388-2.038-1.247-1.643,1-.091,2.142c1.208.885,1.727,1.106,2.291,2.264a35.577,35.577,0,0,0,3.389,4.681c1.536,2.23,4.231,5.3,4.231,5.3A11.665,11.665,0,0,1,84.84,272.107Z" transform="translate(-70.556 -259.759)" fill="#ffa194"/>
        <path id="Tracé_1453" data-name="Tracé 1453" d="M114.106,261.566s1.217-2.421,3.569-1.731a1.852,1.852,0,0,1,1.224.974S115.394,261.894,114.106,261.566Z" transform="translate(-86.943 -259.405)" fill="#00afff"/>
        <path id="Tracé_1454" data-name="Tracé 1454" d="M77.589,261.566s-1.217-2.421-3.569-1.731a1.85,1.85,0,0,0-1.224.974S76.3,261.894,77.589,261.566Z" transform="translate(-70.463 -259.405)" fill="#00afff"/>
        <g id="Groupe_1779" data-name="Groupe 1779" transform="translate(13.294 7.579)">
          <path id="Tracé_1455" data-name="Tracé 1455" d="M91.682,271.812a.105.105,0,0,0-.051.2c-.31.078-.619.254-.6.619a.377.377,0,0,0,.36.37c-.108.344-.166.634.147.851.239.167.641.215.763,0a.56.56,0,0,0,.534.195,1.235,1.235,0,0,0,.894-.975C94.008,271.927,92.445,271.822,91.682,271.812Z" transform="translate(-91.032 -271.812)" fill="#442a69"/>
        </g>
        <g id="Groupe_1780" data-name="Groupe 1780" transform="translate(18.076 7.589)">
          <path id="Tracé_1456" data-name="Tracé 1456" d="M101.071,271.828a.105.105,0,0,1,.051.2c.31.078.62.254.6.619a.377.377,0,0,1-.36.37c.109.344.166.633-.147.851-.239.166-.642.215-.764,0a.559.559,0,0,1-.534.195,1.236,1.236,0,0,1-.894-.975C98.745,271.943,100.308,271.838,101.071,271.828Z" transform="translate(-98.989 -271.828)" fill="#442a69"/>
        </g>
        <g id="Groupe_1781" data-name="Groupe 1781" transform="translate(14.373 0.972)">
          <path id="Tracé_1457" data-name="Tracé 1457" d="M93.2,266.618a12.431,12.431,0,0,1-.141,3.25,9.33,9.33,0,0,0,2.456.475V267.1A5.771,5.771,0,0,1,93.2,266.618Z" transform="translate(-92.919 -263.133)" fill="#f20066"/>
          <path id="Tracé_1458" data-name="Tracé 1458" d="M95.422,261.331a4.86,4.86,0,0,1-1.562-.284c-.93-.2-1.245.9-.894,2.451a7.439,7.439,0,0,1,.141.888,5.772,5.772,0,0,0,2.315.48Z" transform="translate(-92.826 -260.901)" fill="#fff"/>
          <path id="Tracé_1459" data-name="Tracé 1459" d="M99.816,269.934a26.7,26.7,0,0,1-.373-3.151,8.383,8.383,0,0,1-2.259.382h-.038v3.245A4.99,4.99,0,0,0,99.816,269.934Z" transform="translate(-94.549 -263.199)" fill="#fff"/>
          <path id="Tracé_1460" data-name="Tracé 1460" d="M97.183,264.787a8.382,8.382,0,0,0,2.259-.382c0-.07,0-.139,0-.2.006-1.224.481-2.913-.136-3.235s-1.15-.044-1.816.2a1.65,1.65,0,0,1-.342.085v3.535Z" transform="translate(-94.549 -260.82)" fill="#f20066"/>
        </g>
        <path id="Tracé_1461" data-name="Tracé 1461" d="M91.568,270.879l-.277.689a11.273,11.273,0,0,0,3.718.855,8.125,8.125,0,0,0,3.445-.973l-.338-.56a8.654,8.654,0,0,1-3.146.679A10.9,10.9,0,0,1,91.568,270.879Z" transform="translate(-77.841 -263.861)" fill="#e52c65"/>
        <g id="Groupe_1782" data-name="Groupe 1782" transform="translate(19.818 68.475)">
          <path id="Tracé_1462" data-name="Tracé 1462" d="M104.083,367.772s-1.084-.716-1.3.833c-.028.2-.668.481-.668.481s-.453,1.084-.076,1.43a14.251,14.251,0,0,0,1.735,1.262c.659.42.719,1.559,2.3.931.736-.292.735-1.127.05-1.732A12.224,12.224,0,0,1,104.083,367.772Z" transform="translate(-101.886 -367.607)" fill="#00afff"/>
          <path id="Tracé_1463" data-name="Tracé 1463" d="M106.631,373.853s-.182-.195-.571.089c-.43.314-.157.718-.96.518s-.789-.5-1.316-.948a12.542,12.542,0,0,0-1.816-1.293l.131.451s1.009.768,1.48,1.184.712.88,1.459.93a1.42,1.42,0,0,0,1.426-.478A.52.52,0,0,0,106.631,373.853Z" transform="translate(-101.918 -369.447)" fill="#442a69"/>
          <path id="Tracé_1464" data-name="Tracé 1464" d="M105.554,369.932l.186.327a5.126,5.126,0,0,0-.851.236c-.495.179-.816.478-.869.221s.3-.436.589-.561A5.3,5.3,0,0,1,105.554,369.932Z" transform="translate(-102.735 -368.534)" fill="#fff"/>
          <path id="Tracé_1465" data-name="Tracé 1465" d="M106.513,371.382s-.517.1-.894.209-.578.375-.489.536.361-.116.662-.241a4.63,4.63,0,0,1,.931-.194Z" transform="translate(-103.172 -369.113)" fill="#fff"/>
          <path id="Tracé_1466" data-name="Tracé 1466" d="M104.887,373.657a11.542,11.542,0,0,0-1.33-1.553,2.636,2.636,0,0,0-1.129-.464s.736.534,1.1.857A9.107,9.107,0,0,0,104.887,373.657Z" transform="translate(-102.102 -369.216)" fill="#442a69"/>
        </g>
        <g id="Groupe_1783" data-name="Groupe 1783" transform="translate(10.18 68.475)">
          <path id="Tracé_1467" data-name="Tracé 1467" d="M88.4,367.772s1.084-.716,1.3.833c.029.2.668.481.668.481s.453,1.084.076,1.43a14.253,14.253,0,0,1-1.735,1.262c-.659.42-.719,1.559-2.3.931-.736-.292-.735-1.127-.05-1.732A12.224,12.224,0,0,0,88.4,367.772Z" transform="translate(-85.851 -367.607)" fill="#00afff"/>
          <path id="Tracé_1468" data-name="Tracé 1468" d="M85.9,373.853s.182-.195.571.089c.43.314.157.718.96.518s.789-.5,1.316-.948a12.542,12.542,0,0,1,1.816-1.293l-.131.451s-1.009.768-1.48,1.184-.712.88-1.459.93a1.42,1.42,0,0,1-1.426-.478A.52.52,0,0,1,85.9,373.853Z" transform="translate(-85.867 -369.447)" fill="#442a69"/>
          <path id="Tracé_1469" data-name="Tracé 1469" d="M88.928,369.932l-.186.327a5.126,5.126,0,0,1,.851.236c.495.179.816.478.869.221s-.3-.436-.589-.561A5.3,5.3,0,0,0,88.928,369.932Z" transform="translate(-87.004 -368.534)" fill="#fff"/>
          <path id="Tracé_1470" data-name="Tracé 1470" d="M88.043,371.382s.517.1.894.209.578.375.489.536-.361-.116-.662-.241a4.622,4.622,0,0,0-.931-.194Z" transform="translate(-86.641 -369.113)" fill="#fff"/>
          <path id="Tracé_1471" data-name="Tracé 1471" d="M89.108,373.657a11.542,11.542,0,0,1,1.33-1.553,2.636,2.636,0,0,1,1.129-.464s-.736.534-1.1.857A9.108,9.108,0,0,1,89.108,373.657Z" transform="translate(-87.15 -369.216)" fill="#442a69"/>
        </g>
        <path id="Tracé_1472" data-name="Tracé 1472" d="M102.166,306.664c.945.219,1.284.733,2.22,2.273a17.544,17.544,0,0,1,1.92,3.584c.51,1.411.219,2.4-.441,2.787s-1.4-.3-1.982-.841-.5-4.5-1.241-4.936-1.179-.991-1.675-1.1-1.406.552-1.2-.391C99.861,307.64,99.768,306.108,102.166,306.664Z" transform="translate(-81.212 -276.558)" fill="#ffa194"/>
        <path id="Tracé_1473" data-name="Tracé 1473" d="M87.621,306.664c-.945.219-1.284.733-2.22,2.273a17.544,17.544,0,0,0-1.92,3.584c-.51,1.411-.219,2.4.441,2.787s1.4-.3,1.982-.841.5-4.5,1.241-4.936,1.179-.991,1.675-1.1,1.406.552,1.2-.391C89.926,307.64,90.019,306.108,87.621,306.664Z" transform="translate(-74.622 -276.558)" fill="#ffa194"/>
      </g>
      <g id="Groupe_1785" data-name="Groupe 1785" transform="translate(12.651 56.528)" opacity="0.5">
        <path id="Tracé_1474" data-name="Tracé 1474" d="M65.534,351.544a2.388,2.388,0,1,1-2.388-2.387A2.388,2.388,0,0,1,65.534,351.544Z" transform="translate(-60.758 -349.157)" fill="#4d4085"/>
      </g>
      <path id="Tracé_1475" data-name="Tracé 1475" d="M126.757,345.05a2.6,2.6,0,1,1-2.6-2.6A2.6,2.6,0,0,1,126.757,345.05Z" transform="translate(-70.634 -290.126)" fill="#00afff"/>
      <path id="Tracé_1477" data-name="Tracé 1477" d="M43.247,314.844a1.3,1.3,0,1,1-1.3-1.3A1.3,1.3,0,0,1,43.247,314.844Z" transform="translate(-40.652 -279.439)" fill="#00afff"/>
      <path id="Tracé_1478" data-name="Tracé 1478" d="M73.8,367.1a1.3,1.3,0,1,1-1.3-1.3A1.3,1.3,0,0,1,73.8,367.1Z" transform="translate(-52.017 -298.413)" fill="#00afff"/>
      <path id="Tracé_1479" data-name="Tracé 1479" d="M53.964,293.785a2.6,2.6,0,1,1-2.6-2.6A2.6,2.6,0,0,1,53.964,293.785Z" transform="translate(-43.892 -271.083)" fill="#f20066"/>
    </g>
  </g>
</svg>
