<svg xmlns="http://www.w3.org/2000/svg" width="349.785" height="130.175" viewBox="0 0 349.785 130.175">
  <g id="points-perso" transform="translate(-795.395 -279.116)">
    <g id="bullets_bg" data-name="bullets bg" transform="translate(727.442 306)">
      <g id="Groupe_1866" data-name="Groupe 1866" transform="translate(212.535 4.327)" opacity="0.5">
        <path id="Tracé_1643" data-name="Tracé 1643" d="M357.4,39.6a4.956,4.956,0,1,1-4.956-4.956A4.956,4.956,0,0,1,357.4,39.6Z" transform="translate(-347.488 -34.641)" fill="#4d4085"/>
      </g>
      <path id="Tracé_1644" data-name="Tracé 1644" d="M171.045,38.414a4.956,4.956,0,1,1-4.956-4.956A4.956,4.956,0,0,1,171.045,38.414Z" transform="translate(-82.355 -30.132)" fill="#00afff"/>
      <g id="Groupe_1867" data-name="Groupe 1867" transform="translate(104.061 52.362)" opacity="0.5">
        <path id="Tracé_1645" data-name="Tracé 1645" d="M92.558,49.148a1.921,1.921,0,1,1-1.921-1.921A1.921,1.921,0,0,1,92.558,49.148Z" transform="translate(-88.715 -47.227)" fill="#4d4085"/>
      </g>
      <path id="Tracé_1646" data-name="Tracé 1646" d="M387.809,45.592a4.187,4.187,0,1,1-4.187-4.186A4.186,4.186,0,0,1,387.809,45.592Z" transform="translate(-115.856 -31.352)" fill="#fff"/>
      <path id="Tracé_1647" data-name="Tracé 1647" d="M211.456,31.357a1.828,1.828,0,1,1-1.828-1.828A1.828,1.828,0,0,1,211.456,31.357Z" transform="translate(-89.517 -29.529)" fill="#00afff"/>
      <path id="Tracé_1648" data-name="Tracé 1648" d="M108.834,124.962a1.828,1.828,0,1,1-1.829-1.828A1.828,1.828,0,0,1,108.834,124.962Z" transform="translate(-27.216 -43.894)" fill="#00afff"/>
      <path id="Tracé_1649" data-name="Tracé 1649" d="M295.123,113.988a1.828,1.828,0,1,1-1.829-1.828A1.828,1.828,0,0,1,295.123,113.988Z" transform="translate(-130.305 -49.175)" fill="#00afff"/>
      <path id="Tracé_1650" data-name="Tracé 1650" d="M274.571,35.936a1.828,1.828,0,1,1-1.828-1.828A1.828,1.828,0,0,1,274.571,35.936Z" transform="translate(-99.202 -30.232)" fill="#00afff"/>
      <path id="Tracé_1651" data-name="Tracé 1651" d="M384.965,149.054a1.828,1.828,0,1,1-1.828-1.828A1.828,1.828,0,0,1,384.965,149.054Z" transform="translate(-116.144 -47.591)" fill="#fff"/>
      <ellipse id="Ellipse_19" data-name="Ellipse 19" cx="3.656" cy="3.656" rx="3.656" ry="3.656" transform="translate(104.248 28.733)" fill="#e52c65"/>
      <path id="Tracé_1652" data-name="Tracé 1652" d="M352.787,95.285a3.655,3.655,0,1,1-3.655-3.656A3.655,3.655,0,0,1,352.787,95.285Z" transform="translate(-110.645 -39.059)" fill="#e52c65"/>
      <path id="Tracé_1653" data-name="Tracé 1653" d="M232.915,41.18a4.956,4.956,0,1,1-4.956-4.956A4.957,4.957,0,0,1,232.915,41.18Z" transform="translate(-91.849 -30.556)" fill="#e52c65"/>
      <path id="Tracé_1654" data-name="Tracé 1654" d="M300.231,130.939a2.734,2.734,0,1,1-2.734-2.734A2.734,2.734,0,0,1,300.231,130.939Z" transform="translate(-226.811 -70.638)" fill="#00afff"/>
      <path id="Tracé_1655" data-name="Tracé 1655" d="M142.164,136.929a3.544,3.544,0,1,1-3.544-3.544A3.544,3.544,0,0,1,142.164,136.929Z" transform="translate(8.196 -95.467)" fill="#3a337e"/>
      <g id="Groupe_1868" data-name="Groupe 1868" transform="translate(277.013 35.871)" opacity="0.5">
        <path id="Tracé_1656" data-name="Tracé 1656" d="M402.029,75.265a3.362,3.362,0,1,1-3.362-3.362A3.362,3.362,0,0,1,402.029,75.265Z" transform="translate(-395.304 -71.903)" fill="#4d4085"/>
      </g>
    </g>
    <g id="bullets_bg-2" data-name="bullets bg" transform="translate(929.395 306)">
      <g id="Groupe_1866-2" data-name="Groupe 1866" transform="translate(61.29 4.327)" opacity="0.5">
        <path id="Tracé_1643-2" data-name="Tracé 1643" d="M347.488,39.6a4.956,4.956,0,1,0,4.956-4.956A4.956,4.956,0,0,0,347.488,39.6Z" transform="translate(-347.488 -34.641)" fill="#4d4085"/>
      </g>
      <path id="Tracé_1644-2" data-name="Tracé 1644" d="M161.132,38.414a4.956,4.956,0,1,0,4.956-4.956A4.956,4.956,0,0,0,161.132,38.414Z" transform="translate(33.916 -30.132)" fill="#00afff"/>
      <g id="Groupe_1867-2" data-name="Groupe 1867" transform="translate(175.834 52.362)" opacity="0.5">
        <path id="Tracé_1645-2" data-name="Tracé 1645" d="M88.715,49.148a1.921,1.921,0,1,0,1.921-1.921A1.921,1.921,0,0,0,88.715,49.148Z" transform="translate(-88.715 -47.227)" fill="#4d4085"/>
      </g>
      <path id="Tracé_1646-2" data-name="Tracé 1646" d="M379.436,45.592a4.187,4.187,0,1,0,4.187-4.186A4.186,4.186,0,0,0,379.436,45.592Z" transform="translate(-367.651 -31.352)" fill="#fff"/>
      <path id="Tracé_1647-2" data-name="Tracé 1647" d="M207.8,31.357a1.828,1.828,0,1,0,1.828-1.828A1.828,1.828,0,0,0,207.8,31.357Z" transform="translate(-46.003 -29.529)" fill="#00afff"/>
      <path id="Tracé_1648-2" data-name="Tracé 1648" d="M105.178,124.962a1.828,1.828,0,1,0,1.829-1.828A1.828,1.828,0,0,0,105.178,124.962Z" transform="translate(96.941 -43.894)" fill="#00afff"/>
      <path id="Tracé_1649-2" data-name="Tracé 1649" d="M291.467,113.988a1.828,1.828,0,1,0,1.829-1.828A1.828,1.828,0,0,0,291.467,113.988Z" transform="translate(-172.548 -49.175)" fill="#00afff"/>
      <path id="Tracé_1650-2" data-name="Tracé 1650" d="M270.915,35.936a1.828,1.828,0,1,0,1.828-1.828A1.828,1.828,0,0,0,270.915,35.936Z" transform="translate(-162.546 -30.232)" fill="#00afff"/>
      <path id="Tracé_1651-2" data-name="Tracé 1651" d="M381.31,149.054a1.828,1.828,0,1,0,1.828-1.828A1.828,1.828,0,0,0,381.31,149.054Z" transform="translate(-366.394 -47.591)" fill="#fff"/>
      <ellipse id="Ellipse_19-2" data-name="Ellipse 19" cx="3.656" cy="3.656" rx="3.656" ry="3.656" transform="translate(172.179 28.733)" fill="#e52c65"/>
      <path id="Tracé_1652-2" data-name="Tracé 1652" d="M345.476,95.285a3.655,3.655,0,1,0,3.655-3.656A3.655,3.655,0,0,0,345.476,95.285Z" transform="translate(-303.881 -39.059)" fill="#e52c65"/>
      <path id="Tracé_1653-2" data-name="Tracé 1653" d="M223,41.18a4.956,4.956,0,1,0,4.956-4.956A4.957,4.957,0,0,0,223,41.18Z" transform="translate(-80.33 -30.556)" fill="#e52c65"/>
      <path id="Tracé_1654-2" data-name="Tracé 1654" d="M294.763,130.939a2.734,2.734,0,1,0,2.734-2.734A2.734,2.734,0,0,0,294.763,130.939Z" transform="translate(-84.446 -70.638)" fill="#00afff"/>
      <path id="Tracé_1655-2" data-name="Tracé 1655" d="M135.075,136.929a3.544,3.544,0,1,0,3.544-3.544A3.544,3.544,0,0,0,135.075,136.929Z" transform="translate(-1.698 -95.467)" fill="#3a337e"/>
      <g id="Groupe_1868-2" data-name="Groupe 1868" transform="translate(0 35.871)" opacity="0.5">
        <path id="Tracé_1656-2" data-name="Tracé 1656" d="M395.3,75.265a3.362,3.362,0,1,0,3.362-3.362A3.362,3.362,0,0,0,395.3,75.265Z" transform="translate(-395.304 -71.903)" fill="#4d4085"/>
      </g>
    </g>
    <g id="personnage" transform="translate(700.953 6.553)">
      <g id="Groupe_1834" data-name="Groupe 1834" transform="translate(227.982 280.78)">
        <g id="Groupe_1823" data-name="Groupe 1823" transform="translate(16.584)">
          <path id="Tracé_1563" data-name="Tracé 1563" d="M253.68,343.519a48.4,48.4,0,0,1,.285,5.565c-.079,2.252-.96,6.4-.088,11.217a44.941,44.941,0,0,1,.318,10.513s3.03,1.644,3.871,1.094c.033-4.075,1.462-10.546,2.178-13.926s1-15.4,1-15.4Z" transform="translate(-234.384 -265.429)" fill="#f97b6e"/>
          <path id="Tracé_1564" data-name="Tracé 1564" d="M251.235,302.343a19.187,19.187,0,0,0-4.228-4.476c-.371-1.194-1.141-5.908-3.442-8.647-1.843-2.193-1.939-2.94-1.859-3.471s.44-.852.818-2.078a3.271,3.271,0,0,0,.306-2.317c-1.035-2.307-2.37-2.668-4.215-1.092-.9.773-.986,3.439-.5,4.734s2.865,8.259,3.513,10.072c.716,2.006,5.588,14.414,9.292,16.809,2.282,1.478,2.8-4.443,2.8-4.443A22.98,22.98,0,0,0,251.235,302.343Z" transform="translate(-237.82 -279.302)" fill="#ffa194"/>
          <path id="Tracé_1565" data-name="Tracé 1565" d="M255.4,325.176s-1.818,9.277-1.7,13.482-.067,11.545-.067,11.545a10.119,10.119,0,0,0,5.708,1.3c2.37-.148,2.37-.986,2.37-.986l2.576-19S259.3,324.577,255.4,325.176Z" transform="translate(-234.353 -269.253)" fill="#101042"/>
          <path id="Tracé_1566" data-name="Tracé 1566" d="M272.722,342.558a48.444,48.444,0,0,0,.166,5.568c.261,2.24,1.474,6.3.995,11.174a44.95,44.95,0,0,0,.533,10.5s-2.886,1.884-3.77,1.4c-.362-4.058-2.31-10.393-3.3-13.7s-2.242-15.265-2.242-15.265Z" transform="translate(-231.838 -265.504)" fill="#ffa194"/>
          <path id="Tracé_1567" data-name="Tracé 1567" d="M270.529,325.764s1.982,7.554,2.2,11.755,1,11.5,1,11.5a10.113,10.113,0,0,1-5.585,1.758c-2.374.045-2.442-.791-2.442-.791l-4.1-18.725S266.6,325.483,270.529,325.764Z" transform="translate(-232.606 -269.119)" fill="#101042"/>
          <g id="Groupe_1820" data-name="Groupe 1820" transform="translate(20.209 25.338)">
            <path id="Tracé_1568" data-name="Tracé 1568" d="M259.642,305.662a6.249,6.249,0,0,0,3.042-.849,1.7,1.7,0,0,1-.244-.828c.026-1.509,0-3.621,0-3.621l-5.532-.28a15.917,15.917,0,0,1,0,3.56,1.779,1.779,0,0,1-.234.718A3.569,3.569,0,0,0,259.642,305.662Z" transform="translate(-253.895 -300.084)" fill="#f97b6e"/>
            <path id="Tracé_1569" data-name="Tracé 1569" d="M254.4,306.675s2.221,3.1,5.757,3.1,5.832-3.1,5.832-3.1a9.956,9.956,0,0,1-2.8-2.631,6.249,6.249,0,0,1-3.042.849,3.569,3.569,0,0,1-2.968-1.3A14.358,14.358,0,0,1,254.4,306.675Z" transform="translate(-254.395 -299.315)" fill="#ffa194"/>
          </g>
          <path id="Tracé_1570" data-name="Tracé 1570" d="M260.262,305.427a4.576,4.576,0,0,1-4.143-4.232l-.263-4.881a3.537,3.537,0,0,1,3.526-3.526h.877a3.537,3.537,0,0,1,3.526,3.526v3.934C263.785,302.76,261.883,305.427,260.262,305.427Z" transform="translate(-233.866 -276.346)" fill="#ffa194"/>
          <path id="Tracé_1571" data-name="Tracé 1571" d="M256.634,297.894s-1.021-1.188-1.345,0c-.333,1.216.243,2.179.975,2.3C256.846,300.284,256.634,297.894,256.634,297.894Z" transform="translate(-234.012 -275.342)" fill="#ffa194"/>
          <path id="Tracé_1572" data-name="Tracé 1572" d="M261.95,297.894s1.02-1.188,1.345,0c.333,1.216-.244,2.179-.977,2.3C261.738,300.284,261.95,297.894,261.95,297.894Z" transform="translate(-232.539 -275.342)" fill="#ffa194"/>
          <path id="Tracé_1573" data-name="Tracé 1573" d="M256,299.592a1.873,1.873,0,0,0,.594-1.166,2.936,2.936,0,0,1,.828-2.514c.875-.839,3.858-1.113,4.993,0a2.814,2.814,0,0,1,.892,2.441,1.459,1.459,0,0,0,.567,1.352s.418-3.711.363-5.07a2.015,2.015,0,0,0-1.385-2.041c-.775-.291-1.167.073-2.7-.8-1.163-.664-1.807.093-2.273.582-.309.326-.023.572-1.19.688s-.934,1.058-1.02,1.5C255.307,296.422,255.909,297.823,256,299.592Z" transform="translate(-233.932 -276.621)" fill="#442a69"/>
          <path id="Tracé_1574" data-name="Tracé 1574" d="M257.783,305.483s-.5-.953-2.315-.952a7.591,7.591,0,0,1-3.287-3.038c-1.723,2.147-3.185,3.411-5.429,3.591,1.2,3.15,6.123,8.21,6.178,8.671.137,1.152,2.271,10.016,2.538,12.64s-.866,8.238-.866,8.238,2.814,2.705,5.3,2.788c2.286.074,5.86,1.13,10.045-.38a27.291,27.291,0,0,0,5.361-2.408,57.319,57.319,0,0,1-2.414-8.491c-.575-3-1.48-6.756-2.068-10.2-.416-2.446-.775-8.982-1.555-9.208a20.8,20.8,0,0,0-3.1-.721c-.39,1.455-.929,3.305-4.924,3.31C258.085,309.322,257.783,305.483,257.783,305.483Z" transform="translate(-235.862 -274.438)" fill="#fcd621"/>
          <g id="Groupe_1821" data-name="Groupe 1821" transform="translate(14.303 101.058)">
            <path id="Tracé_1575" data-name="Tracé 1575" d="M254.406,362.633s2.229-1.714,2.941,1.6c.094.436,1.519.935,1.519.935s1.146,2.271.388,3.076a31.043,31.043,0,0,1-3.553,2.994c-1.357,1.008-1.311,3.477-4.821,2.369-1.634-.517-1.762-2.32-.377-3.734C252.527,367.807,254.406,362.633,254.406,362.633Z" transform="translate(-249.552 -362.189)" fill="#4d4085"/>
            <path id="Tracé_1576" data-name="Tracé 1576" d="M249.618,371.148s.365-.447,1.248.1c.978.611.45,1.524,2.152.968s1.626-1.194,2.7-2.251a27.2,27.2,0,0,1,3.722-3.074l-.213.994s-2.058,1.814-3.012,2.787-1.4,2.011-3.007,2.236a3.075,3.075,0,0,1-3.155-.811A1.132,1.132,0,0,1,249.618,371.148Z" transform="translate(-249.538 -361.157)" fill="#442a69"/>
            <path id="Tracé_1577" data-name="Tracé 1577" d="M252.651,364.815l-.35.735a11.2,11.2,0,0,1,1.873.376c1.095.31,1.836.907,1.912.344s-.723-.894-1.359-1.119A11.5,11.5,0,0,0,252.651,364.815Z" transform="translate(-248.949 -361.614)" fill="#fff"/>
            <path id="Tracé_1578" data-name="Tracé 1578" d="M251.848,366.425s1.131.139,1.962.312,1.306.719,1.139,1.08-.8-.194-1.467-.417a10.064,10.064,0,0,0-2.042-.274Z" transform="translate(-249.137 -361.261)" fill="#fff"/>
            <path id="Tracé_1579" data-name="Tracé 1579" d="M253.037,371.054a24.915,24.915,0,0,1,2.631-3.561,5.708,5.708,0,0,1,2.367-1.177s-1.506,1.267-2.238,2.02C255.224,368.925,253.438,370.987,253.037,371.054Z" transform="translate(-248.787 -361.284)" fill="#442a69"/>
          </g>
          <g id="Groupe_1822" data-name="Groupe 1822" transform="translate(37.673 101.058)">
            <path id="Tracé_1580" data-name="Tracé 1580" d="M273.826,362.633s-2.229-1.714-2.941,1.6c-.094.436-1.519.935-1.519.935s-1.146,2.271-.388,3.076a31.037,31.037,0,0,0,3.553,2.994c1.357,1.008,1.311,3.477,4.821,2.369,1.634-.517,1.762-2.32.377-3.734C275.705,367.807,273.826,362.633,273.826,362.633Z" transform="translate(-268.719 -362.189)" fill="#4d4085"/>
            <path id="Tracé_1581" data-name="Tracé 1581" d="M278.589,371.148s-.365-.447-1.249.1c-.978.611-.45,1.524-2.152.968s-1.626-1.194-2.7-2.251a27.2,27.2,0,0,0-3.722-3.074l.213.994s2.058,1.814,3.011,2.787,1.4,2.011,3.007,2.236a3.075,3.075,0,0,0,3.155-.811A1.132,1.132,0,0,0,278.589,371.148Z" transform="translate(-268.708 -361.157)" fill="#442a69"/>
            <path id="Tracé_1582" data-name="Tracé 1582" d="M274.471,364.815l.35.735a11.2,11.2,0,0,0-1.873.376c-1.095.31-1.836.907-1.912.344s.723-.894,1.359-1.119A11.5,11.5,0,0,1,274.471,364.815Z" transform="translate(-268.212 -361.614)" fill="#fff"/>
            <path id="Tracé_1583" data-name="Tracé 1583" d="M275.229,366.425s-1.131.139-1.962.312-1.306.719-1.139,1.08.8-.194,1.467-.417a10.074,10.074,0,0,1,2.042-.274Z" transform="translate(-267.979 -361.261)" fill="#fff"/>
            <path id="Tracé_1584" data-name="Tracé 1584" d="M274.3,371.054a24.916,24.916,0,0,0-2.631-3.561,5.707,5.707,0,0,0-2.365-1.177s1.5,1.267,2.237,2.02C272.115,368.925,273.9,370.987,274.3,371.054Z" transform="translate(-268.591 -361.284)" fill="#442a69"/>
          </g>
          <path id="Tracé_1585" data-name="Tracé 1585" d="M271.036,309.476a51.587,51.587,0,0,0,4.027,5.333s-2.276,3.975-3.958,5.181c-3.377-1.206-5.511-1.99-5.511-1.99l-1.47-12.431S268.227,304.892,271.036,309.476Z" transform="translate(-232.054 -273.552)" fill="#fcd621"/>
          <path id="Tracé_1586" data-name="Tracé 1586" d="M262.5,305.938s1.984.349,4.014.825c1.847.434,3.259,1.992,4.494,3.848a62.49,62.49,0,0,0,3.983,4.945l.266-.436a53.231,53.231,0,0,1-4.2-5.41,7.451,7.451,0,0,0-4.542-3.424c-.923-.222-3.865-.877-3.865-.877Z" transform="translate(-232.41 -273.579)" fill="#fff"/>
          <path id="Tracé_1587" data-name="Tracé 1587" d="M256.506,304.142c-.032.041-1.01.358-1.01.358a4.556,4.556,0,0,0,.891,3.349,6.04,6.04,0,0,0,5.969,1.306c1.873-.807,2.447-3.652,2.447-3.652l-.736-.249a4.178,4.178,0,0,1-1.5,2.373,5.193,5.193,0,0,1-5.107-.3C256.414,306.4,256.506,304.142,256.506,304.142Z" transform="translate(-233.952 -273.857)" fill="#fff"/>
          <path id="Tracé_1588" data-name="Tracé 1588" d="M267.644,318.437a5.822,5.822,0,1,1-5.822-5.821A5.821,5.821,0,0,1,267.644,318.437Z" transform="translate(-233.835 -271.999)" fill="#fff"/>
          <path id="Tracé_1589" data-name="Tracé 1589" d="M272.9,327.717a57.359,57.359,0,0,1-9.6,2.117,29.859,29.859,0,0,1-7.751-.688v-1.429a28.879,28.879,0,0,0,6.783,1.074c2.992-.023,10.339-1.754,10.339-1.754Z" transform="translate(-233.932 -268.837)" fill="#fff"/>
        </g>
        <g id="Groupe_1830" data-name="Groupe 1830" transform="translate(0 16.995)">
          <path id="Tracé_1590" data-name="Tracé 1590" d="M233.127,347.225s.981,1.629.054,4.656c-.427,1.394.088,2.836-.256,4.176a103.712,103.712,0,0,0-2.623,17.062l3.278.708s3.508-10.338,4.642-13.383a40.542,40.542,0,0,0,2.154-8.237c.786-5.293-1.1-22.793-3.254-14.915Z" transform="translate(-222.884 -284.024)" fill="#f97b6e"/>
          <g id="Groupe_1825" data-name="Groupe 1825" transform="translate(6.586 86.674)">
            <g id="Groupe_1824" data-name="Groupe 1824">
              <path id="Tracé_1591" data-name="Tracé 1591" d="M234.991,364.33a17.843,17.843,0,0,0,3.571,2.872,14.1,14.1,0,0,0,4.032,1.719,1.413,1.413,0,0,1,1.186,1.39c.065.507-.5.562-1.689.732-1.9.271-3.126,1-5.133.355-1.406-.451-2.924-1.33-4.317-1.228a4.09,4.09,0,0,1-2.593-.552s-.8-2.619-.21-4.259c.469-1.3.8-.187,1.313.315s1.563.778,2,.208A5.093,5.093,0,0,1,234.991,364.33Z" transform="translate(-229.62 -364.33)" fill="#4d4085"/>
              <path id="Tracé_1592" data-name="Tracé 1592" d="M243.7,369.363l.178,1.11a7.608,7.608,0,0,1-5.024.939c-2.838-.484-3.991-1.041-5.237-.88a8.8,8.8,0,0,1-3.635-.4l-.015-1.464a18.193,18.193,0,0,1,5.652.664,11.146,11.146,0,0,0,4.633.821A10.852,10.852,0,0,0,243.7,369.363Z" transform="translate(-229.543 -363.382)" fill="#442a69"/>
              <path id="Tracé_1593" data-name="Tracé 1593" d="M237.738,369.618c-1.754-.285-3.052-1.073-4.308-1.328a8.092,8.092,0,0,0-2.7.026,4.079,4.079,0,0,1,2.692-.689C235.021,367.782,236.592,369.09,237.738,369.618Z" transform="translate(-229.376 -363.611)" fill="#442a69"/>
              <path id="Tracé_1594" data-name="Tracé 1594" d="M237.321,366.795l-1.131.976-.91-.557,1.082-1.023Z" transform="translate(-228.379 -363.922)" fill="#fff"/>
              <path id="Tracé_1595" data-name="Tracé 1595" d="M236.106,366.013l-1.131.976-.785-.675,1.061-1Z" transform="translate(-228.618 -364.115)" fill="#fff"/>
            </g>
          </g>
          <path id="Tracé_1596" data-name="Tracé 1596" d="M228.428,348.15s.98,1.628.054,4.656c-.427,1.394-1.385,2.015-1.907,6.066-1.079,8.382-2.006,15.472-2.006,15.472l3.619,1.555s3.76-12.813,4.894-15.858,2.232-4.464,2.6-6.908c.785-5.293-1.1-22.793-3.254-14.915Z" transform="translate(-224.141 -283.821)" fill="#ffa194"/>
          <g id="Groupe_1827" data-name="Groupe 1827" transform="translate(0 88.061)">
            <g id="Groupe_1826" data-name="Groupe 1826">
              <path id="Tracé_1597" data-name="Tracé 1597" d="M229.587,365.468a17.882,17.882,0,0,0,3.571,2.872,14.116,14.116,0,0,0,4.033,1.719,1.414,1.414,0,0,1,1.186,1.389c.063.508-.5.563-1.69.733-1.9.271-3.126,1-5.133.355-1.406-.451-2.922-1.331-4.317-1.229a4.084,4.084,0,0,1-2.592-.552s-.8-2.618-.21-4.258c.469-1.3.8-.188,1.313.313s1.562.779,2,.21A5.069,5.069,0,0,1,229.587,365.468Z" transform="translate(-224.218 -365.468)" fill="#4d4085"/>
              <path id="Tracé_1598" data-name="Tracé 1598" d="M238.3,370.5l.178,1.111a7.613,7.613,0,0,1-5.026.939c-2.838-.485-3.989-1.041-5.237-.88a8.8,8.8,0,0,1-3.635-.4l-.013-1.466a18.214,18.214,0,0,1,5.652.666,11.134,11.134,0,0,0,4.632.819A10.827,10.827,0,0,0,238.3,370.5Z" transform="translate(-224.141 -364.52)" fill="#442a69"/>
              <path id="Tracé_1599" data-name="Tracé 1599" d="M232.335,370.756c-1.754-.285-3.051-1.074-4.308-1.328a8.059,8.059,0,0,0-2.7.026,4.082,4.082,0,0,1,2.692-.689C229.619,368.919,231.19,370.227,232.335,370.756Z" transform="translate(-223.975 -364.749)" fill="#442a69"/>
              <path id="Tracé_1600" data-name="Tracé 1600" d="M231.918,367.932l-1.131.976-.91-.557,1.082-1.023Z" transform="translate(-222.977 -365.06)" fill="#fff"/>
              <path id="Tracé_1601" data-name="Tracé 1601" d="M230.7,367.151l-1.131.976-.785-.675,1.061-1Z" transform="translate(-223.216 -365.253)" fill="#fff"/>
            </g>
          </g>
          <g id="Groupe_1828" data-name="Groupe 1828" transform="translate(1.769 13.379)">
            <path id="Tracé_1602" data-name="Tracé 1602" d="M230.341,326.175a17.835,17.835,0,0,0-3.966,8.1c-1.12,7.087-.571,17.537-.571,17.537s3.565,2.418,5.478,2.418a33.523,33.523,0,0,0,6.286-1.313l1.1-22.235Z" transform="translate(-225.669 -299.4)" fill="#51bdff"/>
            <path id="Tracé_1603" data-name="Tracé 1603" d="M240.279,326.231c-.141,1.865-.207,18.548.585,25.57-2.312,1.5-7.323.65-7.323.65l-1.089-22.44Z" transform="translate(-224.182 -299.388)" fill="#51bdff"/>
            <path id="Tracé_1604" data-name="Tracé 1604" d="M232.567,304.219s.66-.123,2.777.9,3.107,6.249,3.107,6.249l-1.786-4.55.793-.763,3.083,1.135a45.568,45.568,0,0,1,2.323,7.993,49.509,49.509,0,0,1,0,10.411c-.261,2.709-1.535,13.246-1.535,13.246s-7.6.894-11.049-.728c-3.164-1.49-3.638-3.279-3.638-3.279s4.056-7.126,2.915-11.6-2.446-11.438-1.98-14.306C228.253,304.757,232.567,304.219,232.567,304.219Z" transform="translate(-225.456 -304.214)" fill="#22217f"/>
            <path id="Tracé_1605" data-name="Tracé 1605" d="M240.545,314.278a8.61,8.61,0,0,0-2.993,6.653,8.493,8.493,0,0,0,2.5,6.329S241.258,319.457,240.545,314.278Z" transform="translate(-223.064 -302.009)" fill="#fff"/>
          </g>
          <g id="Groupe_1829" data-name="Groupe 1829" transform="translate(7.76)">
            <path id="Tracé_1606" data-name="Tracé 1606" d="M242.577,302.326c-.24-.781-1.723-2.241-1.559-2.771a4.249,4.249,0,0,0-.02-2.831,3.352,3.352,0,0,0-1.784-2.2c-1.142-.695-5.474-1.195-7.446.691s-.955,5.1-.549,6.191a13.358,13.358,0,0,1,.81,3.013,3.527,3.527,0,0,1-.328,2.059c4.222,1.3,2.777,1.6,4.222,3.945a30.9,30.9,0,0,1,1.347-3.588c.518-.657,1.606-.552,2.427-.435,1.089.154.763-1.219,1.426-1.486.432-.174.132-.385.006-.6.065-.159.4-.26.46-.4.152-.339-.234-.439-.191-.611C241.506,302.868,242.716,302.777,242.577,302.326Z" transform="translate(-230.58 -293.096)" fill="#ffa194"/>
            <path id="Tracé_1607" data-name="Tracé 1607" d="M240.9,296.567s-.6-.64-3.524.139c-.778,2.71-3.709,5.189-3.709,5.189A5.345,5.345,0,0,1,232,305.448c-.02-2.269-1.578-4.464-1.4-6.818.3-3.928,1.38-5.126,5.145-5.3C238.13,293.22,242.59,292.672,240.9,296.567Z" transform="translate(-230.582 -293.241)" fill="#442a69"/>
            <path id="Tracé_1608" data-name="Tracé 1608" d="M234.7,299.4s-.124-1.291-1.34-1.066-1.255,1.97.146,2.915S234.7,299.4,234.7,299.4Z" transform="translate(-230.172 -292.131)" fill="#ffa194"/>
          </g>
          <path id="Tracé_1609" data-name="Tracé 1609" d="M227.1,328.557c-.032.065,1.623,2.167,5.662,3.1a27.221,27.221,0,0,0,8.635.576l.069-.576a47.342,47.342,0,0,1-7.84-.9,44.077,44.077,0,0,1-6.252-2.771Z" transform="translate(-223.586 -285.623)" fill="#fff"/>
        </g>
        <g id="Groupe_1833" data-name="Groupe 1833" transform="translate(4.603 16.995)">
          <path id="Tracé_1610" data-name="Tracé 1610" d="M252.659,345.2c-1.035,1.222,1.466,11.032,2.5,14.072s3.015,11.679,3.015,11.679l3.781-1.163s-.95-13.557-1.711-16.345a74.966,74.966,0,0,1-1.395-7.5Z" transform="translate(-222.64 -281.851)" fill="#ffa194"/>
          <path id="Tracé_1611" data-name="Tracé 1611" d="M241.968,342.6c-1.667,1.1-1.841,12.81-2.124,18.486s-.346,11.094-.346,11.094l4.162.165s-.119-3.754,1.819-11.258,2.324-10.293,2.258-11.56,0-5.1,0-5.1Z" transform="translate(-225.471 -282.42)" fill="#ffa194"/>
          <path id="Tracé_1612" data-name="Tracé 1612" d="M241.655,324.311c.041,1.769-.721,9.373-.846,13.682s-1.117,13.184-1.117,13.184,3.778,2.265,5.807,2.145,3.692-.239,3.692-.239l1.835-12.554,3.872,11.967a48.379,48.379,0,0,0,5.09-.312,6.318,6.318,0,0,0,2.562-1.668s-2.262-13.452-2.471-16.8-.794-6.869-.794-6.869Z" transform="translate(-225.429 -286.43)" fill="#51bdff"/>
          <path id="Tracé_1613" data-name="Tracé 1613" d="M240.123,310.119s-11.217,7.862-11.556,8.548c-1.689,3.427.888,4.081.888,4.081a36.955,36.955,0,0,0,5.594-2.391c2.258-1.53,8.982-6.88,8.982-6.88Z" transform="translate(-227.993 -289.541)" fill="#ffa194"/>
          <path id="Tracé_1614" data-name="Tracé 1614" d="M259.844,308.665s10.472,7.2,11.011,7.742c3.367,3.386-.7,4.538-.7,4.538L255.8,313.052Z" transform="translate(-221.898 -289.86)" fill="#ffa194"/>
          <path id="Tracé_1615" data-name="Tracé 1615" d="M243.959,310.947s3.361,1.492,3.042-.451-.444-3.942-.444-3.942a2.986,2.986,0,0,1-2.408-1.626,8.714,8.714,0,0,1-.254-6.273c1.272-4.462,2.036-3.956,5.133-3.739,3.611.254,4.069,1.324,4.372,3.676s-1.253,5.348-1.584,6.97a4.749,4.749,0,0,0,.7,3.8,4.944,4.944,0,0,0,2.113,1.664S246.836,314.378,243.959,310.947Z" transform="translate(-224.607 -292.904)" fill="#ffa194"/>
          <path id="Tracé_1616" data-name="Tracé 1616" d="M234.464,311.879s4.7-3.969,6.961-4.865a10.025,10.025,0,0,1,6.886-.355,10.377,10.377,0,0,0,4.957.355c1.313-.135,3.689-1.739,5.669-1.444s8.005,3.778,8.005,3.778.312,1.35-.544,4.468a8.919,8.919,0,0,1-2.186,3.082l-4.236-1.409s.155,7.1.547,11.412a32.565,32.565,0,0,0,1.978,8.205,22.145,22.145,0,0,1-10.2,2.693,30.149,30.149,0,0,1-10.879-1.47s1.042-9.387.991-12.3c-.066-3.732.078-8.541.078-8.541l-3.01,3.068S233.2,316.3,234.464,311.879Z" transform="translate(-226.612 -290.546)" fill="#22217f"/>
          <path id="Tracé_1617" data-name="Tracé 1617" d="M243.977,298.992s2.084.863,2.41,2.442c.806,3.893,3.339,5.1,3.339,5.1h2.028s.982-.669,2.106-4.261c.421-1.346,1.442-4.927-1.266-6.13-.569-2.9-4.753-1.023-5.037-2.9-.819.023-1.253.8-1.807,1.569-1.33-.921-1.958-.755-2.68-.465C244.357,296.14,243.977,298.992,243.977,298.992Z" transform="translate(-224.688 -293.241)" fill="#442a69"/>
          <path id="Tracé_1618" data-name="Tracé 1618" d="M244.966,316.073s.138-4.44,3.644-4.784,4.359,3.079,4.249,4.853-2.894,7.981-2.894,7.981h3.693v1.9h-7.712l.34-1.331s4.31-5.81,4.689-8.617c.317-2.345-1.011-3.109-2.662-2.662-1.027.279-1.665,2.782-1.665,2.782Z" transform="translate(-224.273 -289.29)" fill="#fff"/>
          <path id="Tracé_1619" data-name="Tracé 1619" d="M243.814,325.177V326.4s3.866.154,7.382,0,5.181-.321,5.181-.321l-.237-.942s-3.519.032-5.515,0S243.814,325.177,243.814,325.177Z" transform="translate(-224.525 -286.25)" fill="#fff"/>
          <path id="Tracé_1620" data-name="Tracé 1620" d="M240.242,330.184s5.939,1.445,10.3.977a53.7,53.7,0,0,0,10.294-2.08l-.207-.625a90.107,90.107,0,0,1-10.277,1.786c-3.558.317-10.035-.718-10.035-.718Z" transform="translate(-225.308 -285.521)" fill="#fff"/>
          <g id="Groupe_1831" data-name="Groupe 1831" transform="translate(33.928 86.349)">
            <path id="Tracé_1621" data-name="Tracé 1621" d="M256.291,370.111c.243-1.311.271-4.12,1.817-5.45s3.365-.35,3.787,2.074.971,7.606.971,7.606-3.817,1.846-6,.362C255.317,373.652,256.05,371.421,256.291,370.111Z" transform="translate(-255.802 -364.064)" fill="#442a69"/>
            <path id="Tracé_1622" data-name="Tracé 1622" d="M255.939,370.865s.819,1.274,1.9,1.337,1.786-1.854,2.953-1.782a3,3,0,0,1,1.923.963l.173,1.564s-1.294,1.23-4.347.911C254.977,373.486,255.939,370.865,255.939,370.865Z" transform="translate(-255.821 -362.671)" fill="#37205b"/>
          </g>
          <g id="Groupe_1832" data-name="Groupe 1832" transform="translate(12.383 86.349)">
            <path id="Tracé_1623" data-name="Tracé 1623" d="M238.621,370.111c.243-1.311.271-4.12,1.817-5.45s3.365-.35,3.786,2.074.972,7.606.972,7.606-3.817,1.846-6,.362C237.646,373.652,238.38,371.421,238.621,370.111Z" transform="translate(-238.131 -364.064)" fill="#442a69"/>
            <path id="Tracé_1624" data-name="Tracé 1624" d="M238.268,370.865s.821,1.274,1.9,1.337,1.786-1.854,2.952-1.782a3.009,3.009,0,0,1,1.924.963l.173,1.564s-1.294,1.23-4.348.911C237.306,373.486,238.268,370.865,238.268,370.865Z" transform="translate(-238.15 -362.671)" fill="#37205b"/>
          </g>
          <path id="Tracé_1625" data-name="Tracé 1625" d="M250.882,306.9s3.105-.761,4.943,0,7.537,4.119,7.537,4.119v-.6s-5.2-3.252-6.783-3.958-4.694-.311-4.694-.311Z" transform="translate(-222.976 -290.435)" fill="#fff"/>
          <path id="Tracé_1626" data-name="Tracé 1626" d="M234.306,312.449s3.706-2.341,5.432-3.419a27.151,27.151,0,0,1,4.45-2.029l.8.506a35.958,35.958,0,0,0-5,2.307c-1.511.989-5.615,3.71-5.615,3.71Z" transform="translate(-226.609 -290.224)" fill="#fff"/>
        </g>
        <path id="Tracé_1627" data-name="Tracé 1627" d="M230.887,305.99a55,55,0,0,1,10.271-.2c4.156.206,5.858.444,9.443.49,2.919.037,5.037-2.507,7.445-.617,1.151.9-1.19,1.984-4.084,3.059-.539.2-3.192.3-5.537.76-4.086.8-6.963.79-9.705,1.316-1.136.218-6.05,1.255-7.832.508C228.37,310.246,228.9,306.357,230.887,305.99Z" transform="translate(-223.128 -273.677)" fill="#ffa194"/>
        <path id="Tracé_1628" data-name="Tracé 1628" d="M275.863,313.732a38.244,38.244,0,0,0-6.217,2.185c-1.9,1.046-3.708,1.656-4.039,1.473a34.688,34.688,0,0,1-3.5-1.656c-2.087-1.147-1.555.16-1.012.8a12.532,12.532,0,0,0,1.19,1.2,10.12,10.12,0,0,0-3.376,1.6c-1.235,1.05.472,3.236,3.753,2.855s2.446-.857,4.231-1.431c4.8-1.539,6.328-1.357,7.524-2C275.863,317.983,276.867,316.194,275.863,313.732Z" transform="translate(-216.702 -271.754)" fill="#f97b6e"/>
      </g>
      <path id="Tracé_1629" data-name="Tracé 1629" d="M275.876,279.7a7.139,7.139,0,1,1-7.139-7.137A7.138,7.138,0,0,1,275.876,279.7Z" transform="translate(11.959)" fill="#00afff"/>
      <path id="Tracé_1632" data-name="Tracé 1632" d="M224.223,286.867a2.632,2.632,0,1,1-2.632-2.632A2.632,2.632,0,0,1,224.223,286.867Z" transform="translate(2.611 2.559)" fill="#f20066"/>
    </g>
  </g>
</svg>
