<svg xmlns="http://www.w3.org/2000/svg" width="349.785" height="123.61" viewBox="0 0 349.785 123.61">
  <g id="reservezbillet-preso" transform="translate(-795.395 -285.681)">
    <g id="bullets_bg" data-name="bullets bg" transform="translate(727.442 306)">
      <g id="Groupe_1866" data-name="Groupe 1866" transform="translate(212.535 4.327)" opacity="0.5">
        <path id="Tracé_1643" data-name="Tracé 1643" d="M357.4,39.6a4.956,4.956,0,1,1-4.956-4.956A4.956,4.956,0,0,1,357.4,39.6Z" transform="translate(-347.488 -34.641)" fill="#4d4085"/>
      </g>
      <path id="Tracé_1644" data-name="Tracé 1644" d="M171.045,38.414a4.956,4.956,0,1,1-4.956-4.956A4.956,4.956,0,0,1,171.045,38.414Z" transform="translate(-82.355 -30.132)" fill="#00afff"/>
      <g id="Groupe_1867" data-name="Groupe 1867" transform="translate(104.061 52.362)" opacity="0.5">
        <path id="Tracé_1645" data-name="Tracé 1645" d="M92.558,49.148a1.921,1.921,0,1,1-1.921-1.921A1.921,1.921,0,0,1,92.558,49.148Z" transform="translate(-88.715 -47.227)" fill="#4d4085"/>
      </g>
      <path id="Tracé_1646" data-name="Tracé 1646" d="M387.809,45.592a4.187,4.187,0,1,1-4.187-4.186A4.186,4.186,0,0,1,387.809,45.592Z" transform="translate(-115.856 -31.352)" fill="#fff"/>
      <path id="Tracé_1647" data-name="Tracé 1647" d="M211.456,31.357a1.828,1.828,0,1,1-1.828-1.828A1.828,1.828,0,0,1,211.456,31.357Z" transform="translate(-89.517 -29.529)" fill="#00afff"/>
      <path id="Tracé_1648" data-name="Tracé 1648" d="M108.834,124.962a1.828,1.828,0,1,1-1.829-1.828A1.828,1.828,0,0,1,108.834,124.962Z" transform="translate(-27.216 -43.894)" fill="#00afff"/>
      <path id="Tracé_1649" data-name="Tracé 1649" d="M295.123,113.988a1.828,1.828,0,1,1-1.829-1.828A1.828,1.828,0,0,1,295.123,113.988Z" transform="translate(-130.305 -49.175)" fill="#00afff"/>
      <path id="Tracé_1650" data-name="Tracé 1650" d="M274.571,35.936a1.828,1.828,0,1,1-1.828-1.828A1.828,1.828,0,0,1,274.571,35.936Z" transform="translate(-99.202 -30.232)" fill="#00afff"/>
      <path id="Tracé_1651" data-name="Tracé 1651" d="M384.965,149.054a1.828,1.828,0,1,1-1.828-1.828A1.828,1.828,0,0,1,384.965,149.054Z" transform="translate(-116.144 -47.591)" fill="#fff"/>
      <ellipse id="Ellipse_19" data-name="Ellipse 19" cx="3.656" cy="3.656" rx="3.656" ry="3.656" transform="translate(104.248 28.733)" fill="#e52c65"/>
      <path id="Tracé_1652" data-name="Tracé 1652" d="M352.787,95.285a3.655,3.655,0,1,1-3.655-3.656A3.655,3.655,0,0,1,352.787,95.285Z" transform="translate(-110.645 -39.059)" fill="#e52c65"/>
      <path id="Tracé_1653" data-name="Tracé 1653" d="M232.915,41.18a4.956,4.956,0,1,1-4.956-4.956A4.957,4.957,0,0,1,232.915,41.18Z" transform="translate(-91.849 -30.556)" fill="#e52c65"/>
      <path id="Tracé_1654" data-name="Tracé 1654" d="M300.231,130.939a2.734,2.734,0,1,1-2.734-2.734A2.734,2.734,0,0,1,300.231,130.939Z" transform="translate(-226.811 -70.638)" fill="#00afff"/>
      <path id="Tracé_1655" data-name="Tracé 1655" d="M142.164,136.929a3.544,3.544,0,1,1-3.544-3.544A3.544,3.544,0,0,1,142.164,136.929Z" transform="translate(8.196 -95.467)" fill="#3a337e"/>
      <g id="Groupe_1868" data-name="Groupe 1868" transform="translate(277.013 35.871)" opacity="0.5">
        <path id="Tracé_1656" data-name="Tracé 1656" d="M402.029,75.265a3.362,3.362,0,1,1-3.362-3.362A3.362,3.362,0,0,1,402.029,75.265Z" transform="translate(-395.304 -71.903)" fill="#4d4085"/>
      </g>
    </g>
    <g id="bullets_bg-2" data-name="bullets bg" transform="translate(929.395 306)">
      <g id="Groupe_1866-2" data-name="Groupe 1866" transform="translate(61.29 4.327)" opacity="0.5">
        <path id="Tracé_1643-2" data-name="Tracé 1643" d="M347.488,39.6a4.956,4.956,0,1,0,4.956-4.956A4.956,4.956,0,0,0,347.488,39.6Z" transform="translate(-347.488 -34.641)" fill="#4d4085"/>
      </g>
      <path id="Tracé_1644-2" data-name="Tracé 1644" d="M161.132,38.414a4.956,4.956,0,1,0,4.956-4.956A4.956,4.956,0,0,0,161.132,38.414Z" transform="translate(33.916 -30.132)" fill="#00afff"/>
      <g id="Groupe_1867-2" data-name="Groupe 1867" transform="translate(175.834 52.362)" opacity="0.5">
        <path id="Tracé_1645-2" data-name="Tracé 1645" d="M88.715,49.148a1.921,1.921,0,1,0,1.921-1.921A1.921,1.921,0,0,0,88.715,49.148Z" transform="translate(-88.715 -47.227)" fill="#4d4085"/>
      </g>
      <path id="Tracé_1646-2" data-name="Tracé 1646" d="M379.436,45.592a4.187,4.187,0,1,0,4.187-4.186A4.186,4.186,0,0,0,379.436,45.592Z" transform="translate(-367.651 -31.352)" fill="#fff"/>
      <path id="Tracé_1647-2" data-name="Tracé 1647" d="M207.8,31.357a1.828,1.828,0,1,0,1.828-1.828A1.828,1.828,0,0,0,207.8,31.357Z" transform="translate(-46.003 -29.529)" fill="#00afff"/>
      <path id="Tracé_1648-2" data-name="Tracé 1648" d="M105.178,124.962a1.828,1.828,0,1,0,1.829-1.828A1.828,1.828,0,0,0,105.178,124.962Z" transform="translate(96.941 -43.894)" fill="#00afff"/>
      <path id="Tracé_1649-2" data-name="Tracé 1649" d="M291.467,113.988a1.828,1.828,0,1,0,1.829-1.828A1.828,1.828,0,0,0,291.467,113.988Z" transform="translate(-172.548 -49.175)" fill="#00afff"/>
      <path id="Tracé_1650-2" data-name="Tracé 1650" d="M270.915,35.936a1.828,1.828,0,1,0,1.828-1.828A1.828,1.828,0,0,0,270.915,35.936Z" transform="translate(-162.546 -30.232)" fill="#00afff"/>
      <path id="Tracé_1651-2" data-name="Tracé 1651" d="M381.31,149.054a1.828,1.828,0,1,0,1.828-1.828A1.828,1.828,0,0,0,381.31,149.054Z" transform="translate(-366.394 -47.591)" fill="#fff"/>
      <ellipse id="Ellipse_19-2" data-name="Ellipse 19" cx="3.656" cy="3.656" rx="3.656" ry="3.656" transform="translate(172.179 28.733)" fill="#e52c65"/>
      <path id="Tracé_1652-2" data-name="Tracé 1652" d="M345.476,95.285a3.655,3.655,0,1,0,3.655-3.656A3.655,3.655,0,0,0,345.476,95.285Z" transform="translate(-303.881 -39.059)" fill="#e52c65"/>
      <path id="Tracé_1653-2" data-name="Tracé 1653" d="M223,41.18a4.956,4.956,0,1,0,4.956-4.956A4.957,4.957,0,0,0,223,41.18Z" transform="translate(-80.33 -30.556)" fill="#e52c65"/>
      <path id="Tracé_1654-2" data-name="Tracé 1654" d="M294.763,130.939a2.734,2.734,0,1,0,2.734-2.734A2.734,2.734,0,0,0,294.763,130.939Z" transform="translate(-84.446 -70.638)" fill="#00afff"/>
      <path id="Tracé_1655-2" data-name="Tracé 1655" d="M135.075,136.929a3.544,3.544,0,1,0,3.544-3.544A3.544,3.544,0,0,0,135.075,136.929Z" transform="translate(-1.698 -95.467)" fill="#3a337e"/>
      <g id="Groupe_1868-2" data-name="Groupe 1868" transform="translate(0 35.871)" opacity="0.5">
        <path id="Tracé_1656-2" data-name="Tracé 1656" d="M395.3,75.265a3.362,3.362,0,1,0,3.362-3.362A3.362,3.362,0,0,0,395.3,75.265Z" transform="translate(-395.304 -71.903)" fill="#4d4085"/>
      </g>
    </g>
    <g id="personnage" transform="translate(700.953 13.118)">
      <g id="Groupe_1834" data-name="Groupe 1834" transform="translate(225.573 279.834)">
        <g id="Groupe_1823" data-name="Groupe 1823" transform="translate(14.676)">
          <path id="Tracé_1563" data-name="Tracé 1563" d="M253.659,343.411a42.835,42.835,0,0,1,.252,4.924c-.07,1.993-.849,5.664-.078,9.926a39.769,39.769,0,0,1,.282,9.3s2.681,1.454,3.426.968c.029-3.606,1.294-9.333,1.927-12.324s.886-13.624.886-13.624Z" transform="translate(-236.583 -274.307)" fill="#f97b6e"/>
          <path id="Tracé_1564" data-name="Tracé 1564" d="M249.691,299.692a16.979,16.979,0,0,0-3.742-3.961c-.328-1.056-1.01-5.228-3.046-7.652-1.631-1.941-1.716-2.6-1.645-3.072s.389-.754.724-1.839a2.9,2.9,0,0,0,.271-2.05c-.916-2.041-2.1-2.361-3.73-.967-.8.684-.873,3.044-.442,4.189s2.535,7.309,3.108,8.913c.633,1.775,4.945,12.755,8.223,14.875,2.02,1.308,2.48-3.932,2.48-3.932A20.336,20.336,0,0,0,249.691,299.692Z" transform="translate(-237.82 -279.302)" fill="#ffa194"/>
          <path id="Tracé_1565" data-name="Tracé 1565" d="M255.2,325.171s-1.609,8.21-1.5,11.931-.059,10.216-.059,10.216a8.955,8.955,0,0,0,5.052,1.151c2.1-.131,2.1-.873,2.1-.873l2.28-16.81S258.649,324.642,255.2,325.171Z" transform="translate(-236.572 -275.684)" fill="#101042"/>
          <path id="Tracé_1566" data-name="Tracé 1566" d="M271.846,342.522a42.872,42.872,0,0,0,.147,4.927c.231,1.982,1.3,5.578.88,9.888a39.776,39.776,0,0,0,.471,9.295s-2.554,1.667-3.336,1.242c-.32-3.591-2.045-9.2-2.917-12.126s-1.984-13.508-1.984-13.508Z" transform="translate(-235.666 -274.334)" fill="#ffa194"/>
          <path id="Tracé_1567" data-name="Tracé 1567" d="M269.5,325.763a70.788,70.788,0,0,1,1.951,10.4c.2,3.717.886,10.179.886,10.179A8.949,8.949,0,0,1,267.4,347.9c-2.1.04-2.161-.7-2.161-.7l-3.632-16.57S266.023,325.515,269.5,325.763Z" transform="translate(-235.943 -275.636)" fill="#101042"/>
          <g id="Groupe_1820" data-name="Groupe 1820" transform="translate(17.883 22.422)">
            <path id="Tracé_1568" data-name="Tracé 1568" d="M259.3,305.02a5.53,5.53,0,0,0,2.692-.751,1.5,1.5,0,0,1-.216-.733c.023-1.336,0-3.2,0-3.2l-4.9-.248a14.086,14.086,0,0,1,0,3.15,1.574,1.574,0,0,1-.207.635A3.158,3.158,0,0,0,259.3,305.02Z" transform="translate(-254.215 -300.084)" fill="#f97b6e"/>
            <path id="Tracé_1569" data-name="Tracé 1569" d="M254.4,306.321a6.919,6.919,0,0,0,5.095,2.745,7.128,7.128,0,0,0,5.16-2.745,8.81,8.81,0,0,1-2.478-2.328,5.529,5.529,0,0,1-2.692.751,3.158,3.158,0,0,1-2.626-1.15A12.706,12.706,0,0,1,254.4,306.321Z" transform="translate(-254.395 -299.807)" fill="#ffa194"/>
          </g>
          <path id="Tracé_1570" data-name="Tracé 1570" d="M259.755,303.972a4.05,4.05,0,0,1-3.666-3.745l-.233-4.319a3.13,3.13,0,0,1,3.12-3.12h.776a3.13,3.13,0,0,1,3.12,3.12v3.482C262.872,301.613,261.189,303.972,259.755,303.972Z" transform="translate(-236.397 -278.238)" fill="#ffa194"/>
          <path id="Tracé_1571" data-name="Tracé 1571" d="M256.468,297.833s-.9-1.051-1.19,0c-.295,1.076.215,1.928.863,2.033C256.656,299.948,256.468,297.833,256.468,297.833Z" transform="translate(-236.449 -277.876)" fill="#ffa194"/>
          <path id="Tracé_1572" data-name="Tracé 1572" d="M261.945,297.833s.9-1.051,1.19,0c.295,1.076-.216,1.928-.864,2.033C261.758,299.948,261.945,297.833,261.945,297.833Z" transform="translate(-235.919 -277.876)" fill="#ffa194"/>
          <path id="Tracé_1573" data-name="Tracé 1573" d="M255.948,298.665a1.657,1.657,0,0,0,.525-1.031,2.6,2.6,0,0,1,.733-2.225c.775-.742,3.414-.985,4.418,0a2.49,2.49,0,0,1,.79,2.16,1.291,1.291,0,0,0,.5,1.2s.37-3.284.321-4.486a1.783,1.783,0,0,0-1.226-1.806c-.686-.258-1.033.065-2.387-.709-1.029-.588-1.6.082-2.011.515-.273.288-.021.506-1.053.609s-.826.937-.9,1.327C255.336,295.859,255.868,297.1,255.948,298.665Z" transform="translate(-236.42 -278.337)" fill="#442a69"/>
          <path id="Tracé_1574" data-name="Tracé 1574" d="M256.513,305.023s-.447-.844-2.049-.843a6.717,6.717,0,0,1-2.909-2.689c-1.525,1.9-2.818,3.019-4.8,3.177,1.064,2.788,5.418,7.265,5.467,7.673.121,1.02,2.01,8.863,2.246,11.185s-.766,7.29-.766,7.29,2.49,2.394,4.686,2.467c2.023.066,5.185,1,8.889-.337a24.149,24.149,0,0,0,4.744-2.131,50.724,50.724,0,0,1-2.136-7.514c-.509-2.654-1.31-5.978-1.83-9.031-.368-2.164-.686-7.948-1.376-8.148a18.4,18.4,0,0,0-2.739-.638c-.345,1.287-.822,2.925-4.358,2.929C256.781,308.421,256.513,305.023,256.513,305.023Z" transform="translate(-237.115 -277.551)" fill="#fcd621"/>
          <g id="Groupe_1821" data-name="Groupe 1821" transform="translate(12.657 89.429)">
            <path id="Tracé_1575" data-name="Tracé 1575" d="M253.847,362.582s1.972-1.517,2.6,1.413c.083.386,1.344.828,1.344.828s1.014,2.01.343,2.722a27.472,27.472,0,0,1-3.144,2.65c-1.2.892-1.16,3.077-4.266,2.1-1.446-.457-1.559-2.053-.333-3.3C252.185,367.161,253.847,362.582,253.847,362.582Z" transform="translate(-249.552 -362.189)" fill="#4d4085"/>
            <path id="Tracé_1576" data-name="Tracé 1576" d="M249.617,370.659s.323-.4,1.1.093c.865.541.4,1.349,1.9.857s1.439-1.056,2.385-1.992a24.065,24.065,0,0,1,3.294-2.72l-.189.879s-1.821,1.605-2.665,2.466-1.24,1.779-2.661,1.979A2.721,2.721,0,0,1,250,371.5,1,1,0,0,1,249.617,370.659Z" transform="translate(-249.547 -361.818)" fill="#442a69"/>
            <path id="Tracé_1577" data-name="Tracé 1577" d="M252.611,364.815l-.31.651a9.913,9.913,0,0,1,1.657.332c.969.274,1.625.8,1.692.3s-.64-.791-1.2-.99A10.178,10.178,0,0,0,252.611,364.815Z" transform="translate(-249.334 -361.982)" fill="#fff"/>
            <path id="Tracé_1578" data-name="Tracé 1578" d="M251.8,366.425s1,.123,1.736.276,1.156.637,1.008.956-.706-.172-1.3-.369a8.9,8.9,0,0,0-1.807-.243Z" transform="translate(-249.402 -361.855)" fill="#fff"/>
            <path id="Tracé_1579" data-name="Tracé 1579" d="M253.037,370.509a22.048,22.048,0,0,1,2.328-3.152,5.051,5.051,0,0,1,2.094-1.041s-1.332,1.121-1.981,1.788A17.443,17.443,0,0,1,253.037,370.509Z" transform="translate(-249.276 -361.863)" fill="#442a69"/>
          </g>
          <g id="Groupe_1822" data-name="Groupe 1822" transform="translate(33.338 89.429)">
            <path id="Tracé_1580" data-name="Tracé 1580" d="M273.239,362.582s-1.972-1.517-2.6,1.413c-.083.386-1.344.828-1.344.828s-1.014,2.01-.343,2.722a27.466,27.466,0,0,0,3.144,2.65c1.2.892,1.16,3.077,4.266,2.1,1.446-.457,1.559-2.053.333-3.3C274.9,367.161,273.239,362.582,273.239,362.582Z" transform="translate(-268.719 -362.189)" fill="#4d4085"/>
            <path id="Tracé_1581" data-name="Tracé 1581" d="M277.46,370.659s-.323-.4-1.1.093c-.865.541-.4,1.349-1.9.857s-1.439-1.056-2.386-1.992a24.069,24.069,0,0,0-3.294-2.72l.189.879s1.821,1.605,2.665,2.466,1.24,1.779,2.661,1.979a2.721,2.721,0,0,0,2.792-.717A1,1,0,0,0,277.46,370.659Z" transform="translate(-268.715 -361.818)" fill="#442a69"/>
            <path id="Tracé_1582" data-name="Tracé 1582" d="M274.076,364.815l.31.651a9.913,9.913,0,0,0-1.657.332c-.969.274-1.625.8-1.692.3s.64-.791,1.2-.99A10.179,10.179,0,0,1,274.076,364.815Z" transform="translate(-268.537 -361.982)" fill="#fff"/>
            <path id="Tracé_1583" data-name="Tracé 1583" d="M274.869,366.425s-1,.123-1.736.276-1.156.637-1.008.956.706-.172,1.3-.369a8.913,8.913,0,0,1,1.807-.243Z" transform="translate(-268.453 -361.855)" fill="#fff"/>
            <path id="Tracé_1584" data-name="Tracé 1584" d="M273.727,370.509a22.048,22.048,0,0,0-2.328-3.152,5.05,5.05,0,0,0-2.093-1.041s1.331,1.121,1.98,1.788A17.445,17.445,0,0,0,273.727,370.509Z" transform="translate(-268.673 -361.863)" fill="#442a69"/>
          </g>
          <path id="Tracé_1585" data-name="Tracé 1585" d="M270.24,309.022a45.648,45.648,0,0,0,3.564,4.719s-2.014,3.517-3.5,4.584c-2.989-1.067-4.877-1.761-4.877-1.761l-1.3-11S267.755,304.966,270.24,309.022Z" transform="translate(-235.744 -277.232)" fill="#fcd621"/>
          <path id="Tracé_1586" data-name="Tracé 1586" d="M262.5,305.877s1.755.309,3.552.73c1.635.384,2.884,1.763,3.977,3.405a55.3,55.3,0,0,0,3.525,4.376l.235-.386a47.1,47.1,0,0,1-3.718-4.787,6.594,6.594,0,0,0-4.019-3.03c-.817-.2-3.42-.776-3.42-.776Z" transform="translate(-235.872 -277.241)" fill="#fff"/>
          <path id="Tracé_1587" data-name="Tracé 1587" d="M256.387,304.142c-.028.037-.893.317-.893.317a4.032,4.032,0,0,0,.789,2.964,5.345,5.345,0,0,0,5.282,1.156c1.657-.714,2.165-3.231,2.165-3.231l-.652-.22a3.7,3.7,0,0,1-1.328,2.1,4.6,4.6,0,0,1-4.52-.269C256.3,306.138,256.387,304.142,256.387,304.142Z" transform="translate(-236.428 -277.342)" fill="#fff"/>
          <path id="Tracé_1588" data-name="Tracé 1588" d="M266.3,317.767a5.152,5.152,0,1,1-5.152-5.151A5.151,5.151,0,0,1,266.3,317.767Z" transform="translate(-236.385 -276.673)" fill="#fff"/>
          <path id="Tracé_1589" data-name="Tracé 1589" d="M270.908,327.639a50.759,50.759,0,0,1-8.494,1.873,26.423,26.423,0,0,1-6.859-.609v-1.265a25.555,25.555,0,0,0,6,.951c2.648-.021,9.149-1.553,9.149-1.553Z" transform="translate(-236.42 -275.534)" fill="#fff"/>
        </g>
        <g id="Groupe_1830" data-name="Groupe 1830" transform="translate(0 15.039)">
          <path id="Tracé_1590" data-name="Tracé 1590" d="M232.8,345.851s.869,1.441.047,4.12c-.378,1.233.078,2.51-.227,3.7a91.778,91.778,0,0,0-2.321,15.1l2.9.627s3.1-9.148,4.108-11.843a35.877,35.877,0,0,0,1.906-7.289c.7-4.684-.976-20.171-2.88-13.2Z" transform="translate(-223.738 -289.923)" fill="#f97b6e"/>
          <g id="Groupe_1825" data-name="Groupe 1825" transform="translate(5.828 76.7)">
            <g id="Groupe_1824" data-name="Groupe 1824">
              <path id="Tracé_1591" data-name="Tracé 1591" d="M234.373,364.33a15.79,15.79,0,0,0,3.16,2.542,12.476,12.476,0,0,0,3.568,1.521,1.251,1.251,0,0,1,1.05,1.23c.057.449-.446.5-1.494.647-1.678.24-2.766.884-4.542.314-1.244-.4-2.587-1.177-3.82-1.086a3.619,3.619,0,0,1-2.295-.489,7.467,7.467,0,0,1-.186-3.769c.415-1.15.71-.165,1.162.278s1.383.688,1.767.184A4.507,4.507,0,0,1,234.373,364.33Z" transform="translate(-229.62 -364.33)" fill="#4d4085"/>
              <path id="Tracé_1592" data-name="Tracé 1592" d="M242.123,369.282l.158.982a6.733,6.733,0,0,1-4.446.831c-2.512-.428-3.531-.921-4.634-.779a7.786,7.786,0,0,1-3.216-.352l-.013-1.3a16.1,16.1,0,0,1,5,.588,9.864,9.864,0,0,0,4.1.726A9.6,9.6,0,0,0,242.123,369.282Z" transform="translate(-229.592 -363.989)" fill="#442a69"/>
              <path id="Tracé_1593" data-name="Tracé 1593" d="M236.932,369.387c-1.553-.252-2.7-.949-3.812-1.175a7.161,7.161,0,0,0-2.388.023,3.61,3.61,0,0,1,2.382-.61C234.528,367.762,235.917,368.92,236.932,369.387Z" transform="translate(-229.532 -364.071)" fill="#442a69"/>
              <path id="Tracé_1594" data-name="Tracé 1594" d="M237.086,366.725l-1,.863-.805-.493.958-.9Z" transform="translate(-229.173 -364.183)" fill="#fff"/>
              <path id="Tracé_1595" data-name="Tracé 1595" d="M235.886,365.933l-1,.863-.695-.6.939-.888Z" transform="translate(-229.259 -364.253)" fill="#fff"/>
            </g>
          </g>
          <path id="Tracé_1596" data-name="Tracé 1596" d="M227.984,346.776s.867,1.44.047,4.12c-.378,1.233-1.226,1.783-1.687,5.368-.955,7.418-1.775,13.692-1.775,13.692l3.2,1.376S231.1,359.993,232.1,357.3s1.976-3.95,2.3-6.113c.695-4.684-.976-20.171-2.88-13.2Z" transform="translate(-224.19 -289.85)" fill="#ffa194"/>
          <g id="Groupe_1827" data-name="Groupe 1827" transform="translate(0 77.928)">
            <g id="Groupe_1826" data-name="Groupe 1826">
              <path id="Tracé_1597" data-name="Tracé 1597" d="M228.97,365.468a15.825,15.825,0,0,0,3.16,2.542,12.493,12.493,0,0,0,3.569,1.521,1.251,1.251,0,0,1,1.05,1.229c.056.45-.447.5-1.5.648-1.678.24-2.766.884-4.542.314-1.244-.4-2.586-1.178-3.82-1.088a3.614,3.614,0,0,1-2.294-.489,7.462,7.462,0,0,1-.186-3.768c.415-1.15.709-.166,1.162.277s1.382.689,1.767.186A4.485,4.485,0,0,1,228.97,365.468Z" transform="translate(-224.218 -365.468)" fill="#4d4085"/>
              <path id="Tracé_1598" data-name="Tracé 1598" d="M236.721,370.419l.158.983a6.737,6.737,0,0,1-4.447.831c-2.512-.429-3.53-.921-4.634-.779a7.791,7.791,0,0,1-3.216-.352l-.012-1.3a16.118,16.118,0,0,1,5,.589,9.853,9.853,0,0,0,4.1.725A9.582,9.582,0,0,0,236.721,370.419Z" transform="translate(-224.19 -365.127)" fill="#442a69"/>
              <path id="Tracé_1599" data-name="Tracé 1599" d="M231.529,370.525c-1.553-.252-2.7-.95-3.812-1.175a7.132,7.132,0,0,0-2.388.023,3.613,3.613,0,0,1,2.382-.61C229.126,368.9,230.515,370.057,231.529,370.525Z" transform="translate(-224.13 -365.209)" fill="#442a69"/>
              <path id="Tracé_1600" data-name="Tracé 1600" d="M231.684,367.863l-1,.863-.805-.493.958-.905Z" transform="translate(-223.771 -365.321)" fill="#fff"/>
              <path id="Tracé_1601" data-name="Tracé 1601" d="M230.483,367.07l-1,.863-.695-.6.939-.888Z" transform="translate(-223.857 -365.391)" fill="#fff"/>
            </g>
          </g>
          <g id="Groupe_1828" data-name="Groupe 1828" transform="translate(1.566 11.839)">
            <path id="Tracé_1602" data-name="Tracé 1602" d="M229.8,326.175a15.783,15.783,0,0,0-3.51,7.168c-.992,6.272-.5,15.519-.5,15.519s3.155,2.14,4.848,2.14a29.666,29.666,0,0,0,5.563-1.162l.97-19.676Z" transform="translate(-225.669 -302.481)" fill="#51bdff"/>
            <path id="Tracé_1603" data-name="Tracé 1603" d="M239.379,326.231c-.125,1.651-.183,16.414.518,22.627-2.046,1.327-6.48.575-6.48.575l-.963-19.858Z" transform="translate(-225.134 -302.476)" fill="#51bdff"/>
            <path id="Tracé_1604" data-name="Tracé 1604" d="M231.886,304.218s.584-.109,2.458.8,2.749,5.53,2.749,5.53l-1.581-4.027.7-.675,2.729,1A40.325,40.325,0,0,1,241,313.924a43.812,43.812,0,0,1,0,9.213c-.231,2.4-1.358,11.721-1.358,11.721s-6.727.791-9.777-.644c-2.8-1.318-3.22-2.9-3.22-2.9s3.59-6.306,2.58-10.269-2.164-10.121-1.752-12.66C228.067,304.694,231.886,304.218,231.886,304.218Z" transform="translate(-225.593 -304.214)" fill="#22217f"/>
            <path id="Tracé_1605" data-name="Tracé 1605" d="M240.2,314.277a7.619,7.619,0,0,0-2.649,5.888,7.516,7.516,0,0,0,2.209,5.6S240.832,318.861,240.2,314.277Z" transform="translate(-224.731 -303.42)" fill="#fff"/>
          </g>
          <g id="Groupe_1829" data-name="Groupe 1829" transform="translate(6.867)">
            <path id="Tracé_1606" data-name="Tracé 1606" d="M241.2,301.356c-.213-.692-1.525-1.983-1.38-2.452a3.76,3.76,0,0,0-.017-2.505,2.967,2.967,0,0,0-1.578-1.945c-1.011-.615-4.844-1.057-6.589.612s-.845,4.51-.486,5.479a11.822,11.822,0,0,1,.716,2.666,3.121,3.121,0,0,1-.29,1.822c3.736,1.152,2.458,1.419,3.736,3.491a27.343,27.343,0,0,1,1.192-3.175c.459-.582,1.421-.489,2.148-.385.963.136.675-1.079,1.262-1.315.382-.154.117-.341.005-.535.057-.14.352-.23.407-.352.135-.3-.207-.388-.169-.541C240.25,301.837,241.321,301.756,241.2,301.356Z" transform="translate(-230.581 -293.189)" fill="#ffa194"/>
            <path id="Tracé_1607" data-name="Tracé 1607" d="M239.709,296.184s-.533-.566-3.118.123c-.688,2.4-3.282,4.592-3.282,4.592a4.73,4.73,0,0,1-1.475,3.144c-.017-2.008-1.4-3.95-1.239-6.033.263-3.476,1.221-4.536,4.553-4.69C237.262,293.223,241.208,292.737,239.709,296.184Z" transform="translate(-230.582 -293.241)" fill="#442a69"/>
            <path id="Tracé_1608" data-name="Tracé 1608" d="M234.443,299.272s-.11-1.143-1.186-.943-1.11,1.744.129,2.58S234.443,299.272,234.443,299.272Z" transform="translate(-230.435 -292.841)" fill="#ffa194"/>
          </g>
          <path id="Tracé_1609" data-name="Tracé 1609" d="M227.1,328.492c-.028.057,1.436,1.917,5.011,2.744a24.089,24.089,0,0,0,7.641.509l.061-.509a41.9,41.9,0,0,1-6.938-.793,39.007,39.007,0,0,1-5.533-2.452Z" transform="translate(-223.991 -290.498)" fill="#fff"/>
        </g>
        <g id="Groupe_1833" data-name="Groupe 1833" transform="translate(4.073 15.039)">
          <path id="Tracé_1610" data-name="Tracé 1610" d="M252.631,345.2c-.916,1.081,1.3,9.762,2.21,12.453s2.668,10.335,2.668,10.335l3.346-1.029s-.84-12-1.514-14.464a66.339,66.339,0,0,1-1.234-6.639Z" transform="translate(-226.066 -289.14)" fill="#ffa194"/>
          <path id="Tracé_1611" data-name="Tracé 1611" d="M241.684,342.6c-1.475.973-1.629,11.336-1.88,16.359s-.306,9.817-.306,9.817l3.683.146s-.106-3.322,1.61-9.963,2.056-9.108,2-10.229,0-4.509,0-4.509Z" transform="translate(-227.085 -289.345)" fill="#ffa194"/>
          <path id="Tracé_1612" data-name="Tracé 1612" d="M241.429,324.311c.037,1.566-.638,8.295-.749,12.108s-.988,11.667-.988,11.667,3.344,2,5.139,1.9,3.267-.211,3.267-.211l1.624-11.11,3.427,10.59a42.809,42.809,0,0,0,4.5-.276,5.591,5.591,0,0,0,2.267-1.476s-2-11.9-2.187-14.871-.7-6.079-.7-6.079Z" transform="translate(-227.07 -290.789)" fill="#51bdff"/>
          <path id="Tracé_1613" data-name="Tracé 1613" d="M238.727,310.119s-9.926,6.957-10.226,7.564c-1.494,3.033.785,3.611.785,3.611a32.7,32.7,0,0,0,4.95-2.116c2-1.354,7.949-6.088,7.949-6.088Z" transform="translate(-227.993 -291.909)" fill="#ffa194"/>
          <path id="Tracé_1614" data-name="Tracé 1614" d="M259.379,308.665s9.267,6.372,9.744,6.851c2.98,3-.619,4.016-.619,4.016l-12.7-6.985Z" transform="translate(-225.799 -292.024)" fill="#ffa194"/>
          <path id="Tracé_1615" data-name="Tracé 1615" d="M243.9,309.087s2.975,1.321,2.692-.4-.393-3.488-.393-3.488a2.643,2.643,0,0,1-2.131-1.439,7.711,7.711,0,0,1-.224-5.551c1.125-3.949,1.8-3.5,4.542-3.309,3.2.224,3.6,1.172,3.869,3.253s-1.109,4.732-1.4,6.168a4.2,4.2,0,0,0,.616,3.364,4.375,4.375,0,0,0,1.87,1.473S246.446,312.123,243.9,309.087Z" transform="translate(-226.774 -293.12)" fill="#ffa194"/>
          <path id="Tracé_1616" data-name="Tracé 1616" d="M234.445,311.149s4.161-3.512,6.16-4.3a8.872,8.872,0,0,1,6.094-.314,9.183,9.183,0,0,0,4.387.314c1.162-.12,3.265-1.539,5.017-1.277s7.084,3.344,7.084,3.344a9.188,9.188,0,0,1-.481,3.954,7.893,7.893,0,0,1-1.935,2.728l-3.748-1.247s.137,6.286.484,10.1a28.818,28.818,0,0,0,1.75,7.261,19.6,19.6,0,0,1-9.025,2.383,26.679,26.679,0,0,1-9.627-1.3s.922-8.307.877-10.884c-.058-3.3.069-7.558.069-7.558l-2.664,2.715S233.326,315.065,234.445,311.149Z" transform="translate(-227.496 -292.271)" fill="#22217f"/>
          <path id="Tracé_1617" data-name="Tracé 1617" d="M243.873,298.33s1.844.764,2.133,2.161A6.315,6.315,0,0,0,248.961,305h1.794s.869-.592,1.863-3.771c.372-1.191,1.276-4.36-1.12-5.425-.5-2.566-4.206-.905-4.457-2.566-.725.021-1.109.712-1.6,1.389-1.177-.815-1.733-.668-2.371-.411A6.651,6.651,0,0,1,243.873,298.33Z" transform="translate(-226.803 -293.241)" fill="#442a69"/>
          <path id="Tracé_1618" data-name="Tracé 1618" d="M244.966,315.519s.122-3.929,3.225-4.234,3.857,2.724,3.76,4.294-2.561,7.063-2.561,7.063h3.268v1.685h-6.824l.3-1.178s3.814-5.141,4.15-7.626c.281-2.075-.894-2.751-2.355-2.355-.908.247-1.474,2.462-1.474,2.462Z" transform="translate(-226.654 -291.818)" fill="#fff"/>
          <path id="Tracé_1619" data-name="Tracé 1619" d="M243.814,325.172v1.085s3.421.136,6.533,0,4.584-.284,4.584-.284l-.209-.834s-3.114.028-4.88,0S243.814,325.172,243.814,325.172Z" transform="translate(-226.745 -290.724)" fill="#fff"/>
          <path id="Tracé_1620" data-name="Tracé 1620" d="M240.242,329.985a32.642,32.642,0,0,0,9.111.864,47.522,47.522,0,0,0,9.109-1.841l-.183-.554a79.741,79.741,0,0,1-9.094,1.581,48.866,48.866,0,0,1-8.881-.636Z" transform="translate(-227.027 -290.462)" fill="#fff"/>
          <g id="Groupe_1831" data-name="Groupe 1831" transform="translate(30.024 76.413)">
            <path id="Tracé_1621" data-name="Tracé 1621" d="M256.247,369.415c.215-1.16.24-3.646,1.608-4.823s2.978-.31,3.351,1.835.859,6.73.859,6.73-3.378,1.633-5.311.32C255.385,372.549,256.033,370.574,256.247,369.415Z" transform="translate(-255.814 -364.064)" fill="#442a69"/>
            <path id="Tracé_1622" data-name="Tracé 1622" d="M255.926,370.814s.725,1.127,1.678,1.184,1.581-1.641,2.613-1.577a2.658,2.658,0,0,1,1.7.852l.153,1.384s-1.145,1.089-3.846.806C255.074,373.133,255.926,370.814,255.926,370.814Z" transform="translate(-255.821 -363.562)" fill="#37205b"/>
          </g>
          <g id="Groupe_1832" data-name="Groupe 1832" transform="translate(10.958 76.413)">
            <path id="Tracé_1623" data-name="Tracé 1623" d="M238.577,369.415c.215-1.16.24-3.646,1.608-4.823s2.978-.31,3.35,1.835.86,6.73.86,6.73-3.378,1.633-5.312.32C237.714,372.549,238.363,370.574,238.577,369.415Z" transform="translate(-238.143 -364.064)" fill="#442a69"/>
            <path id="Tracé_1624" data-name="Tracé 1624" d="M238.255,370.814s.726,1.127,1.679,1.184,1.581-1.641,2.612-1.577a2.662,2.662,0,0,1,1.7.852l.153,1.384s-1.145,1.089-3.847.806C237.4,373.133,238.255,370.814,238.255,370.814Z" transform="translate(-238.15 -363.562)" fill="#37205b"/>
          </g>
          <path id="Tracé_1625" data-name="Tracé 1625" d="M250.882,306.8s2.748-.673,4.374,0,6.67,3.645,6.67,3.645v-.528s-4.6-2.877-6-3.5a10.265,10.265,0,0,0-4.154-.275Z" transform="translate(-226.187 -292.231)" fill="#fff"/>
          <path id="Tracé_1626" data-name="Tracé 1626" d="M234.306,311.822s3.28-2.072,4.807-3.025a24.028,24.028,0,0,1,3.938-1.8l.712.448a31.819,31.819,0,0,0-4.421,2.041c-1.337.875-4.968,3.283-4.968,3.283Z" transform="translate(-227.495 -292.155)" fill="#fff"/>
        </g>
        <path id="Tracé_1627" data-name="Tracé 1627" d="M230.692,305.872a48.67,48.67,0,0,1,9.089-.181c3.678.182,5.184.393,8.356.434,2.583.032,4.457-2.218,6.588-.546,1.018.8-1.053,1.755-3.614,2.707-.477.178-2.825.265-4.9.672-3.615.709-6.162.7-8.588,1.164-1.006.193-5.354,1.11-6.931.45C228.465,309.637,228.932,306.2,230.692,305.872Z" transform="translate(-223.826 -277.277)" fill="#ffa194"/>
        <path id="Tracé_1628" data-name="Tracé 1628" d="M273.866,313.732a33.846,33.846,0,0,0-5.5,1.933c-1.682.926-3.281,1.465-3.575,1.3a30.7,30.7,0,0,1-3.1-1.465c-1.847-1.015-1.376.141-.9.709a11.089,11.089,0,0,0,1.053,1.062,8.955,8.955,0,0,0-2.988,1.416c-1.093.929.418,2.863,3.321,2.527s2.164-.758,3.744-1.267c4.246-1.362,5.6-1.2,6.658-1.768C273.866,317.494,274.754,315.91,273.866,313.732Z" transform="translate(-221.512 -276.585)" fill="#f97b6e"/>
      </g>
      <path id="Tracé_1629" data-name="Tracé 1629" d="M274.233,278.879a6.317,6.317,0,1,1-6.317-6.316A6.317,6.317,0,0,1,274.233,278.879Z" transform="translate(4.306)" fill="#00afff"/>
      <path id="Tracé_1632" data-name="Tracé 1632" d="M223.617,286.564a2.329,2.329,0,1,1-2.329-2.329A2.329,2.329,0,0,1,223.617,286.564Z" transform="translate(0.94 0.921)" fill="#f20066"/>
    </g>
  </g>
</svg>
