<svg xmlns="http://www.w3.org/2000/svg" width="349.786" height="103.29" viewBox="0 0 349.786 103.29">
  <g id="score-perso" transform="translate(-795.394 -306)">
    <g id="Groupe_1786" data-name="Groupe 1786" transform="translate(875.348 44.7)">
      <g id="Groupe_1784" data-name="Groupe 1784" transform="translate(62.672 266.61)">
        <path id="Tracé_1424" data-name="Tracé 1424" d="M90.255,344.977s-.294,1.245-.789,3.072c-.272,1,.189,3.335.337,8.651.106,3.845.154,7.8.154,7.8l2.394,1.43s.253-2.07.674-4.342a65.61,65.61,0,0,0,1.217-7.009c.033-2.762-.473-3.637-.145-4.912a20.572,20.572,0,0,0,.788-4.473Z" transform="translate(-72.807 -283.465)" fill="#ffa194"/>
        <path id="Tracé_1425" data-name="Tracé 1425" d="M103.587,344.977s.295,1.245.79,3.072c.272,1-.19,3.335-.337,8.651-.107,3.845-.155,7.8-.155,7.8l-1.749,1.43a33.562,33.562,0,0,1-1.425-4.9,55.1,55.1,0,0,1-1.111-6.449c-.033-2.762.473-3.637.145-4.912a20.572,20.572,0,0,1-.788-4.473Z" transform="translate(-74.798 -283.465)" fill="#ffa194"/>
        <g id="Groupe_1769" data-name="Groupe 1769" transform="translate(3.834 0)">
          <path id="Tracé_1426" data-name="Tracé 1426" d="M69.752,282.717l-.837,6.854A71.581,71.581,0,0,0,87.4,292.513a65.2,65.2,0,0,0,18.412-2.77l-.806-6.854A66.177,66.177,0,0,1,87.4,285.413,70.528,70.528,0,0,1,69.752,282.717Z" transform="translate(-68.915 -267.476)" fill="#51bdff"/>
          <path id="Tracé_1427" data-name="Tracé 1427" d="M87.857,272.377a69.3,69.3,0,0,1-16.639-2.419l-1.011,8.27a70.53,70.53,0,0,0,17.65,2.7,66.177,66.177,0,0,0,17.606-2.523l-.972-8.275A66.384,66.384,0,0,1,87.857,272.377Z" transform="translate(-69.37 -262.987)" fill="#f20066"/>
          <path id="Tracé_1428" data-name="Tracé 1428" d="M99.581,260.106c-2.51,1.55-8.3,2.315-11.217,2.315-2.753,0-8.93-2.561-12.006-2.951-3.611-.458-3.925,1.246-3.925,1.246l-.667,5.458a69.3,69.3,0,0,0,16.639,2.419,66.387,66.387,0,0,0,16.635-2.25l-.661-5.627S103.374,257.763,99.581,260.106Z" transform="translate(-69.918 -259.202)" fill="#00afff"/>
        </g>
        <g id="Groupe_1801" data-name="Groupe 1801" transform="translate(17.963 19.993)">
          <path id="Tracé_1493" data-name="Tracé 1493" d="M303.634,280.507a.957.957,0,0,0-.215-1.606.935.935,0,0,0-.829-1.587,4.8,4.8,0,0,0-3.549-1.265,1.31,1.31,0,0,0-1.28-.661.889.889,0,0,0-.779.808.95.95,0,0,0-1,.19,1.67,1.67,0,0,0-.4,1.526.78.78,0,0,0-1.027.345,1.423,1.423,0,0,0,.289,1.6.943.943,0,0,0-.888.8c-.014.487.353.686.757,1.007-.112.281-.3.464-.2.82a1.043,1.043,0,0,0,.81.667c-.1.685.7.883,1.13.414a6.359,6.359,0,0,0,1.544.227c.432.011.857-.08,1.285-.077a10.087,10.087,0,0,1,1.662.338,1.153,1.153,0,0,0,1.4-.712.961.961,0,0,0,1.069-1.444c.285-.1.63-.173.729-.516C304.311,280.837,303.862,280.643,303.634,280.507Z" transform="translate(-293.962 -275.37)" fill="#442a69"/>
        </g>
        <path id="Tracé_1436" data-name="Tracé 1436" d="M102.766,346.624c-.383-2.894-.912-6.666-1.556-9.683a7.7,7.7,0,0,1-1.656-.531H91.315a7.783,7.783,0,0,1-1.713.543c-.422,2.828-.786,6.324-1.04,9.911,1.883,1.367,4.312,1.092,6.19.42.41-3.137.839-7.551.839-7.551a64.763,64.763,0,0,0,1.046,7.484C98.173,348.376,101.931,347.578,102.766,346.624Z" transform="translate(-72.636 -281.684)" fill="#22217f"/>
        <g id="Groupe_1775" data-name="Groupe 1775" transform="translate(15.254 32.893)">
          <path id="Tracé_1437" data-name="Tracé 1437" d="M95.969,328.588a54.185,54.185,0,0,1-7.408-.553l-.654,6.811a20.892,20.892,0,0,0,7.5,1.135,38.242,38.242,0,0,0,7.535-.729l-1.162-7.113A47.13,47.13,0,0,1,95.969,328.588Z" transform="translate(-87.754 -312.834)" fill="#00afff"/>
          <path id="Tracé_1438" data-name="Tracé 1438" d="M100.621,317.319l-.058-.353.123.315a48.127,48.127,0,0,1,1.377-7.049,15.232,15.232,0,0,0-3.627-1.115c-.927-.185-1.619-.274-1.619-.274s-.282.858-1.609.858a1.8,1.8,0,0,1-1.6-.858l-1.286.255c-1.293.256-3.22.631-4.122.783.063.417-.523,2.393-.485,2.719.2,1.678,1.348,2.841,1.436,4.435a35.781,35.781,0,0,0,6.453.627C96.489,317.661,98.925,317.466,100.621,317.319Z" transform="translate(-87.714 -308.843)" fill="#00afff"/>
          <path id="Tracé_1439" data-name="Tracé 1439" d="M101.948,326.3l-1.115-6.827c-1.7.146-4.132.342-5.016.342a35.782,35.782,0,0,1-6.453-.626,3.434,3.434,0,0,1,0,.486l-.626,6.523a54.2,54.2,0,0,0,7.408.553A47.136,47.136,0,0,0,101.948,326.3Z" transform="translate(-87.926 -310.994)" fill="#51bdff"/>
        </g>
        <g id="Groupe_1778" data-name="Groupe 1778" transform="translate(19.327 24.171)">
          <path id="Tracé_1448" data-name="Tracé 1448" d="M95.2,306.89s.006,1-.041,1.517a1.688,1.688,0,0,0,1.473.884c.454.057,1.676-.107,1.735-.884-.044-.808-.059-1.662-.059-1.662Z" transform="translate(-93.335 -299.685)" fill="#f97b6e"/>
          <path id="Tracé_1449" data-name="Tracé 1449" d="M100.192,301.639c-.179-.544-.6-.394-.6-.394s-.035.082-.081.2c-.146-2.026-1.444-3.612-3.026-3.612-1.521,0-2.778,1.469-3,3.385-.133-.029-.376-.021-.554.334a1.06,1.06,0,0,0,.629,1.346c.357,1.684,1.53,2.92,2.927,2.92s2.579-1.247,2.93-2.942A1.073,1.073,0,0,0,100.192,301.639Z" transform="translate(-92.856 -297.831)" fill="#ffa194"/>
        </g>
        <path id="Tracé_1450" data-name="Tracé 1450" d="M99.517,297.642c-1.021-1.68-4.579-1.779-5.613-.124-.534.854-.463,3.374-.463,3.374l.463.619a11.163,11.163,0,0,1,.573-2.09c.209-.384,1.122-.144,2.157-.1.917.04,1.965-.154,2.174.148a7.35,7.35,0,0,1,.556,2.04l.463-.619A12.1,12.1,0,0,0,99.517,297.642Z" transform="translate(-73.65 -273.348)" fill="#442a69"/>
        <path id="Tracé_1453" data-name="Tracé 1453" d="M114.106,261.711s1.312-2.61,3.849-1.867a2,2,0,0,1,1.32,1.05S115.5,262.065,114.106,261.711Z" transform="translate(-80.981 -259.381)" fill="#00afff"/>
        <path id="Tracé_1454" data-name="Tracé 1454" d="M77.964,261.711s-1.312-2.61-3.849-1.867a2,2,0,0,0-1.32,1.05S76.575,262.065,77.964,261.711Z" transform="translate(-66.446 -259.381)" fill="#00afff"/>
        <g id="Groupe_1782" data-name="Groupe 1782" transform="translate(26.479 79.435)">
          <path id="Tracé_1462" data-name="Tracé 1462" d="M104.781,367.825s-1.428-.944-1.716,1.1c-.037.269-.881.634-.881.634s-.6,1.429-.1,1.884a18.778,18.778,0,0,0,2.287,1.663c.868.553.948,2.054,3.03,1.227.969-.385.969-1.485.066-2.283A16.107,16.107,0,0,1,104.781,367.825Z" transform="translate(-101.886 -367.607)" fill="#00afff"/>
          <path id="Tracé_1463" data-name="Tracé 1463" d="M108.112,374.372s-.24-.257-.752.117c-.567.414-.208.946-1.265.683s-1.039-.654-1.735-1.249a16.524,16.524,0,0,0-2.394-1.7l.173.594s1.329,1.011,1.95,1.56.938,1.16,1.923,1.226a1.871,1.871,0,0,0,1.879-.63A.686.686,0,0,0,108.112,374.372Z" transform="translate(-101.903 -368.566)" fill="#442a69"/>
          <path id="Tracé_1464" data-name="Tracé 1464" d="M106.043,369.932l.245.431a6.746,6.746,0,0,0-1.121.31c-.652.235-1.075.63-1.145.291s.4-.574.776-.739A6.983,6.983,0,0,1,106.043,369.932Z" transform="translate(-102.329 -368.09)" fill="#fff"/>
          <path id="Tracé_1465" data-name="Tracé 1465" d="M106.958,371.382s-.681.134-1.178.275-.761.494-.644.706.476-.153.873-.318a6.1,6.1,0,0,1,1.227-.255Z" transform="translate(-102.557 -368.392)" fill="#fff"/>
          <path id="Tracé_1466" data-name="Tracé 1466" d="M105.668,374.3a15.207,15.207,0,0,0-1.753-2.047,3.473,3.473,0,0,0-1.488-.611s.969.7,1.447,1.129A12,12,0,0,0,105.668,374.3Z" transform="translate(-101.999 -368.446)" fill="#442a69"/>
        </g>
        <g id="Groupe_1783" data-name="Groupe 1783" transform="translate(13.779 79.435)">
          <path id="Tracé_1467" data-name="Tracé 1467" d="M89.205,367.825s1.428-.944,1.716,1.1c.038.269.881.634.881.634s.6,1.429.1,1.884a18.779,18.779,0,0,1-2.287,1.663c-.868.553-.948,2.054-3.03,1.227-.969-.385-.969-1.485-.066-2.283A16.107,16.107,0,0,0,89.205,367.825Z" transform="translate(-85.851 -367.607)" fill="#00afff"/>
          <path id="Tracé_1468" data-name="Tracé 1468" d="M85.9,374.372s.24-.257.752.117c.567.414.208.946,1.265.683s1.039-.654,1.735-1.249a16.524,16.524,0,0,1,2.394-1.7l-.173.594s-1.329,1.011-1.95,1.56-.938,1.16-1.923,1.226a1.871,1.871,0,0,1-1.879-.63A.686.686,0,0,1,85.9,374.372Z" transform="translate(-85.859 -368.566)" fill="#442a69"/>
          <path id="Tracé_1469" data-name="Tracé 1469" d="M88.987,369.932l-.245.431a6.746,6.746,0,0,1,1.121.31c.652.235,1.075.63,1.145.291s-.4-.574-.776-.739A6.983,6.983,0,0,0,88.987,369.932Z" transform="translate(-86.452 -368.09)" fill="#fff"/>
          <path id="Tracé_1470" data-name="Tracé 1470" d="M88.11,371.382s.681.134,1.178.275.761.494.644.706-.476-.153-.873-.318a6.091,6.091,0,0,0-1.227-.255Z" transform="translate(-86.263 -368.392)" fill="#fff"/>
          <path id="Tracé_1471" data-name="Tracé 1471" d="M89.108,374.3a15.207,15.207,0,0,1,1.753-2.047,3.473,3.473,0,0,1,1.488-.611s-.969.7-1.447,1.129A12,12,0,0,1,89.108,374.3Z" transform="translate(-86.528 -368.446)" fill="#442a69"/>
        </g>
        <path id="Tracé_1472" data-name="Tracé 1472" d="M3.178.158C4.423.447,6.32,2.089,7.553,4.119a23.117,23.117,0,0,1,2.53,4.723c.672,1.859-.056,8.957-.926,9.465a2.261,2.261,0,0,1-2.981-1.454,6.925,6.925,0,0,1,.592-4.006c.416-1.061,1.508-2.6,1.344-2.755C7.347,9.38,5.37,3.679,5.37,3.679L2.1,1.459S-.255,3.213.023,1.97C.141,1.444.018-.574,3.178.158Z" transform="matrix(0.438, 0.899, -0.899, 0.438, 40.907, 21.31)" fill="#ffa194"/>
        <path id="Tracé_1671" data-name="Tracé 1671" d="M3.178,18.3c1.245-.288,3.141-1.931,4.375-3.961a23.118,23.118,0,0,0,2.53-4.723c.672-1.859-.056-8.957-.926-9.465A2.261,2.261,0,0,0,6.175,1.605a6.925,6.925,0,0,0,.592,4.006c.416,1.061,1.508,2.6,1.344,2.755-.764.712-2.74,6.413-2.74,6.413L2.1,17S-.255,15.244.023,16.488C.141,17.014.018,19.032,3.178,18.3Z" transform="matrix(-0.438, 0.899, -0.899, -0.438, 21.125, 29.401)" fill="#ffa194"/>
        <path id="Tracé_1676" data-name="Tracé 1676" d="M2.1,8.485C6.2,10.566,3.955.659,3.086.151A2.261,2.261,0,0,0,.1,1.605,6.925,6.925,0,0,0,.7,5.611C1.113,6.672,2.1,8.485,2.1,8.485Z" transform="matrix(-0.438, 0.899, -0.899, -0.438, 18.463, 34.857)" fill="#00afff"/>
        <path id="Tracé_1677" data-name="Tracé 1677" d="M2.1.287c4.1-2.082,1.857,7.826.988,8.333A2.261,2.261,0,0,1,.1,7.166,6.925,6.925,0,0,1,.7,3.161C1.113,2.1,2.1.287,2.1.287Z" transform="matrix(0.438, 0.899, -0.899, 0.438, 34.709, 31.012)" fill="#00afff"/>
      </g>
      <g id="Groupe_1785" data-name="Groupe 1785" transform="translate(56.576 331.433)" opacity="0.5">
        <path id="Tracé_1474" data-name="Tracé 1474" d="M67.051,352.3a3.146,3.146,0,1,1-3.147-3.146A3.147,3.147,0,0,1,67.051,352.3Z" transform="translate(-60.758 -349.157)" fill="#4d4085"/>
      </g>
      <path id="Tracé_1475" data-name="Tracé 1475" d="M128.407,345.875a3.42,3.42,0,1,1-3.42-3.42A3.42,3.42,0,0,1,128.407,345.875Z" transform="translate(-16.828 -16.33)" fill="#00afff"/>
      <path id="Tracé_1477" data-name="Tracé 1477" d="M44.072,315.256a1.71,1.71,0,1,1-1.71-1.71A1.71,1.71,0,0,1,44.072,315.256Z" transform="translate(0 -10.318)" fill="#00afff"/>
      <path id="Tracé_1478" data-name="Tracé 1478" d="M74.624,367.516a1.71,1.71,0,1,1-1.71-1.711A1.71,1.71,0,0,1,74.624,367.516Z" transform="translate(-6.354 -21.187)" fill="#00afff"/>
      <path id="Tracé_1479" data-name="Tracé 1479" d="M55.614,294.61a3.42,3.42,0,1,1-3.42-3.421A3.421,3.421,0,0,1,55.614,294.61Z" transform="translate(-1.689 -5.668)" fill="#f20066"/>
    </g>
    <g id="bullets_bg" data-name="bullets bg" transform="translate(727.441 306)">
      <path id="Tracé_1644" data-name="Tracé 1644" d="M171.045,38.414a4.956,4.956,0,1,1-4.956-4.956A4.956,4.956,0,0,1,171.045,38.414Z" transform="translate(-82.355 -30.132)" fill="#00afff"/>
      <g id="Groupe_1867" data-name="Groupe 1867" transform="translate(104.061 52.362)" opacity="0.5">
        <path id="Tracé_1645" data-name="Tracé 1645" d="M92.558,49.148a1.921,1.921,0,1,1-1.921-1.921A1.921,1.921,0,0,1,92.558,49.148Z" transform="translate(-88.715 -47.227)" fill="#4d4085"/>
      </g>
      <path id="Tracé_1647" data-name="Tracé 1647" d="M211.456,31.357a1.828,1.828,0,1,1-1.828-1.828A1.828,1.828,0,0,1,211.456,31.357Z" transform="translate(-89.517 -29.529)" fill="#00afff"/>
      <path id="Tracé_1648" data-name="Tracé 1648" d="M108.834,124.962a1.828,1.828,0,1,1-1.829-1.828A1.828,1.828,0,0,1,108.834,124.962Z" transform="translate(-27.216 -43.894)" fill="#00afff"/>
      <path id="Tracé_1649" data-name="Tracé 1649" d="M295.123,113.988a1.828,1.828,0,1,1-1.829-1.828A1.828,1.828,0,0,1,295.123,113.988Z" transform="translate(-130.305 -49.175)" fill="#00afff"/>
      <path id="Tracé_1650" data-name="Tracé 1650" d="M274.571,35.936a1.828,1.828,0,1,1-1.828-1.828A1.828,1.828,0,0,1,274.571,35.936Z" transform="translate(-99.202 -30.232)" fill="#00afff"/>
      <path id="Tracé_1651" data-name="Tracé 1651" d="M384.965,149.054a1.828,1.828,0,1,1-1.828-1.828A1.828,1.828,0,0,1,384.965,149.054Z" transform="translate(-116.144 -47.591)" fill="#fff"/>
      <ellipse id="Ellipse_19" data-name="Ellipse 19" cx="3.656" cy="3.656" rx="3.656" ry="3.656" transform="translate(104.248 28.733)" fill="#e52c65"/>
      <path id="Tracé_1653" data-name="Tracé 1653" d="M232.915,41.18a4.956,4.956,0,1,1-4.956-4.956A4.957,4.957,0,0,1,232.915,41.18Z" transform="translate(-91.849 -30.556)" fill="#e52c65"/>
      <path id="Tracé_1654" data-name="Tracé 1654" d="M300.231,130.939a2.734,2.734,0,1,1-2.734-2.734A2.734,2.734,0,0,1,300.231,130.939Z" transform="translate(-226.811 -70.638)" fill="#00afff"/>
      <path id="Tracé_1655" data-name="Tracé 1655" d="M142.164,136.929a3.544,3.544,0,1,1-3.544-3.544A3.544,3.544,0,0,1,142.164,136.929Z" transform="translate(8.196 -95.467)" fill="#3a337e"/>
      <g id="Groupe_1868" data-name="Groupe 1868" transform="translate(277.013 35.871)" opacity="0.5">
        <path id="Tracé_1656" data-name="Tracé 1656" d="M402.029,75.265a3.362,3.362,0,1,1-3.362-3.362A3.362,3.362,0,0,1,402.029,75.265Z" transform="translate(-395.304 -71.903)" fill="#4d4085"/>
      </g>
    </g>
    <g id="bullets_bg-2" data-name="bullets bg" transform="translate(929.395 306)">
      <path id="Tracé_1644-2" data-name="Tracé 1644" d="M161.132,38.414a4.956,4.956,0,1,0,4.956-4.956A4.956,4.956,0,0,0,161.132,38.414Z" transform="translate(33.916 -30.132)" fill="#00afff"/>
      <g id="Groupe_1867-2" data-name="Groupe 1867" transform="translate(175.834 52.362)" opacity="0.5">
        <path id="Tracé_1645-2" data-name="Tracé 1645" d="M88.715,49.148a1.921,1.921,0,1,0,1.921-1.921A1.921,1.921,0,0,0,88.715,49.148Z" transform="translate(-88.715 -47.227)" fill="#4d4085"/>
      </g>
      <path id="Tracé_1647-2" data-name="Tracé 1647" d="M207.8,31.357a1.828,1.828,0,1,0,1.828-1.828A1.828,1.828,0,0,0,207.8,31.357Z" transform="translate(-46.003 -29.529)" fill="#00afff"/>
      <path id="Tracé_1648-2" data-name="Tracé 1648" d="M105.178,124.962a1.828,1.828,0,1,0,1.829-1.828A1.828,1.828,0,0,0,105.178,124.962Z" transform="translate(96.941 -43.894)" fill="#00afff"/>
      <path id="Tracé_1649-2" data-name="Tracé 1649" d="M291.467,113.988a1.828,1.828,0,1,0,1.829-1.828A1.828,1.828,0,0,0,291.467,113.988Z" transform="translate(-172.548 -49.175)" fill="#00afff"/>
      <path id="Tracé_1650-2" data-name="Tracé 1650" d="M270.915,35.936a1.828,1.828,0,1,0,1.828-1.828A1.828,1.828,0,0,0,270.915,35.936Z" transform="translate(-162.546 -30.232)" fill="#00afff"/>
      <path id="Tracé_1651-2" data-name="Tracé 1651" d="M381.31,149.054a1.828,1.828,0,1,0,1.828-1.828A1.828,1.828,0,0,0,381.31,149.054Z" transform="translate(-366.394 -47.591)" fill="#fff"/>
      <ellipse id="Ellipse_19-2" data-name="Ellipse 19" cx="3.656" cy="3.656" rx="3.656" ry="3.656" transform="translate(172.179 28.733)" fill="#e52c65"/>
      <path id="Tracé_1653-2" data-name="Tracé 1653" d="M223,41.18a4.956,4.956,0,1,0,4.956-4.956A4.957,4.957,0,0,0,223,41.18Z" transform="translate(-80.33 -30.556)" fill="#e52c65"/>
      <path id="Tracé_1654-2" data-name="Tracé 1654" d="M294.763,130.939a2.734,2.734,0,1,0,2.734-2.734A2.734,2.734,0,0,0,294.763,130.939Z" transform="translate(-84.446 -70.638)" fill="#00afff"/>
      <path id="Tracé_1655-2" data-name="Tracé 1655" d="M135.075,136.929a3.544,3.544,0,1,0,3.544-3.544A3.544,3.544,0,0,0,135.075,136.929Z" transform="translate(-1.698 -95.467)" fill="#3a337e"/>
      <g id="Groupe_1868-2" data-name="Groupe 1868" transform="translate(0 35.871)" opacity="0.5">
        <path id="Tracé_1656-2" data-name="Tracé 1656" d="M395.3,75.265a3.362,3.362,0,1,0,3.362-3.362A3.362,3.362,0,0,0,395.3,75.265Z" transform="translate(-395.304 -71.903)" fill="#4d4085"/>
      </g>
    </g>
  </g>
</svg>
