<svg xmlns="http://www.w3.org/2000/svg" width="349.785" height="109.73" viewBox="0 0 349.785 109.73">
  <g id="welcome-perso" transform="translate(-795.395 -299.56)">
    <g id="bullets_bg" data-name="bullets bg" transform="translate(727.442 306)">
      <path id="Tracé_1644" data-name="Tracé 1644" d="M171.045,38.414a4.956,4.956,0,1,1-4.956-4.956A4.956,4.956,0,0,1,171.045,38.414Z" transform="translate(-82.355 -30.132)" fill="#00afff"/>
      <g id="Groupe_1867" data-name="Groupe 1867" transform="translate(104.061 52.362)" opacity="0.5">
        <path id="Tracé_1645" data-name="Tracé 1645" d="M92.558,49.148a1.921,1.921,0,1,1-1.921-1.921A1.921,1.921,0,0,1,92.558,49.148Z" transform="translate(-88.715 -47.227)" fill="#4d4085"/>
      </g>
      <path id="Tracé_1646" data-name="Tracé 1646" d="M387.809,45.592a4.187,4.187,0,1,1-4.187-4.186A4.186,4.186,0,0,1,387.809,45.592Z" transform="translate(-115.856 -31.352)" fill="#fff"/>
      <path id="Tracé_1647" data-name="Tracé 1647" d="M211.456,31.357a1.828,1.828,0,1,1-1.828-1.828A1.828,1.828,0,0,1,211.456,31.357Z" transform="translate(-89.517 -29.529)" fill="#00afff"/>
      <path id="Tracé_1648" data-name="Tracé 1648" d="M108.834,124.962a1.828,1.828,0,1,1-1.829-1.828A1.828,1.828,0,0,1,108.834,124.962Z" transform="translate(-27.216 -43.894)" fill="#00afff"/>
      <path id="Tracé_1649" data-name="Tracé 1649" d="M295.123,113.988a1.828,1.828,0,1,1-1.829-1.828A1.828,1.828,0,0,1,295.123,113.988Z" transform="translate(-130.305 -49.175)" fill="#00afff"/>
      <path id="Tracé_1650" data-name="Tracé 1650" d="M274.571,35.936a1.828,1.828,0,1,1-1.828-1.828A1.828,1.828,0,0,1,274.571,35.936Z" transform="translate(-99.202 -30.232)" fill="#00afff"/>
      <path id="Tracé_1651" data-name="Tracé 1651" d="M384.965,149.054a1.828,1.828,0,1,1-1.828-1.828A1.828,1.828,0,0,1,384.965,149.054Z" transform="translate(-116.144 -47.591)" fill="#fff"/>
      <ellipse id="Ellipse_19" data-name="Ellipse 19" cx="3.656" cy="3.656" rx="3.656" ry="3.656" transform="translate(104.248 28.733)" fill="#e52c65"/>
      <path id="Tracé_1652" data-name="Tracé 1652" d="M352.787,95.285a3.655,3.655,0,1,1-3.655-3.656A3.655,3.655,0,0,1,352.787,95.285Z" transform="translate(-110.645 -39.059)" fill="#e52c65"/>
      <path id="Tracé_1653" data-name="Tracé 1653" d="M232.915,41.18a4.956,4.956,0,1,1-4.956-4.956A4.957,4.957,0,0,1,232.915,41.18Z" transform="translate(-91.849 -30.556)" fill="#e52c65"/>
      <path id="Tracé_1654" data-name="Tracé 1654" d="M300.231,130.939a2.734,2.734,0,1,1-2.734-2.734A2.734,2.734,0,0,1,300.231,130.939Z" transform="translate(-226.811 -70.638)" fill="#00afff"/>
      <path id="Tracé_1655" data-name="Tracé 1655" d="M142.164,136.929a3.544,3.544,0,1,1-3.544-3.544A3.544,3.544,0,0,1,142.164,136.929Z" transform="translate(8.196 -95.467)" fill="#3a337e"/>
      <g id="Groupe_1868" data-name="Groupe 1868" transform="translate(277.013 35.871)" opacity="0.5">
        <path id="Tracé_1656" data-name="Tracé 1656" d="M402.029,75.265a3.362,3.362,0,1,1-3.362-3.362A3.362,3.362,0,0,1,402.029,75.265Z" transform="translate(-395.304 -71.903)" fill="#4d4085"/>
      </g>
    </g>
    <g id="bullets_bg-2" data-name="bullets bg" transform="translate(929.395 306)">
      <path id="Tracé_1644-2" data-name="Tracé 1644" d="M161.132,38.414a4.956,4.956,0,1,0,4.956-4.956A4.956,4.956,0,0,0,161.132,38.414Z" transform="translate(33.916 -30.132)" fill="#00afff"/>
      <g id="Groupe_1867-2" data-name="Groupe 1867" transform="translate(175.834 52.362)" opacity="0.5">
        <path id="Tracé_1645-2" data-name="Tracé 1645" d="M88.715,49.148a1.921,1.921,0,1,0,1.921-1.921A1.921,1.921,0,0,0,88.715,49.148Z" transform="translate(-88.715 -47.227)" fill="#4d4085"/>
      </g>
      <path id="Tracé_1646-2" data-name="Tracé 1646" d="M379.436,45.592a4.187,4.187,0,1,0,4.187-4.186A4.186,4.186,0,0,0,379.436,45.592Z" transform="translate(-367.651 -31.352)" fill="#fff"/>
      <path id="Tracé_1647-2" data-name="Tracé 1647" d="M207.8,31.357a1.828,1.828,0,1,0,1.828-1.828A1.828,1.828,0,0,0,207.8,31.357Z" transform="translate(-46.003 -29.529)" fill="#00afff"/>
      <path id="Tracé_1648-2" data-name="Tracé 1648" d="M105.178,124.962a1.828,1.828,0,1,0,1.829-1.828A1.828,1.828,0,0,0,105.178,124.962Z" transform="translate(96.941 -43.894)" fill="#00afff"/>
      <path id="Tracé_1649-2" data-name="Tracé 1649" d="M291.467,113.988a1.828,1.828,0,1,0,1.829-1.828A1.828,1.828,0,0,0,291.467,113.988Z" transform="translate(-172.548 -49.175)" fill="#00afff"/>
      <path id="Tracé_1650-2" data-name="Tracé 1650" d="M270.915,35.936a1.828,1.828,0,1,0,1.828-1.828A1.828,1.828,0,0,0,270.915,35.936Z" transform="translate(-162.546 -30.232)" fill="#00afff"/>
      <path id="Tracé_1651-2" data-name="Tracé 1651" d="M381.31,149.054a1.828,1.828,0,1,0,1.828-1.828A1.828,1.828,0,0,0,381.31,149.054Z" transform="translate(-366.394 -47.591)" fill="#fff"/>
      <ellipse id="Ellipse_19-2" data-name="Ellipse 19" cx="3.656" cy="3.656" rx="3.656" ry="3.656" transform="translate(172.179 28.733)" fill="#e52c65"/>
      <path id="Tracé_1652-2" data-name="Tracé 1652" d="M345.476,95.285a3.655,3.655,0,1,0,3.655-3.656A3.655,3.655,0,0,0,345.476,95.285Z" transform="translate(-303.881 -39.059)" fill="#e52c65"/>
      <path id="Tracé_1653-2" data-name="Tracé 1653" d="M223,41.18a4.956,4.956,0,1,0,4.956-4.956A4.957,4.957,0,0,0,223,41.18Z" transform="translate(-80.33 -30.556)" fill="#e52c65"/>
      <path id="Tracé_1654-2" data-name="Tracé 1654" d="M294.763,130.939a2.734,2.734,0,1,0,2.734-2.734A2.734,2.734,0,0,0,294.763,130.939Z" transform="translate(-84.446 -70.638)" fill="#00afff"/>
      <path id="Tracé_1655-2" data-name="Tracé 1655" d="M135.075,136.929a3.544,3.544,0,1,0,3.544-3.544A3.544,3.544,0,0,0,135.075,136.929Z" transform="translate(-1.698 -95.467)" fill="#3a337e"/>
      <g id="Groupe_1868-2" data-name="Groupe 1868" transform="translate(0 35.871)" opacity="0.5">
        <path id="Tracé_1656-2" data-name="Tracé 1656" d="M395.3,75.265a3.362,3.362,0,1,0,3.362-3.362A3.362,3.362,0,0,0,395.3,75.265Z" transform="translate(-395.304 -71.903)" fill="#4d4085"/>
      </g>
    </g>
    <g id="Groupe_1800" data-name="Groupe 1800" transform="translate(600.533 187.4)">
      <g id="Groupe_1799" data-name="Groupe 1799" transform="translate(327.734 139.908)">
        <g id="Groupe_1797" data-name="Groupe 1797" transform="translate(0 0)">
          <g id="Groupe_1787" data-name="Groupe 1787" transform="translate(32.283 7.083)">
            <path id="Tracé_1480" data-name="Tracé 1480" d="M352.839,165.417l-.19-1.488a12.96,12.96,0,0,0,8.344-5.53c2.674-4.091,3.491-11.274,3.694-13.651h-7.939v-1.5h9.536l-.04.789c-.021.4-.55,9.913-4,15.183A14.244,14.244,0,0,1,352.839,165.417Z" transform="translate(-352.649 -143.247)" fill="#f97b6e"/>
          </g>
          <g id="Groupe_1788" data-name="Groupe 1788" transform="translate(0 7.083)">
            <path id="Tracé_1481" data-name="Tracé 1481" d="M337.28,165.417a14.248,14.248,0,0,1-9.409-6.2c-3.444-5.269-3.973-14.781-3.994-15.183l-.04-.789h9.536v1.5h-7.939c.2,2.378,1.018,9.561,3.694,13.651a12.968,12.968,0,0,0,8.345,5.532Z" transform="translate(-323.836 -143.247)" fill="#f97b6e"/>
          </g>
          <path id="Tracé_1482" data-name="Tracé 1482" d="M349.146,177.645a17.576,17.576,0,0,1-1.524-7.44h-5.129a17.576,17.576,0,0,1-1.524,7.44c-1.663,3.257-2.764,5.556-2.764,5.556h13.7S350.807,180.9,349.146,177.645Z" transform="translate(-322.106 -132.918)" fill="#ffa194"/>
          <path id="Tracé_1483" data-name="Tracé 1483" d="M331.2,137.572s0,17.817,3.554,26.353a20.052,20.052,0,0,0,10.987,10.685v.131l.171-.065.171.065v-.131a20.052,20.052,0,0,0,10.987-10.685c3.555-8.536,3.555-26.353,3.555-26.353Z" transform="translate(-322.949 -136.847)" fill="#ffa194"/>
          <circle id="Ellipse_17" data-name="Ellipse 17" cx="8.761" cy="8.761" r="8.761" transform="translate(10.654 12.39) rotate(-45)" fill="#fff"/>
          <g id="Groupe_1796" data-name="Groupe 1796" transform="translate(15.725 4.938)">
            <g id="Groupe_1790" data-name="Groupe 1790">
              <g id="Groupe_1789" data-name="Groupe 1789">
                <path id="Tracé_1484" data-name="Tracé 1484" d="M345.111,155.813a7.24,7.24,0,1,1,7.24-7.24A7.249,7.249,0,0,1,345.111,155.813Zm0-13.607a6.367,6.367,0,1,0,6.367,6.367A6.374,6.374,0,0,0,345.111,142.206Z" transform="translate(-337.871 -141.333)" fill="#f97b6e"/>
              </g>
            </g>
            <g id="Groupe_1792" data-name="Groupe 1792" transform="translate(2.37 0.959)">
              <g id="Groupe_1791" data-name="Groupe 1791">
                <path id="Tracé_1485" data-name="Tracé 1485" d="M344.482,151.062l-4.5-2.985,1.7-5.888,7.178.908.838,5.024ZM341,147.7l3.518,2.335,4.218-2.379-.631-3.78-5.793-.732Z" transform="translate(-339.986 -142.189)" fill="#f97b6e"/>
              </g>
            </g>
            <g id="Groupe_1793" data-name="Groupe 1793" transform="translate(6.001 9.278)">
              <rect id="Rectangle_31" data-name="Rectangle 31" width="4.693" height="0.872" transform="translate(0 4.672) rotate(-84.501)" fill="#f97b6e"/>
            </g>
            <g id="Groupe_1794" data-name="Groupe 1794" transform="translate(0.278 6.266)">
              <rect id="Rectangle_32" data-name="Rectangle 32" width="2.669" height="0.873" transform="translate(0 1.141) rotate(-25.305)" fill="#f97b6e"/>
            </g>
            <g id="Groupe_1795" data-name="Groupe 1795" transform="translate(11.325 6.324)">
              <rect id="Rectangle_33" data-name="Rectangle 33" width="0.873" height="2.998" transform="translate(0 0.673) rotate(-50.431)" fill="#f97b6e"/>
            </g>
          </g>
          <rect id="Rectangle_34" data-name="Rectangle 34" width="11.087" height="0.78" transform="translate(17.422 22.864)" fill="#fff"/>
          <rect id="Rectangle_35" data-name="Rectangle 35" width="11.087" height="0.78" transform="translate(17.422 24.862)" fill="#fff"/>
          <rect id="Rectangle_36" data-name="Rectangle 36" width="8.562" height="1.109" rx="0.463" transform="translate(18.488 35.825)" fill="#f97b6e"/>
          <rect id="Rectangle_37" data-name="Rectangle 37" width="8.562" height="1.109" rx="0.463" transform="translate(18.488 36.928)" fill="#f97b6e"/>
          <rect id="Rectangle_38" data-name="Rectangle 38" width="16.375" height="1.15" rx="0.48" transform="translate(14.857 50.283)" fill="#f97b6e"/>
          <path id="Tracé_1486" data-name="Tracé 1486" d="M354.2,182.829h-17.73a.557.557,0,0,0-.556.555v.041a.557.557,0,0,0,.556.555H354.2a.556.556,0,0,0,.555-.555v-.041A.556.556,0,0,0,354.2,182.829Z" transform="translate(-322.381 -131.398)" fill="#f97b6e"/>
        </g>
        <g id="Groupe_1798" data-name="Groupe 1798" transform="translate(8.331 52.582)">
          <rect id="Rectangle_39" data-name="Rectangle 39" width="24.115" height="14.099" transform="translate(2.624 2.088)" fill="#442a69"/>
          <rect id="Rectangle_40" data-name="Rectangle 40" width="20.94" height="2.088" transform="translate(4.212)" fill="#4d4085"/>
          <rect id="Rectangle_41" data-name="Rectangle 41" width="29.426" height="2.362" transform="translate(0 15.681)" fill="#4d4085"/>
          <rect id="Rectangle_42" data-name="Rectangle 42" width="12.958" height="5.695" transform="translate(7.959 5.579)" fill="#fff"/>
        </g>
      </g>
      <path id="Tracé_1487" data-name="Tracé 1487" d="M296.306,114.579a2.42,2.42,0,1,1-2.42-2.419A2.419,2.419,0,0,1,296.306,114.579Z" fill="#00afff"/>
      <path id="Tracé_1488" data-name="Tracé 1488" d="M386.148,149.645a2.419,2.419,0,1,1-2.419-2.419A2.42,2.42,0,0,1,386.148,149.645Z" transform="translate(10.819 4.223)" fill="#fff"/>
      <path id="Tracé_1489" data-name="Tracé 1489" d="M307.882,134.765a6.559,6.559,0,1,1-6.56-6.56A6.56,6.56,0,0,1,307.882,134.765Z" transform="translate(0.397 1.932)" fill="#51bdff"/>
      <path id="Tracé_1490" data-name="Tracé 1490" d="M379.161,204.23a4.45,4.45,0,1,1-4.45-4.45A4.452,4.452,0,0,1,379.161,204.23Z" transform="translate(9.488 10.551)" fill="#fff"/>
    </g>
  </g>
</svg>
