<svg xmlns="http://www.w3.org/2000/svg" width="349.785" height="103.29" viewBox="0 0 349.785 103.29">
  <g id="yes-perso" transform="translate(-795.395 -306)">
    <g id="bullets_bg" data-name="bullets bg" transform="translate(727.442 306)">
      <path id="Tracé_1644" data-name="Tracé 1644" d="M171.045,38.414a4.956,4.956,0,1,1-4.956-4.956A4.956,4.956,0,0,1,171.045,38.414Z" transform="translate(-82.355 -30.132)" fill="#00afff"/>
      <g id="Groupe_1867" data-name="Groupe 1867" transform="translate(104.061 52.362)" opacity="0.5">
        <path id="Tracé_1645" data-name="Tracé 1645" d="M92.558,49.148a1.921,1.921,0,1,1-1.921-1.921A1.921,1.921,0,0,1,92.558,49.148Z" transform="translate(-88.715 -47.227)" fill="#4d4085"/>
      </g>
      <path id="Tracé_1647" data-name="Tracé 1647" d="M211.456,31.357a1.828,1.828,0,1,1-1.828-1.828A1.828,1.828,0,0,1,211.456,31.357Z" transform="translate(-89.517 -29.529)" fill="#00afff"/>
      <path id="Tracé_1648" data-name="Tracé 1648" d="M108.834,124.962a1.828,1.828,0,1,1-1.829-1.828A1.828,1.828,0,0,1,108.834,124.962Z" transform="translate(-27.216 -43.894)" fill="#00afff"/>
      <path id="Tracé_1649" data-name="Tracé 1649" d="M295.123,113.988a1.828,1.828,0,1,1-1.829-1.828A1.828,1.828,0,0,1,295.123,113.988Z" transform="translate(-130.305 -49.175)" fill="#00afff"/>
      <path id="Tracé_1650" data-name="Tracé 1650" d="M274.571,35.936a1.828,1.828,0,1,1-1.828-1.828A1.828,1.828,0,0,1,274.571,35.936Z" transform="translate(-99.202 -30.232)" fill="#00afff"/>
      <path id="Tracé_1651" data-name="Tracé 1651" d="M384.965,149.054a1.828,1.828,0,1,1-1.828-1.828A1.828,1.828,0,0,1,384.965,149.054Z" transform="translate(-116.144 -47.591)" fill="#fff"/>
      <ellipse id="Ellipse_19" data-name="Ellipse 19" cx="3.656" cy="3.656" rx="3.656" ry="3.656" transform="translate(104.248 28.733)" fill="#e52c65"/>
      <path id="Tracé_1653" data-name="Tracé 1653" d="M232.915,41.18a4.956,4.956,0,1,1-4.956-4.956A4.957,4.957,0,0,1,232.915,41.18Z" transform="translate(-91.849 -30.556)" fill="#e52c65"/>
      <path id="Tracé_1654" data-name="Tracé 1654" d="M300.231,130.939a2.734,2.734,0,1,1-2.734-2.734A2.734,2.734,0,0,1,300.231,130.939Z" transform="translate(-226.811 -70.638)" fill="#00afff"/>
      <path id="Tracé_1655" data-name="Tracé 1655" d="M142.164,136.929a3.544,3.544,0,1,1-3.544-3.544A3.544,3.544,0,0,1,142.164,136.929Z" transform="translate(8.196 -95.467)" fill="#3a337e"/>
      <g id="Groupe_1868" data-name="Groupe 1868" transform="translate(277.013 35.871)" opacity="0.5">
        <path id="Tracé_1656" data-name="Tracé 1656" d="M402.029,75.265a3.362,3.362,0,1,1-3.362-3.362A3.362,3.362,0,0,1,402.029,75.265Z" transform="translate(-395.304 -71.903)" fill="#4d4085"/>
      </g>
    </g>
    <g id="bullets_bg-2" data-name="bullets bg" transform="translate(929.395 306)">
      <path id="Tracé_1644-2" data-name="Tracé 1644" d="M161.132,38.414a4.956,4.956,0,1,0,4.956-4.956A4.956,4.956,0,0,0,161.132,38.414Z" transform="translate(33.916 -30.132)" fill="#00afff"/>
      <g id="Groupe_1867-2" data-name="Groupe 1867" transform="translate(175.834 52.362)" opacity="0.5">
        <path id="Tracé_1645-2" data-name="Tracé 1645" d="M88.715,49.148a1.921,1.921,0,1,0,1.921-1.921A1.921,1.921,0,0,0,88.715,49.148Z" transform="translate(-88.715 -47.227)" fill="#4d4085"/>
      </g>
      <path id="Tracé_1647-2" data-name="Tracé 1647" d="M207.8,31.357a1.828,1.828,0,1,0,1.828-1.828A1.828,1.828,0,0,0,207.8,31.357Z" transform="translate(-46.003 -29.529)" fill="#00afff"/>
      <path id="Tracé_1648-2" data-name="Tracé 1648" d="M105.178,124.962a1.828,1.828,0,1,0,1.829-1.828A1.828,1.828,0,0,0,105.178,124.962Z" transform="translate(96.941 -43.894)" fill="#00afff"/>
      <path id="Tracé_1649-2" data-name="Tracé 1649" d="M291.467,113.988a1.828,1.828,0,1,0,1.829-1.828A1.828,1.828,0,0,0,291.467,113.988Z" transform="translate(-172.548 -49.175)" fill="#00afff"/>
      <path id="Tracé_1650-2" data-name="Tracé 1650" d="M270.915,35.936a1.828,1.828,0,1,0,1.828-1.828A1.828,1.828,0,0,0,270.915,35.936Z" transform="translate(-162.546 -30.232)" fill="#00afff"/>
      <path id="Tracé_1651-2" data-name="Tracé 1651" d="M381.31,149.054a1.828,1.828,0,1,0,1.828-1.828A1.828,1.828,0,0,0,381.31,149.054Z" transform="translate(-366.394 -47.591)" fill="#fff"/>
      <ellipse id="Ellipse_19-2" data-name="Ellipse 19" cx="3.656" cy="3.656" rx="3.656" ry="3.656" transform="translate(172.179 28.733)" fill="#e52c65"/>
      <path id="Tracé_1653-2" data-name="Tracé 1653" d="M223,41.18a4.956,4.956,0,1,0,4.956-4.956A4.957,4.957,0,0,0,223,41.18Z" transform="translate(-80.33 -30.556)" fill="#e52c65"/>
      <path id="Tracé_1654-2" data-name="Tracé 1654" d="M294.763,130.939a2.734,2.734,0,1,0,2.734-2.734A2.734,2.734,0,0,0,294.763,130.939Z" transform="translate(-84.446 -70.638)" fill="#00afff"/>
      <path id="Tracé_1655-2" data-name="Tracé 1655" d="M135.075,136.929a3.544,3.544,0,1,0,3.544-3.544A3.544,3.544,0,0,0,135.075,136.929Z" transform="translate(-1.698 -95.467)" fill="#3a337e"/>
      <g id="Groupe_1868-2" data-name="Groupe 1868" transform="translate(0 35.871)" opacity="0.5">
        <path id="Tracé_1656-2" data-name="Tracé 1656" d="M395.3,75.265a3.362,3.362,0,1,0,3.362-3.362A3.362,3.362,0,0,0,395.3,75.265Z" transform="translate(-395.304 -71.903)" fill="#4d4085"/>
      </g>
    </g>
    <g id="personnage" transform="translate(775.004 56.743)">
      <g id="Groupe_1881" data-name="Groupe 1881" transform="translate(184.157 261.931)">
        <path id="Tracé_1493" data-name="Tracé 1493" d="M305.356,281.422a1.127,1.127,0,0,0-.254-1.892,1.1,1.1,0,0,0-.976-1.87,5.653,5.653,0,0,0-4.18-1.49,1.543,1.543,0,0,0-1.507-.778,1.048,1.048,0,0,0-.918.952,1.119,1.119,0,0,0-1.176.224,1.968,1.968,0,0,0-.466,1.8.919.919,0,0,0-1.21.406,1.676,1.676,0,0,0,.34,1.88,1.111,1.111,0,0,0-1.046.94c-.017.574.416.808.891,1.186-.132.331-.352.547-.23.966a1.229,1.229,0,0,0,.955.785c-.123.807.824,1.04,1.332.488a7.494,7.494,0,0,0,1.819.267c.509.013,1.01-.094,1.514-.091a11.886,11.886,0,0,1,1.958.4,1.358,1.358,0,0,0,1.652-.839,1.132,1.132,0,0,0,1.259-1.7c.336-.122.742-.2.858-.608C306.153,281.811,305.624,281.581,305.356,281.422Z" transform="translate(-293.962 -275.37)" fill="#442a69"/>
      </g>
      <g id="Groupe_1882" data-name="Groupe 1882" transform="translate(185.764 266.853)">
        <path id="Tracé_1448" data-name="Tracé 1448" d="M95.206,306.916s.007,1.176-.049,1.787a1.988,1.988,0,0,0,1.735,1.041c.535.067,1.974-.126,2.043-1.041-.051-.952-.069-1.958-.069-1.958Z" transform="translate(-93.01 -298.428)" fill="#f97b6e"/>
        <path id="Tracé_1449" data-name="Tracé 1449" d="M101.5,302.317c-.211-.641-.708-.465-.708-.465s-.041.1-.1.233c-.172-2.387-1.7-4.255-3.564-4.255-1.792,0-3.273,1.731-3.536,3.988-.157-.034-.443-.025-.652.394a1.248,1.248,0,0,0,.741,1.585c.421,1.984,1.8,3.44,3.448,3.44s3.038-1.469,3.452-3.466A1.264,1.264,0,0,0,101.5,302.317Z" transform="translate(-92.856 -297.831)" fill="#ffa194"/>
      </g>
      <path id="Tracé_1675" data-name="Tracé 1675" d="M100.6,297.876c-1.2-1.979-5.394-2.1-6.612-.146-.629,1.006-.546,3.975-.546,3.975l.546.729a13.149,13.149,0,0,1,.675-2.462c.246-.453,1.322-.17,2.542-.116,1.08.048,2.315-.181,2.561.174a8.658,8.658,0,0,1,.655,2.4l.546-.729S101.006,298.546,100.6,297.876Z" transform="translate(92.869 -30.877)" fill="#442a69"/>
      <g id="Groupe_1807" data-name="Groupe 1807" transform="translate(153 249.257)">
        <g id="Groupe_1806" data-name="Groupe 1806" transform="translate(21.286 5.106)">
          <path id="Tracé_1491" data-name="Tracé 1491" d="M293.867,290.638a22.169,22.169,0,0,0-2.3-3.837c-1.171-1.523-3.224-4.611-3.224-4.611a28.777,28.777,0,0,0,1.54-5.947c.257-2.568.172-3.167.514-3.509s1.095.257,2.025-.428,2.166-1.257.913-2.5c-.884-.874-1.312-2.38-2.625-2.34-1.072.033-2.168,1.6-2.51,2.8s-2.351,7.513-2.853,9.172c-.655,2.161-1.427,2.682-.676,4.565a64.525,64.525,0,0,0,4.1,8.014C290.143,294.047,293.867,290.638,293.867,290.638Z" transform="translate(-284.366 -267.469)" fill="#ffa194"/>
          <path id="Tracé_1492" data-name="Tracé 1492" d="M307.209,290.638a22.162,22.162,0,0,1,2.3-3.837c1.171-1.523,3.224-4.611,3.224-4.611a28.816,28.816,0,0,1-1.541-5.947c-.256-2.568-.171-3.167-.513-3.509s-1.095.257-2.025-.428-2.166-1.257-.913-2.5c.884-.874,1.312-2.38,2.625-2.34,1.071.033,2.168,1.6,2.51,2.8s2.351,7.513,2.853,9.172c.655,2.161,1.427,2.682.676,4.565a64.53,64.53,0,0,1-4.1,8.014C310.933,294.047,307.209,290.638,307.209,290.638Z" transform="translate(-285.851 -267.469)" fill="#ffa194"/>
          <path id="Tracé_1494" data-name="Tracé 1494" d="M294.242,327.914s-.347,1.469-.931,3.625c-.321,1.185.224,3.938.4,10.214.126,4.538.182,9.2.182,9.2l2.827,1.689s.3-2.444.795-5.127a77.007,77.007,0,0,0,1.437-8.274c.04-3.261-.558-4.293-.171-5.8a24.285,24.285,0,0,0,.93-5.281Z" transform="translate(-284.941 -271.399)" fill="#ffa194"/>
          <path id="Tracé_1495" data-name="Tracé 1495" d="M308.254,327.914s.347,1.469.931,3.625c.321,1.185-.224,3.938-.4,10.214-.126,4.538-.182,9.2-.182,9.2l-2.065,1.689a39.538,39.538,0,0,1-1.681-5.788,64.852,64.852,0,0,1-1.312-7.613c-.04-3.261.558-4.293.171-5.8a24.284,24.284,0,0,1-.93-5.281Z" transform="translate(-285.563 -271.399)" fill="#ffa194"/>
          <path id="Tracé_1496" data-name="Tracé 1496" d="M309.16,331.4c-.452-3.416-1.077-7.869-1.837-11.431a9.077,9.077,0,0,1-1.954-.627h-9.727a9.187,9.187,0,0,1-2.021.642c-.5,3.338-.929,7.465-1.229,11.7,2.223,1.614,5.09,1.29,7.309.5.484-3.7.989-8.914.989-8.914a76.326,76.326,0,0,0,1.236,8.835C303.738,333.472,308.175,332.531,309.16,331.4Z" transform="translate(-284.887 -270.842)" fill="#51bdff"/>
          <g id="Groupe_1802" data-name="Groupe 1802" transform="translate(3.267 19.745)">
            <path id="Tracé_1497" data-name="Tracé 1497" d="M301.254,311.625a63.936,63.936,0,0,1-8.744-.653l-.772,8.039a24.657,24.657,0,0,0,8.85,1.34,45.141,45.141,0,0,0,8.894-.861l-1.371-8.4A55.86,55.86,0,0,1,301.254,311.625Z" transform="translate(-288.112 -290.042)" fill="#00afff"/>
            <path id="Tracé_1498" data-name="Tracé 1498" d="M306.734,300.437c.7-2.052,3.7-5.142,4.941-6.885a22.568,22.568,0,0,1-4.907-4.965c-.82.741-1.064,1.579-2.4,2.531a9.192,9.192,0,0,0-2.322.5s-.333,1.013-1.9,1.013a2.125,2.125,0,0,1-1.888-1.013,22.632,22.632,0,0,0-3.1-.453c-1.353-.966-1.6-1.81-2.4-2.531a22.538,22.538,0,0,1-4.907,4.964c1.427,2,5.038,5.809,5.141,7.691a42.246,42.246,0,0,0,7.618.74c1.044,0,3.92-.231,5.921-.4A5.965,5.965,0,0,1,306.734,300.437Z" transform="translate(-287.86 -288.587)" fill="#00afff"/>
            <path id="Tracé_1499" data-name="Tracé 1499" d="M308.164,310.518l-1.317-8.06c-2,.173-4.877.4-5.921.4a42.162,42.162,0,0,1-7.618-.74,4.07,4.07,0,0,1,0,.574l-.739,7.7a63.937,63.937,0,0,0,8.744.653A55.848,55.848,0,0,0,308.164,310.518Z" transform="translate(-288.166 -289.467)" fill="#51bdff"/>
          </g>
          <g id="Groupe_1804" data-name="Groupe 1804" transform="translate(19.963 77.673)">
            <path id="Tracé_1503" data-name="Tracé 1503" d="M309.134,350.8s-1.686-1.113-2.026,1.3c-.045.318-1.041.748-1.041.748s-.7,1.687-.119,2.225a22.292,22.292,0,0,0,2.7,1.963c1.025.653,1.118,2.424,3.576,1.448,1.145-.453,1.144-1.753.078-2.695C310.747,354.411,309.134,350.8,309.134,350.8Z" transform="translate(-305.716 -350.543)" fill="#4d4085"/>
            <path id="Tracé_1504" data-name="Tracé 1504" d="M313.053,357.7s-.284-.3-.889.138c-.669.489-.244,1.116-1.492.806s-1.228-.771-2.048-1.474a19.5,19.5,0,0,0-2.826-2.01l.2.7s1.569,1.195,2.3,1.842,1.108,1.37,2.271,1.448a2.212,2.212,0,0,0,2.219-.744A.813.813,0,0,0,313.053,357.7Z" transform="translate(-305.722 -350.843)" fill="#442a69"/>
            <path id="Tracé_1505" data-name="Tracé 1505" d="M310.24,352.868l.289.509a8.1,8.1,0,0,0-1.323.367c-.769.278-1.269.744-1.352.344s.472-.678.916-.872A8.262,8.262,0,0,1,310.24,352.868Z" transform="translate(-305.855 -350.694)" fill="#fff"/>
            <path id="Tracé_1506" data-name="Tracé 1506" d="M311.122,354.318s-.8.158-1.389.324-.9.583-.76.833.562-.18,1.029-.374a7.23,7.23,0,0,1,1.449-.3Z" transform="translate(-305.926 -350.789)" fill="#fff"/>
            <path id="Tracé_1507" data-name="Tracé 1507" d="M310.083,357.714a17.946,17.946,0,0,0-2.069-2.416,4.112,4.112,0,0,0-1.756-.722s1.144.831,1.707,1.333A14.155,14.155,0,0,0,310.083,357.714Z" transform="translate(-305.751 -350.805)" fill="#442a69"/>
          </g>
          <g id="Groupe_1805" data-name="Groupe 1805" transform="translate(4.97 77.673)">
            <path id="Tracé_1508" data-name="Tracé 1508" d="M293.641,350.8s1.686-1.113,2.026,1.3c.045.318,1.041.748,1.041.748s.7,1.687.119,2.225a22.294,22.294,0,0,1-2.7,1.963c-1.025.653-1.118,2.424-3.577,1.448-1.144-.453-1.143-1.753-.077-2.695C292.028,354.411,293.641,350.8,293.641,350.8Z" transform="translate(-289.681 -350.543)" fill="#4d4085"/>
            <path id="Tracé_1509" data-name="Tracé 1509" d="M289.73,357.7s.284-.3.889.138c.669.489.244,1.116,1.492.806s1.228-.771,2.048-1.474a19.5,19.5,0,0,1,2.826-2.01l-.2.7s-1.569,1.195-2.3,1.842-1.108,1.37-2.271,1.448a2.212,2.212,0,0,1-2.219-.744A.813.813,0,0,1,289.73,357.7Z" transform="translate(-289.684 -350.843)" fill="#442a69"/>
            <path id="Tracé_1510" data-name="Tracé 1510" d="M292.862,352.868l-.289.509a8.1,8.1,0,0,1,1.323.367c.769.278,1.269.744,1.352.344s-.472-.678-.916-.872A8.262,8.262,0,0,0,292.862,352.868Z" transform="translate(-289.869 -350.694)" fill="#fff"/>
            <path id="Tracé_1511" data-name="Tracé 1511" d="M291.991,354.318s.8.158,1.389.324.9.583.76.833-.562-.18-1.029-.374a7.23,7.23,0,0,0-1.449-.3Z" transform="translate(-289.81 -350.789)" fill="#fff"/>
            <path id="Tracé_1512" data-name="Tracé 1512" d="M292.939,357.714a17.947,17.947,0,0,1,2.069-2.416,4.113,4.113,0,0,1,1.756-.722s-1.143.831-1.707,1.333A14.154,14.154,0,0,1,292.939,357.714Z" transform="translate(-289.893 -350.805)" fill="#442a69"/>
          </g>
        </g>
        <path id="Tracé_1514" data-name="Tracé 1514" d="M272.548,278.036a5.474,5.474,0,1,1-5.474-5.473A5.474,5.474,0,0,1,272.548,278.036Z" transform="translate(-261.599 -262.694)" fill="#51bdff"/>
        <path id="Tracé_1562" data-name="Tracé 1562" d="M264.442,273.984a1.422,1.422,0,1,1-1.422-1.421A1.422,1.422,0,0,1,264.442,273.984Z" transform="translate(-258.968 -206.564)" fill="#fff"/>
        <path id="Tracé_1515" data-name="Tracé 1515" d="M328.591,315.155a5.474,5.474,0,1,1-5.474-5.474A5.474,5.474,0,0,1,328.591,315.155Z" transform="translate(-265.243 -265.108)" fill="#e52c65"/>
        <path id="Tracé_1516" data-name="Tracé 1516" d="M325.714,264.027a2.019,2.019,0,1,1-2.019-2.019A2.019,2.019,0,0,1,325.714,264.027Z" transform="translate(-265.505 -262.008)" fill="#dff3ff"/>
      </g>
    </g>
  </g>
</svg>
