<svg xmlns="http://www.w3.org/2000/svg" width="101.434" height="82.571" viewBox="0 0 101.434 82.571">
  <g id="personnage" transform="translate(-143 -465.559)">
    <g id="Groupe_1897" data-name="Groupe 1897" transform="translate(70.617 247.594)">
      <g id="Groupe_1889" data-name="Groupe 1889" transform="translate(143.348 284.032)">
        <g id="Groupe_1887" data-name="Groupe 1887" transform="translate(0 0)">
          <path id="Tracé_1680" data-name="Tracé 1680" d="M354.255,315.9h-23.5l-3.224-3.486h21.512Z" transform="translate(-327.535 -312.413)" fill="#bbe0fb"/>
          <rect id="Rectangle_127" data-name="Rectangle 127" width="23.496" height="10.331" transform="translate(3.224 3.486)" fill="#91cefa"/>
          <path id="Tracé_1681" data-name="Tracé 1681" d="M327.535,312.413v9.3l3.227,4.51,0-10.328Z" transform="translate(-327.535 -312.413)" fill="#5773bc"/>
        </g>
        <g id="Groupe_1888" data-name="Groupe 1888" transform="translate(11.786 5.124)">
          <path id="Tracé_1682" data-name="Tracé 1682" d="M375.5,335.06v.118l-.007.126-.022.118-.037.163-.037.111-.022.044-.089.156-.081.1-.037.044-.082.089-.074.074-.081.067-.178.133-.1.052-.148.059-.1.037-.156.052-.1.03-.163.044-.119.03-.126.022-.126.015-.163.007h-.118l-.422-.015-.252-.015-.126-.015-.111-.022-.118-.022-.171-.044-.111-.037-.111-.045-.111-.052-.156-.089-.1-.059-.208-.171-.119-.118-.074-.089-.067-.111-.059-.1-.059-.156-.037-.1-.059-.148-.022-.1-.037-.171.015-.081.067-.052.118-.022.252-.015.252.015h.119l.341-.03h.178l.1.022.059.052.044.1.015.067.059.111.044.045.089.081.044.03.111.052.052.03.126.037.126.03.126.015h.118l.185-.022.118-.037.067-.022.1-.067.044-.037.074-.081.037-.044.037-.1.015-.059v-.111l-.015-.059-.037-.111-.03-.044-.074-.089-.133-.089-.044-.022-.1-.044-.118-.022-.126-.015-.126-.007h-.185l-.237.015-.163.008h-.163l-.089-.03-.052-.059-.022-.089-.015-.111-.008-.1.008-.1v-.111l-.008-.163.008-.133.022-.1.03-.052.044-.022.252-.022.118.007.23.022.111.007.052.007.111-.007.163-.022.126-.03.059-.022.118-.052.052-.037.082-.082.037-.044.045-.111.007-.074-.007-.074-.052-.111-.037-.059-.118-.118-.1-.044-.111-.022-.1-.015-.171-.007-.111.007-.185.015-.111.022-.059.022-.1.045-.052.037-.089.074-.029.045-.052.1-.037.089-.067.044-.1.022h-.185l-.311-.015L371.57,333l-.223.015-.111-.007-.163-.007-.089-.022-.037-.022-.022-.045v-.081l.022-.163.022-.111.074-.207.052-.148.052-.1.066-.111.082-.1.1-.089.1-.082.111-.067.111-.074.111-.066.111-.059.118-.052.126-.044.126-.03.126-.022.126-.015.252-.044.133-.015.126-.007.118.007.17.007.348.045.171.037.111.022.118.037.111.037.171.059.1.045.1.052.1.067.111.081.1.082.1.1.074.081.029.044.067.1.052.118.044.111.037.1.044.156.022.111.008.126v.126l-.008.052-.022.111-.015.044-.037.1-.1.193-.089.141-.067.081-.126.119-.052.059-.022.059.03.059.17.118.089.074.074.074.074.081.066.089.082.163.037.119.022.126.008.118Z" transform="translate(-370.799 -331.222)" fill="#fff"/>
        </g>
      </g>
      <g id="Groupe_1893" data-name="Groupe 1893" transform="translate(74.383 282.185)">
        <g id="Groupe_1891" data-name="Groupe 1891" transform="translate(0 0)">
          <g id="Groupe_1890" data-name="Groupe 1890">
            <rect id="Rectangle_128" data-name="Rectangle 128" width="27.22" height="12.993" transform="translate(27.22 17.082) rotate(-179.922)" fill="#91cefa"/>
            <path id="Tracé_1683" data-name="Tracé 1683" d="M74.448,309.663l27.22.037,3.741-4.034-24.922-.034Z" transform="translate(-74.43 -305.633)" fill="#bbe0fb"/>
          </g>
          <path id="Tracé_1684" data-name="Tracé 1684" d="M178.052,305.758l-.016,11.825-3.745,5.22.021-13.011Z" transform="translate(-147.073 -305.724)" fill="#5773bc"/>
        </g>
        <g id="Groupe_1892" data-name="Groupe 1892" transform="translate(10.305 7.203)">
          <path id="Tracé_1685" data-name="Tracé 1685" d="M113.87,336.857l.009.043.086.017.121.009.329-.009h.7l.441.009h.138l1.012-.017.138-.008.286-.026h.147l.113.026.052.078.017.121.009.13.009.138v.355l.017.216-.009.139-.008.121-.017.087-.035.052-.052.026-.277.043-.121.009-.19-.009-.13-.008-.632-.035h-.484l-.761.043h-1.255l-.631-.008-.484-.017-.1-.008-.06-.035-.017-.052-.009-.1.017-.519v-.138l-.026-.528.009-.138.026-.26.052-.26.026-.138.043-.147.043-.138.026-.069.06-.138.069-.113.147-.156.1-.086.156-.121.1-.069.173-.113.113-.06.182-.087.13-.043.217-.069.147-.034.147-.026.138-.017.441-.026.078-.008.156-.009.216-.009.156-.035.069-.035.13-.078.061-.06.078-.113.052-.182v-.19l-.017-.069-.043-.139-.035-.06-.087-.1-.113-.052-.19-.052-.121-.017-.13-.009h-.13l-.121.009-.121.026-.182.06-.113.061-.052.034-.087.1-.043.052-.06.13-.043.121-.078.052-.13.035h-.078l-.147.008-.363-.017H112.9l-.147-.009-.225-.026-.113-.017-.06-.035-.026-.043v-.147l.017-.13.017-.078.026-.139.017-.06.043-.13.087-.165.069-.121.078-.113.1-.113.1-.1.1-.087.164-.112.121-.069.259-.138.147-.06.138-.043.19-.043.138-.026.13-.026.121-.017.19-.008.138-.009h.286l.2-.009h.138l.13.009.13.026.182.043.13.044.277.086.13.043.13.052.182.086.121.069.113.1.112.112.1.113.086.113.113.156.061.121.06.13.043.13.043.121.026.13.026.208v.13l-.009.19-.017.121-.043.2-.035.13-.052.147-.06.13-.1.165-.078.113-.113.147-.1.1-.139.13-.112.069-.182.1-.13.052-.147.043-.138.043-.147.026-.138.026-.2.017-.138.017-.147.026-.138.026-.208.017-.147.009h-.069l-.156.009h-.069l-.147.026-.069.026-.13.06-.052.043-.1.1-.069.1-.052.121-.017.069-.026.113Z" transform="translate(-112.209 -332.073)" fill="#fff"/>
        </g>
      </g>
      <g id="Groupe_1896" data-name="Groupe 1896" transform="translate(104.33 273.405)">
        <g id="Groupe_1894" data-name="Groupe 1894">
          <path id="Tracé_1686" data-name="Tracé 1686" d="M224.07,278.65h-39.76l5.078-5.245h29.6Z" transform="translate(-184.311 -273.405)" fill="#bbe0fb"/>
          <rect id="Rectangle_129" data-name="Rectangle 129" width="39.76" height="21.885" transform="translate(0 5.245)" fill="#91cefa"/>
        </g>
        <g id="Groupe_1895" data-name="Groupe 1895" transform="translate(16.233 9.612)">
          <path id="Tracé_1687" data-name="Tracé 1687" d="M250.569,319.618v.271l-.048.208-.112.1-.112.08-.112.048h-.463l-.686-.032h-.255l-2.154-.032h-.256l-1.612.064-.527-.032-.175-.048-.064-.048-.032-.1-.016-.159v-.367l.032-.479-.016-.256-.064-.479v-.239l.016-.112.064-.175.175-.032.638.048h.255l.367-.016.192-.032.1-.048.048-.112v-1.133l.016-.255.064-.958v-.239l-.016-.351-.032-.239-.016-.4-.016-.255.032-.415.032-.543v-.176l-.048-.1-.1-.064-.144-.016-.575.192-.239.064-.239.032h-.207l-.144-.064-.064-.112-.048-.16-.016-.127v-.255l.032-.4V311.4l-.032-.494v-.271l.032-.208.064-.1.08-.064.16-.08.144-.048.239-.1.463-.144.223-.08.846-.319.239-.08.846-.271.239-.1.367-.175.271-.112.239-.064.192-.016.16.048.08.112.048.191.032.191-.016.192-.032.622-.016.256v2.489l-.048.973v.256l.064.989-.016.255-.064.973-.016.255.064.99.016.159.048.1.1.064.192.016,1.149.016.1.032.064.144.016.112.016.239-.032.479v.256Z" transform="translate(-243.899 -308.687)" fill="#fff"/>
        </g>
      </g>
    </g>
    <g id="Groupe_1899" data-name="Groupe 1899" transform="translate(94.148 397.023)">
      <path id="Tracé_1688" data-name="Tracé 1688" d="M328.213,148.611a4.7,4.7,0,0,0,.986,1.378L330.7,148.9a2.074,2.074,0,0,1-1.149-1.987l-1.74,1.474" transform="translate(-209.228 -58.454)" fill="#f20066"/>
      <g id="Groupe_1898" data-name="Groupe 1898" transform="translate(48.852 68.977)">
        <path id="Tracé_1689" data-name="Tracé 1689" d="M96.128,240.554a2.01,2.01,0,0,1-1.4,2.686l1.015,1.578a3.877,3.877,0,0,0,2.354-3.533,2.586,2.586,0,0,1-1.509-.485" transform="translate(-83.26 -197.663)" fill="#53b6f2"/>
        <path id="Tracé_1690" data-name="Tracé 1690" d="M137.908,208.562a1.738,1.738,0,0,1-1.78,1.325.782.782,0,0,1,.163.749,4.286,4.286,0,0,0,1.665-.133,1.859,1.859,0,0,0,1.2-1.09l-1.384-.609" transform="translate(-114.311 -173.668)" fill="#e6e9ed"/>
        <path id="Tracé_1691" data-name="Tracé 1691" d="M74.772,191.029a3.631,3.631,0,0,1,.031,2.127,1.359,1.359,0,0,0,1.223.351,7.906,7.906,0,0,0,.588-1.949,2.518,2.518,0,0,1-1.551-.313" transform="translate(-68.292 -160.518)" fill="#ffc30c"/>
        <path id="Tracé_1692" data-name="Tracé 1692" d="M169.1,155.947a4.15,4.15,0,0,1,1.237,1.995.839.839,0,0,0,.967-.734,1.672,1.672,0,0,0-.459-1.255,3.483,3.483,0,0,0-.789-.7,1.388,1.388,0,0,1-.933.913" transform="translate(-139.037 -133.686)" fill="#e6e9ed"/>
        <path id="Tracé_1693" data-name="Tracé 1693" d="M110.828,143.872a3.358,3.358,0,0,1,.36,1.483,1.151,1.151,0,0,1-.894,1.1l1.043.476a2,2,0,0,0,1.074-1.349c.065-.592-.585-1.227-1.106-.939" transform="translate(-94.935 -125.15)" fill="#f20066"/>
        <path id="Tracé_1694" data-name="Tracé 1694" d="M48.87,232.85a3.007,3.007,0,0,1,.629,1.7,2.6,2.6,0,0,0,1.044-.109.885.885,0,0,0,.6-.79.953.953,0,0,0-.244-.557,1.809,1.809,0,0,0-2.048-.5" transform="translate(-48.852 -191.596)" fill="#ffc30c"/>
        <path id="Tracé_1695" data-name="Tracé 1695" d="M58.168,135.785a1.237,1.237,0,0,1,.19.883c.232.165.578-.03.673-.3a1.4,1.4,0,0,0-.062-.837l-.947.083" transform="translate(-55.73 -118.895)" fill="#e6e9ed"/>
        <path id="Tracé_1696" data-name="Tracé 1696" d="M143.813,252.586a1.716,1.716,0,0,1,.016,2.086,5.793,5.793,0,0,1,1.863.282l.338-1.283a.323.323,0,0,0-.255-.484l-1.829-.6" transform="translate(-120.075 -206.685)" fill="#e6e9ed"/>
        <path id="Tracé_1697" data-name="Tracé 1697" d="M234.343,142.15a4.381,4.381,0,0,1,.5,1.392c.049.278-.128.7-.368.554.344-.17.712.248,1.1.23.468-.022.645-.643.559-1.1a2.5,2.5,0,0,1-.125-1.376l-1.289.111" transform="translate(-187.974 -123.63)" fill="#de5549"/>
        <path id="Tracé_1698" data-name="Tracé 1698" d="M188.1,98.94a2.919,2.919,0,0,1,.7,1.881l.908-.117a1.37,1.37,0,0,0-.15-1.542.976.976,0,0,0-1.445.046" transform="translate(-153.289 -91.394)" fill="#e6e9ed"/>
        <path id="Tracé_1699" data-name="Tracé 1699" d="M123.7,103.165a1.712,1.712,0,0,1,.968,1.375l1.022-.425a2.729,2.729,0,0,0-1.109-1.724l-.754.514" transform="translate(-104.989 -94.038)" fill="#f20066"/>
        <path id="Tracé_1700" data-name="Tracé 1700" d="M89.979,84.256a3.658,3.658,0,0,1,1.165,1.62,4.584,4.584,0,0,0,1.068-.651,18,18,0,0,1-1.36-1.667,7.805,7.805,0,0,0-1.156.657" transform="translate(-79.485 -79.913)" fill="#ffc30c"/>
        <path id="Tracé_1701" data-name="Tracé 1701" d="M259.192,156.748a2.546,2.546,0,0,1,.568,1.78l1.311-.363q-.112-.893-.224-1.786l-1.457.647" transform="translate(-206.611 -134.529)" fill="#e6e9ed"/>
        <path id="Tracé_1702" data-name="Tracé 1702" d="M197.816,248.639a1.279,1.279,0,0,1-.782,1.66,3.2,3.2,0,0,1,1.1.516l1.076-1.8-1.216-.027" transform="translate(-159.991 -203.727)" fill="#f20066"/>
        <path id="Tracé_1703" data-name="Tracé 1703" d="M239.112,93.539a1.468,1.468,0,0,1-.925,1.68.68.68,0,0,0,.437.735,1.236,1.236,0,0,0,.907-.049,1.582,1.582,0,0,0,1.05-1.391,1.04,1.04,0,0,0-1.235-1.009" transform="translate(-190.847 -87.347)" fill="#ffc30c"/>
        <path id="Tracé_1704" data-name="Tracé 1704" d="M301.4,123.009a2.575,2.575,0,0,1,1.483,2.356,5.487,5.487,0,0,0,1.5-.587,6.929,6.929,0,0,0-1.118-2.668,2.808,2.808,0,0,1-1.909.76" transform="translate(-238.237 -108.827)" fill="#e6e9ed"/>
        <path id="Tracé_1705" data-name="Tracé 1705" d="M330.293,211.683a1.477,1.477,0,1,0,1.885,2.274,2,2,0,0,1-.617-1.871l-1.649-.3" transform="translate(-259.543 -176.009)" fill="#ffc30c"/>
        <path id="Tracé_1706" data-name="Tracé 1706" d="M333.284,254.521a2.352,2.352,0,0,1-.182,2.8l1.868.143a11.648,11.648,0,0,0,0-1.936c-.023-.271-.092-.591-.345-.691-.431-.171-1.093.409-1.288-.012" transform="translate(-262.044 -208.138)" fill="#f20066"/>
        <path id="Tracé_1707" data-name="Tracé 1707" d="M365.518,182.14a3.911,3.911,0,0,0-.073,2.85l1.633-.379a2.079,2.079,0,0,1,.271-2.739,3.436,3.436,0,0,1-2.1.6" transform="translate(-286.128 -153.65)" fill="#e6e9ed"/>
        <path id="Tracé_1708" data-name="Tracé 1708" d="M369.479,129.26a1.27,1.27,0,0,0,2.041,1.4,2.878,2.878,0,0,1-.507-2.714,2.029,2.029,0,0,1-1.459.951" transform="translate(-289.266 -113.206)" fill="#ffc30c"/>
        <path id="Tracé_1709" data-name="Tracé 1709" d="M288.275,69.974a3.139,3.139,0,0,1,1.674,2.253c.7.2,1.37-.547,1.385-1.271a3.594,3.594,0,0,0-.808-1.979q-1.445.637-2.849,1.361" transform="translate(-227.975 -68.977)" fill="#f20066"/>
        <path id="Tracé_1710" data-name="Tracé 1710" d="M374.854,219.6a2,2,0,0,1,1.323,1.49,1.111,1.111,0,0,0,.482-2.127,1.909,1.909,0,0,0-1.965.621" transform="translate(-293.24 -181.395)" fill="#f20066"/>
        <path id="Tracé_1711" data-name="Tracé 1711" d="M405.745,170.751a1.883,1.883,0,0,1,1.507,1.139,8.2,8.2,0,0,0,.473-1.855l-1.645-.887a1.992,1.992,0,0,1-.655,1.83" transform="translate(-316.289 -144.107)" fill="#ffc30c"/>
        <path id="Tracé_1712" data-name="Tracé 1712" d="M378.13,95.343a7.044,7.044,0,0,0-.124,2.319l1.631,0a2.708,2.708,0,0,1,.77-2.439l-2.277.567" transform="translate(-295.691 -88.66)" fill="#ffc30c"/>
        <path id="Tracé_1713" data-name="Tracé 1713" d="M407.764,228.383a2.75,2.75,0,0,1-.722,1.7.638.638,0,0,1,.79.279,2.568,2.568,0,0,0,1.093-1.624,2.384,2.384,0,0,1-.992-.134" transform="translate(-317.501 -188.535)" fill="#f20066"/>
        <path id="Tracé_1714" data-name="Tracé 1714" d="M419.122,124.13a2.37,2.37,0,0,0,1.9,2.166,1.031,1.031,0,0,1,.434-1.191,2.023,2.023,0,0,1-.7-1.954,11.45,11.45,0,0,1-2.073.969" transform="translate(-326.231 -109.609)" fill="#ffc30c"/>
        <path id="Tracé_1715" data-name="Tracé 1715" d="M444.138,193.028a2.655,2.655,0,0,0,.736,2.723.868.868,0,0,0,.417.235c.477.081.945-.5,1.378-.286a3.065,3.065,0,0,1-.161-3.108,2.912,2.912,0,0,1-1.992.489" transform="translate(-345.236 -161.691)" fill="#f20066"/>
        <path id="Tracé_1716" data-name="Tracé 1716" d="M382.093,256.251a2.707,2.707,0,0,0,1.1,2.075,1.436,1.436,0,0,1,1.224-.53,3.36,3.36,0,0,1-.749-1.042,1.144,1.144,0,0,1,.18-1.208,13.057,13.057,0,0,0-1.956.627" transform="translate(-298.635 -208.907)" fill="#e6e9ed"/>
        <path id="Tracé_1717" data-name="Tracé 1717" d="M407.026,281.1a1.461,1.461,0,0,1-.729,1.732,1.1,1.1,0,0,0,1.551-.17.86.86,0,0,0-.62-1.3" transform="translate(-316.942 -228.075)" fill="#e6e9ed"/>
        <path id="Tracé_1718" data-name="Tracé 1718" d="M99.046,280.408a2.208,2.208,0,0,0,.507,1.959,3.166,3.166,0,0,1,1.284-.151l.032-1.756a4.83,4.83,0,0,1-2.179.455" transform="translate(-86.232 -227.554)" fill="#ffc30c"/>
      </g>
    </g>
    <g id="personnage-2" data-name="personnage" transform="translate(16.004 212.885)">
      <g id="Groupe_1881" data-name="Groupe 1881" transform="translate(173.85 257.738)">
        <path id="Tracé_1493" data-name="Tracé 1493" d="M301.587,279.42a.754.754,0,0,0-.17-1.266.737.737,0,0,0-.653-1.251,3.783,3.783,0,0,0-2.8-1,1.033,1.033,0,0,0-1.009-.521.7.7,0,0,0-.614.637.749.749,0,0,0-.787.15,1.317,1.317,0,0,0-.312,1.2.615.615,0,0,0-.81.272,1.121,1.121,0,0,0,.228,1.258.743.743,0,0,0-.7.629c-.011.384.279.541.6.794-.089.222-.236.366-.154.646a.822.822,0,0,0,.639.526c-.082.54.551.7.891.326a5.015,5.015,0,0,0,1.217.179c.341.009.676-.063,1.013-.061a7.953,7.953,0,0,1,1.31.267.909.909,0,0,0,1.106-.561.758.758,0,0,0,.843-1.138c.225-.082.5-.136.574-.407C302.12,279.68,301.766,279.527,301.587,279.42Z" transform="translate(-293.962 -275.37)" fill="#442a69"/>
      </g>
      <g id="Groupe_1882" data-name="Groupe 1882" transform="translate(174.925 261.032)">
        <path id="Tracé_1448" data-name="Tracé 1448" d="M95.189,306.859s.005.787-.032,1.2a1.331,1.331,0,0,0,1.161.7c.358.045,1.321-.084,1.367-.7-.034-.637-.046-1.311-.046-1.311Z" transform="translate(-93.721 -301.179)" fill="#f97b6e"/>
        <path id="Tracé_1449" data-name="Tracé 1449" d="M98.639,300.833c-.141-.429-.474-.311-.474-.311s-.027.065-.064.156c-.115-1.6-1.138-2.847-2.385-2.847A2.714,2.714,0,0,0,93.35,300.5c-.1-.023-.3-.017-.436.263a.835.835,0,0,0,.5,1.061,2.309,2.309,0,1,0,4.617-.017A.846.846,0,0,0,98.639,300.833Z" transform="translate(-92.856 -297.831)" fill="#ffa194"/>
      </g>
      <path id="Tracé_1675" data-name="Tracé 1675" d="M98.23,297.364c-.8-1.324-3.609-1.4-4.425-.1a7.149,7.149,0,0,0-.365,2.66l.365.488a8.8,8.8,0,0,1,.452-1.648c.165-.3.885-.114,1.7-.077.723.032,1.549-.121,1.714.117a5.794,5.794,0,0,1,.438,1.608l.365-.488A9.538,9.538,0,0,0,98.23,297.364Z" transform="translate(81.851 -36.234)" fill="#442a69"/>
      <g id="Groupe_1807" data-name="Groupe 1807" transform="translate(153 249.257)">
        <g id="Groupe_1806" data-name="Groupe 1806" transform="translate(14.245 3.417)">
          <path id="Tracé_1491" data-name="Tracé 1491" d="M290.724,282.973a14.835,14.835,0,0,0-1.537-2.568c-.783-1.019-2.157-3.086-2.157-3.086a19.257,19.257,0,0,0,1.031-3.979c.172-1.718.115-2.119.344-2.348s.733.172,1.355-.287,1.45-.841.611-1.67c-.591-.585-.878-1.592-1.756-1.566-.717.022-1.451,1.069-1.68,1.871s-1.573,5.027-1.909,6.138c-.438,1.446-.955,1.794-.452,3.055a43.177,43.177,0,0,0,2.743,5.363C288.232,285.255,290.724,282.973,290.724,282.973Z" transform="translate(-284.366 -267.469)" fill="#ffa194"/>
          <path id="Tracé_1492" data-name="Tracé 1492" d="M307.208,282.973a14.832,14.832,0,0,1,1.537-2.568c.783-1.019,2.157-3.086,2.157-3.086a19.282,19.282,0,0,1-1.031-3.979c-.171-1.718-.115-2.119-.344-2.348s-.733.172-1.355-.287-1.45-.841-.611-1.67c.591-.585.878-1.592,1.756-1.566.717.022,1.451,1.069,1.68,1.871s1.573,5.027,1.909,6.138c.438,1.446.955,1.794.452,3.055a43.182,43.182,0,0,1-2.743,5.363C309.7,285.255,307.208,282.973,307.208,282.973Z" transform="translate(-292.915 -267.469)" fill="#ffa194"/>
          <path id="Tracé_1494" data-name="Tracé 1494" d="M293.9,327.914s-.232.983-.623,2.426c-.215.793.15,2.635.267,6.835.084,3.037.122,6.158.122,6.158l1.891,1.13s.2-1.636.532-3.431a51.541,51.541,0,0,0,.962-5.537c.027-2.182-.374-2.873-.115-3.881a16.251,16.251,0,0,0,.623-3.534Z" transform="translate(-287.677 -290.095)" fill="#ffa194"/>
          <path id="Tracé_1495" data-name="Tracé 1495" d="M306.445,327.914s.232.983.623,2.426c.215.793-.15,2.635-.267,6.835-.085,3.037-.122,6.158-.122,6.158l-1.382,1.13a26.458,26.458,0,0,1-1.125-3.873,43.4,43.4,0,0,1-.878-5.094c-.027-2.182.374-2.873.114-3.881a16.251,16.251,0,0,1-.623-3.534Z" transform="translate(-291.261 -290.095)" fill="#ffa194"/>
          <path id="Tracé_1496" data-name="Tracé 1496" d="M303.613,327.414c-.3-2.286-.721-5.266-1.229-7.65a6.075,6.075,0,0,1-1.308-.42h-6.509a6.149,6.149,0,0,1-1.353.43c-.333,2.234-.622,5-.822,7.829a5.282,5.282,0,0,0,4.891.332c.324-2.478.662-5.965.662-5.965a51.072,51.072,0,0,0,.827,5.912C299.985,328.8,302.953,328.169,303.613,327.414Z" transform="translate(-287.37 -286.887)" fill="#51bdff"/>
          <g id="Groupe_1802" data-name="Groupe 1802" transform="translate(2.186 13.213)">
            <path id="Tracé_1497" data-name="Tracé 1497" d="M298.106,311.409a42.784,42.784,0,0,1-5.851-.437l-.517,5.38a16.5,16.5,0,0,0,5.922.9,30.207,30.207,0,0,0,5.951-.576l-.917-5.619A37.376,37.376,0,0,1,298.106,311.409Z" transform="translate(-289.312 -296.966)" fill="#00afff"/>
            <path id="Tracé_1498" data-name="Tracé 1498" d="M300.49,296.517c.467-1.373,2.474-3.441,3.307-4.607a15.1,15.1,0,0,1-3.284-3.322c-.549.5-.712,1.057-1.6,1.694a6.151,6.151,0,0,0-1.554.332s-.223.678-1.271.678a1.422,1.422,0,0,1-1.263-.678,15.145,15.145,0,0,0-2.074-.3c-.905-.646-1.07-1.211-1.6-1.694a15.082,15.082,0,0,1-3.284,3.322c.955,1.337,3.371,3.887,3.441,5.147a28.272,28.272,0,0,0,5.1.495c.7,0,2.623-.155,3.962-.27A3.992,3.992,0,0,1,300.49,296.517Z" transform="translate(-287.86 -288.587)" fill="#00afff"/>
            <path id="Tracé_1499" data-name="Tracé 1499" d="M303,307.741l-.882-5.394c-1.339.116-3.264.27-3.962.27a28.215,28.215,0,0,1-5.1-.495,2.725,2.725,0,0,1,0,.384l-.494,5.153a42.781,42.781,0,0,0,5.851.437A37.377,37.377,0,0,0,303,307.741Z" transform="translate(-289.621 -293.654)" fill="#51bdff"/>
          </g>
          <g id="Groupe_1804" data-name="Groupe 1804" transform="translate(13.359 51.978)">
            <path id="Tracé_1503" data-name="Tracé 1503" d="M308,350.715s-1.128-.745-1.356.867c-.03.213-.7.5-.7.5s-.471,1.129-.079,1.489a14.914,14.914,0,0,0,1.807,1.313c.686.437.748,1.622,2.393.969.767-.3.765-1.173.052-1.8A12.734,12.734,0,0,1,308,350.715Z" transform="translate(-305.716 -350.543)" fill="#4d4085"/>
            <path id="Tracé_1504" data-name="Tracé 1504" d="M310.653,356.856s-.19-.2-.6.093c-.448.327-.163.747-1,.539s-.822-.516-1.37-.987a13.048,13.048,0,0,0-1.891-1.345l.136.469s1.05.8,1.54,1.233.741.917,1.52.969a1.481,1.481,0,0,0,1.485-.5A.544.544,0,0,0,310.653,356.856Z" transform="translate(-305.747 -352.27)" fill="#442a69"/>
            <path id="Tracé_1505" data-name="Tracé 1505" d="M309.447,352.868l.193.34a5.419,5.419,0,0,0-.885.245c-.514.186-.849.5-.9.23s.316-.454.613-.584A5.529,5.529,0,0,1,309.447,352.868Z" transform="translate(-306.513 -351.413)" fill="#fff"/>
            <path id="Tracé_1506" data-name="Tracé 1506" d="M310.4,354.318s-.537.106-.93.217-.6.39-.509.557.376-.121.689-.25a4.837,4.837,0,0,1,.97-.2Z" transform="translate(-306.923 -351.956)" fill="#fff"/>
            <path id="Tracé_1507" data-name="Tracé 1507" d="M308.818,356.676a12.008,12.008,0,0,0-1.385-1.617,2.751,2.751,0,0,0-1.175-.483s.765.556,1.142.892A9.474,9.474,0,0,0,308.818,356.676Z" transform="translate(-305.919 -352.053)" fill="#442a69"/>
          </g>
          <g id="Groupe_1805" data-name="Groupe 1805" transform="translate(3.326 51.978)">
            <path id="Tracé_1508" data-name="Tracé 1508" d="M292.331,350.715s1.128-.745,1.356.867c.03.213.7.5.7.5s.471,1.129.079,1.489a14.916,14.916,0,0,1-1.807,1.313c-.686.437-.748,1.622-2.394.969-.766-.3-.765-1.173-.051-1.8A12.734,12.734,0,0,0,292.331,350.715Z" transform="translate(-289.681 -350.543)" fill="#4d4085"/>
            <path id="Tracé_1509" data-name="Tracé 1509" d="M289.727,356.856s.19-.2.6.093c.448.327.163.747,1,.539s.822-.516,1.37-.987a13.049,13.049,0,0,1,1.891-1.345l-.136.469s-1.05.8-1.54,1.233-.741.917-1.52.969a1.48,1.48,0,0,1-1.485-.5A.544.544,0,0,1,289.727,356.856Z" transform="translate(-289.696 -352.27)" fill="#442a69"/>
            <path id="Tracé_1510" data-name="Tracé 1510" d="M292.766,352.868l-.193.34a5.419,5.419,0,0,1,.885.245c.514.186.849.5.9.23s-.316-.454-.613-.584A5.528,5.528,0,0,0,292.766,352.868Z" transform="translate(-290.764 -351.413)" fill="#fff"/>
            <path id="Tracé_1511" data-name="Tracé 1511" d="M291.882,354.318s.537.106.93.217.6.39.509.557-.376-.121-.689-.25a4.838,4.838,0,0,0-.97-.2Z" transform="translate(-290.423 -351.956)" fill="#fff"/>
            <path id="Tracé_1512" data-name="Tracé 1512" d="M292.939,356.676a12.009,12.009,0,0,1,1.385-1.617,2.752,2.752,0,0,1,1.175-.483s-.765.556-1.142.892A9.471,9.471,0,0,1,292.939,356.676Z" transform="translate(-290.901 -352.053)" fill="#442a69"/>
          </g>
        </g>
      </g>
    </g>
  </g>
</svg>
