<svg xmlns="http://www.w3.org/2000/svg" width="88.283" height="82.418" viewBox="0 0 88.283 82.418">
  <g id="Groupe_1819" data-name="Groupe 1819" transform="translate(-270.915 -34.06)">
    <g id="Groupe_1817" data-name="Groupe 1817">
      <path id="Tracé_1517" data-name="Tracé 1517" d="M318.4,95.589a32.1,32.1,0,0,0,.762-4.452c.258-3.751,1.294-10.159,1.294-10.159l-6.219-.4a57.668,57.668,0,0,1-.616,6.9c-.5,2.858-.685,3.66-1.139,7.312a10.412,10.412,0,0,0,3.712.864C317.11,95.657,317.844,95.625,318.4,95.589Z" fill="#ffa194"/>
      <path id="Tracé_1518" data-name="Tracé 1518" d="M332.914,94.449c-.423-3.356-.608-4.2-1.1-6.966a57.574,57.574,0,0,1-.615-6.9l-6.22.4s1.036,6.408,1.3,10.159a31.466,31.466,0,0,0,.746,4.384A10.509,10.509,0,0,0,332.914,94.449Z" fill="#ffa194"/>
      <path id="Tracé_1519" data-name="Tracé 1519" d="M313.375,53.049l-.492-5.2s-2.649.145-4.419.334a22.728,22.728,0,0,1-7.847-.614,33.456,33.456,0,0,1-4.528-2.484,9.861,9.861,0,0,0-3.519-2.956c-.87-.246-.513.554,0,1.141a11.185,11.185,0,0,1,.878,1.153s-4.156-1.74-5.223-1.153.347,2.865,2.355,3.7c1.544.642,3.071.344,4.263.6,1.338.733,3.692,3.152,6.78,4.144C304.85,52.745,313.375,53.049,313.375,53.049Z" fill="#ffa194"/>
      <path id="Tracé_1520" data-name="Tracé 1520" d="M338.08,67.965c.76-3.748,1.468-9.254,1.178-10.218-.954-3.166-4.412-5.222-4.412-5.222L331.865,55.4l3.667,3.8s-.233,7.238-.276,8.555c-.037,1.132-.865,1.147-1.558,2.8-.978,2.335-.211,1.906.269,1.475.172-.154.735-1.514,1.174-1.155s-.439,2.775-.11,4.093,1.533,1.729,3.24-2.034C338.954,71.433,337.9,68.846,338.08,67.965Z" fill="#ffa194"/>
      <path id="Tracé_1521" data-name="Tracé 1521" d="M333.361,49.642c-1.658-1.548-7.456-2.878-7.456-2.878l-4.379.489a21.23,21.23,0,0,0-5.221-.269c-1.172.137-4.471.861-6.462.58a7.24,7.24,0,0,1,0,6.356c.462,0,1.58-.05,2.7-.008,1.236.045,2.7.086,2.864.669a25.221,25.221,0,0,1,.216,6.038,12.119,12.119,0,0,1-.619,3.185c-.678,2.673.246,2.971.246,2.971a16.97,16.97,0,0,0,6.677,2.265c3.214.251,6.5-.689,7.235-1.58a1.172,1.172,0,0,0,.59-1.073C329.8,61.245,330,54.46,330,54.46a21.884,21.884,0,0,0,3.525,3.6c1.537-.383,4.185-3.481,4.185-3.481A60.959,60.959,0,0,0,333.361,49.642Z" fill="#51bdff"/>
      <g id="Groupe_1808" data-name="Groupe 1808">
        <path id="Tracé_1522" data-name="Tracé 1522" d="M323.467,46.984a5.005,5.005,0,0,0,2.438-.68,1.351,1.351,0,0,1-.2-.663c.021-1.21,0-2.9,0-2.9l-4.432-.224a12.7,12.7,0,0,1,0,2.852,1.407,1.407,0,0,1-.188.576A2.865,2.865,0,0,0,323.467,46.984Z" fill="#f97b6e"/>
        <path id="Tracé_1523" data-name="Tracé 1523" d="M321.437,48.565a5.5,5.5,0,0,0,.907.379c.092.024.178.055.276.074a4.717,4.717,0,0,0,4.341-1.507A4.869,4.869,0,0,1,325.9,46.3a5.005,5.005,0,0,1-2.438.68,2.865,2.865,0,0,1-2.378-1.041,6.385,6.385,0,0,1-.973,1.269A4.091,4.091,0,0,0,321.437,48.565Z" fill="#ffa194"/>
      </g>
      <path id="Tracé_1524" data-name="Tracé 1524" d="M327.482,39.782c-.349,2.619-1.78,4.784-3.976,4.784s-3.7-2.156-3.976-4.784c-.416-4.023,1.373-5.722,3.976-5.722C326.554,34.06,327.97,36.117,327.482,39.782Z" fill="#ffa194"/>
      <path id="Tracé_1525" data-name="Tracé 1525" d="M319.966,38.679c-.134-.045-1.387-.85-1.364.672.023,1.456,1.856,1.787,1.856,1.787Z" fill="#ffa194"/>
      <path id="Tracé_1526" data-name="Tracé 1526" d="M320.458,46.764l-1.057.22s.688,2.553,4.137,2.53,4.138-2.285,4.138-2.285l-1.374-.37s-.435,1.3-2.709,1.351A3.459,3.459,0,0,1,320.458,46.764Z" fill="#442a69"/>
      <path id="Tracé_1527" data-name="Tracé 1527" d="M315.236,67.833s-1.142,3.915-1.861,8.077a64.6,64.6,0,0,0-.684,9.853,25.362,25.362,0,0,0,5.007.834h3.391l1.277-8.617,2.129,8.988s3.7.464,5.842-.371a8.76,8.76,0,0,0,2.563-1.262s-1.013-7.561-1.967-11.138a58.483,58.483,0,0,0-1.84-5.82Z" fill="#22217f"/>
      <path id="Tracé_1528" data-name="Tracé 1528" d="M327.879,68.464s.834,3.034,1.773,6.9c.864,3.557,2.213,10.584,2.213,10.584l.589-.307s-1.438-6.935-2.236-10.6c-.868-3.993-1.715-6.678-1.715-6.678Z" fill="#fff"/>
      <path id="Tracé_1529" data-name="Tracé 1529" d="M316.2,67.833s-1.538,5.8-2.015,8.077-.806,10.024-.806,10.024l.461.107a69.8,69.8,0,0,1,.949-10.131c.827-3.978,2.018-8.016,2.018-8.016Z" fill="#fff"/>
      <path id="Tracé_1530" data-name="Tracé 1530" d="M296.755,45.482a3.635,3.635,0,0,1-1.352,2.437c-.181,1.012,2.422,2.776,3.367,2.484a3.855,3.855,0,0,0,1.355-3.04c-.054-.531-.874-.888-1.668-1.387C297.084,45.113,296.755,45.482,296.755,45.482Z" fill="#442a69"/>
      <path id="Tracé_1531" data-name="Tracé 1531" d="M324.773,53.049s-.061,2,.049,3.242,1.9,2.241,1.9,2.241,2.027-.622,2.23-2.241a30.384,30.384,0,0,0,.218-3.079Z" fill="#fcd621"/>
      <path id="Tracé_1532" data-name="Tracé 1532" d="M317.353,67.833s-1.95-2.713-.787-2.974S317.353,67.833,317.353,67.833Z" fill="#53b6f2"/>
      <path id="Tracé_1533" data-name="Tracé 1533" d="M327.261,68.354s-.138-3.268.928-3.156S327.261,68.354,327.261,68.354Z" fill="#53b6f2"/>
      <path id="Tracé_1534" data-name="Tracé 1534" d="M325.358,68.5s-2.291-2.623-1.1-2.973S325.358,68.5,325.358,68.5Z" fill="#53b6f2"/>
      <rect id="Rectangle_43" data-name="Rectangle 43" width="4.401" height="0.566" transform="translate(324.765 52.854)" fill="#442a69"/>
      <path id="Tracé_1535" data-name="Tracé 1535" d="M329.166,67.46a46.226,46.226,0,0,1-6.956.335,65.982,65.982,0,0,1-6.956-1.02v1.156a25.3,25.3,0,0,0,7.214,1.354c3.866.25,6.074-.457,6.7-.767Z" fill="#fff"/>
      <g id="Groupe_1809" data-name="Groupe 1809">
        <path id="Tracé_1536" data-name="Tracé 1536" d="M311.37,109.807a4.992,4.992,0,0,0,3.516-.492c.329-2.086,2.217-8.348,3.126-12.071-.631.022-1.627.036-2.758-.035a7.511,7.511,0,0,1-2.881-.794c-.073,2.665.207,6.452.2,8.993a6.037,6.037,0,0,1-.467,2.62C311.849,108.711,311.608,109.287,311.37,109.807Z" fill="#fff"/>
        <path id="Tracé_1537" data-name="Tracé 1537" d="M318.012,97.244c.136-.56.268-1.114.39-1.655-.558.036-1.292.068-2.206.07a10.412,10.412,0,0,1-3.712-.864l-.008.066c-.056.448-.088.976-.1,1.554a7.511,7.511,0,0,0,2.881.794C316.385,97.28,317.381,97.266,318.012,97.244Z" fill="#fcd621"/>
      </g>
      <g id="Groupe_1810" data-name="Groupe 1810">
        <path id="Tracé_1538" data-name="Tracé 1538" d="M330.555,111.068c1.374-.3,2.025-1.105,3.2-1.993-.135-.324-.272-.666-.413-1.047a6.037,6.037,0,0,1-.467-2.62c-.013-2.742.314-6.934.171-9.6a6.181,6.181,0,0,1-2.29.985,11.294,11.294,0,0,1-3.4.152c1,4.147,2,8.7,2.351,10.074C330.034,108.3,330.082,109.751,330.555,111.068Z" fill="#fff"/>
        <path id="Tracé_1539" data-name="Tracé 1539" d="M330.754,96.792a6.181,6.181,0,0,0,2.29-.985c-.018-.341-.043-.661-.078-.946-.018-.144-.035-.276-.052-.412a10.509,10.509,0,0,1-5.89,1.072c.105.466.218.943.334,1.423A11.294,11.294,0,0,0,330.754,96.792Z" fill="#fcd621"/>
      </g>
      <g id="Groupe_1812" data-name="Groupe 1812">
        <g id="Groupe_1811" data-name="Groupe 1811">
          <path id="Tracé_1540" data-name="Tracé 1540" d="M333.4,106.613s-1.852-1.223-2.225,1.424c-.049.349-1.143.822-1.143.822s-.773,1.852-.13,2.443a24.407,24.407,0,0,0,2.965,2.156c1.126.717,1.229,2.663,3.929,1.591,1.258-.5,1.256-1.926.085-2.96C335.168,110.579,333.4,106.613,333.4,106.613Z" fill="#22217f"/>
          <path id="Tracé_1541" data-name="Tracé 1541" d="M337.694,113.859s-.312-.333-.976.152c-.735.537-.268,1.226-1.64.885s-1.347-.848-2.249-1.619a21.334,21.334,0,0,0-3.1-2.209l.223.769s1.723,1.313,2.529,2.024,1.216,1.5,2.493,1.59a2.426,2.426,0,0,0,2.437-.817A.89.89,0,0,0,337.694,113.859Z" fill="#442a69"/>
          <path id="Tracé_1542" data-name="Tracé 1542" d="M334.459,108.718l.317.559a8.788,8.788,0,0,0-1.453.4c-.845.305-1.394.817-1.485.378s.518-.744,1.006-.958A9.054,9.054,0,0,1,334.459,108.718Z" fill="#fff"/>
          <path id="Tracé_1543" data-name="Tracé 1543" d="M335.35,110.208s-.883.173-1.526.356-.988.641-.835.915.617-.2,1.131-.411a7.912,7.912,0,0,1,1.591-.332Z" fill="#fff"/>
          <path id="Tracé_1544" data-name="Tracé 1544" d="M334.4,113.92a19.658,19.658,0,0,0-2.272-2.654,4.507,4.507,0,0,0-1.93-.793s1.257.912,1.876,1.464A15.636,15.636,0,0,0,334.4,113.92Z" fill="#442a69"/>
        </g>
      </g>
      <g id="Groupe_1814" data-name="Groupe 1814">
        <g id="Groupe_1813" data-name="Groupe 1813">
          <path id="Tracé_1545" data-name="Tracé 1545" d="M311.634,106.613s1.851-1.223,2.225,1.424c.049.349,1.142.822,1.142.822s.774,1.852.131,2.443a24.349,24.349,0,0,1-2.966,2.156c-1.125.717-1.228,2.663-3.928,1.591-1.258-.5-1.256-1.926-.085-2.96C309.862,110.579,311.634,106.613,311.634,106.613Z" fill="#22217f"/>
          <path id="Tracé_1546" data-name="Tracé 1546" d="M307.335,113.859s.312-.333.977.152c.735.537.268,1.226,1.639.885s1.348-.848,2.25-1.619a21.334,21.334,0,0,1,3.1-2.209l-.223.769s-1.724,1.313-2.529,2.024-1.216,1.5-2.494,1.59a2.428,2.428,0,0,1-2.437-.817A.893.893,0,0,1,307.335,113.859Z" fill="#442a69"/>
          <path id="Tracé_1547" data-name="Tracé 1547" d="M310.571,108.718l-.317.559a8.788,8.788,0,0,1,1.453.4c.845.305,1.394.817,1.485.378s-.518-.744-1.007-.958A9.049,9.049,0,0,0,310.571,108.718Z" fill="#fff"/>
          <path id="Tracé_1548" data-name="Tracé 1548" d="M309.679,110.208s.883.173,1.527.356.988.641.835.915-.617-.2-1.131-.411a7.912,7.912,0,0,0-1.591-.332Z" fill="#fff"/>
          <path id="Tracé_1549" data-name="Tracé 1549" d="M310.63,113.92a19.658,19.658,0,0,1,2.272-2.654,4.507,4.507,0,0,1,1.93-.793s-1.257.912-1.876,1.464A15.636,15.636,0,0,1,310.63,113.92Z" fill="#442a69"/>
        </g>
      </g>
      <rect id="Rectangle_44" data-name="Rectangle 44" width="3.048" height="4.048" transform="translate(317.411 53.049)" fill="#fff"/>
      <g id="Groupe_1815" data-name="Groupe 1815">
        <path id="Tracé_1550" data-name="Tracé 1550" d="M325.9,43.524h-1.14v-.179h1.14a1.221,1.221,0,0,0,1.262-1.118,10.484,10.484,0,0,0,.161-1.583h.179a10.662,10.662,0,0,1-.164,1.614A1.389,1.389,0,0,1,325.9,43.524Z" fill="#442a69"/>
      </g>
      <path id="Tracé_1551" data-name="Tracé 1551" d="M327.046,38.679c.134-.045,1.387-.85,1.364.672-.023,1.456-1.856,1.787-1.856,1.787Z" fill="#ffa194"/>
      <path id="Tracé_1552" data-name="Tracé 1552" d="M327.97,40.139a.357.357,0,1,1-.358-.357A.357.357,0,0,1,327.97,40.139Z" fill="#442a69"/>
      <g id="Groupe_1816" data-name="Groupe 1816">
        <path id="Tracé_1553" data-name="Tracé 1553" d="M325.961,47.6c-.272-.712.148-1.4.593-2.127a10.037,10.037,0,0,0,.528-.94,7.813,7.813,0,0,0,.443-4.37l.175-.038a8.009,8.009,0,0,1-.456,4.484,9.994,9.994,0,0,1-.537.957c-.44.719-.82,1.34-.579,1.971Z" fill="#442a69"/>
      </g>
      <path id="Tracé_1554" data-name="Tracé 1554" d="M325.329,43.435c0,.23-.348.416-.777.416s-.777-.186-.777-.416.348-.417.777-.417S325.329,43.2,325.329,43.435Z" fill="#442a69"/>
      <path id="Tracé_1555" data-name="Tracé 1555" d="M338.505,67.346c0,.557-.334,1.008-.746,1.008s-.745-.451-.745-1.008.334-1.007.745-1.007S338.505,66.79,338.505,67.346Z" fill="#442a69"/>
      <path id="Tracé_1556" data-name="Tracé 1556" d="M335.275,67.163l-.019.594s1.609-.031,2.2,0,.247-.594.247-.594S336.1,67.134,335.275,67.163Z" fill="#442a69"/>
    </g>
    <g id="Groupe_1818" data-name="Groupe 1818" opacity="0.5">
      <path id="Tracé_1557" data-name="Tracé 1557" d="M359.2,40.5a5.855,5.855,0,1,1-5.855-5.855A5.855,5.855,0,0,1,359.2,40.5Z" fill="#4d4085"/>
    </g>
    <path id="Tracé_1559" data-name="Tracé 1559" d="M295.786,114.319a2.16,2.16,0,1,1-2.16-2.159A2.159,2.159,0,0,1,295.786,114.319Z" fill="#00afff"/>
    <path id="Tracé_1560" data-name="Tracé 1560" d="M275.234,36.267a2.16,2.16,0,1,1-2.159-2.159A2.159,2.159,0,0,1,275.234,36.267Z" fill="#00afff"/>
    <path id="Tracé_1561" data-name="Tracé 1561" d="M299.849,130.748a2.543,2.543,0,1,1-2.543-2.543A2.543,2.543,0,0,1,299.849,130.748Z" transform="translate(-5.689 -57)" fill="#00afff"/>
  </g>
</svg>
