<svg xmlns="http://www.w3.org/2000/svg" width="72.797" height="105.075" viewBox="0 0 72.797 105.075">
  <g id="Groupe_1786" data-name="Groupe 1786" transform="translate(-40.652 -259.202)">
    <g id="Groupe_1784" data-name="Groupe 1784" transform="translate(63.627 259.202)">
      <path id="Tracé_1424" data-name="Tracé 1424" d="M90.278,344.977s-.3,1.278-.81,3.152c-.28,1.03.194,3.423.346,8.879.109,3.947.159,8,.159,8l2.457,1.467s.259-2.124.692-4.456a67.337,67.337,0,0,0,1.249-7.194c.034-2.835-.485-3.733-.149-5.042a21.115,21.115,0,0,0,.809-4.591Z" transform="translate(-72.744 -275.25)" fill="#ffa194"/>
      <path id="Tracé_1425" data-name="Tracé 1425" d="M103.709,344.977s.3,1.278.81,3.152c.279,1.03-.2,3.423-.346,8.879-.11,3.947-.159,8-.159,8l-1.795,1.467a34.447,34.447,0,0,1-1.462-5.031,56.551,56.551,0,0,1-1.141-6.62c-.034-2.835.485-3.733.149-5.042a21.115,21.115,0,0,1-.809-4.591Z" transform="translate(-74.535 -275.25)" fill="#ffa194"/>
      <g id="Groupe_1769" data-name="Groupe 1769">
        <path id="Tracé_1426" data-name="Tracé 1426" d="M69.965,282.717l-1.05,8.6S80.706,295,92.1,295a81.772,81.772,0,0,0,23.092-3.474l-1.01-8.6A83,83,0,0,1,92.1,286.1,88.453,88.453,0,0,1,69.965,282.717Z" transform="translate(-68.915 -263.602)" fill="#51bdff"/>
        <path id="Tracé_1427" data-name="Tracé 1427" d="M92.343,272.992a86.911,86.911,0,0,1-20.868-3.034L70.207,280.33a88.455,88.455,0,0,0,22.136,3.382,83,83,0,0,0,22.081-3.165l-1.219-10.378A83.257,83.257,0,0,1,92.343,272.992Z" transform="translate(-69.157 -261.215)" fill="#f20066"/>
        <path id="Tracé_1428" data-name="Tracé 1428" d="M106.65,260.336c-3.148,1.944-10.41,2.9-14.068,2.9-3.452,0-11.2-3.212-15.058-3.7C73,258.964,72.6,261.1,72.6,261.1l-.836,6.846a86.91,86.91,0,0,0,20.868,3.034,83.256,83.256,0,0,0,20.863-2.822l-.829-7.057S111.408,257.4,106.65,260.336Z" transform="translate(-69.448 -259.202)" fill="#00afff"/>
      </g>
      <g id="Groupe_1774" data-name="Groupe 1774" transform="translate(17.263 7.107)">
        <g id="Groupe_1773" data-name="Groupe 1773">
          <g id="Groupe_1772" data-name="Groupe 1772" transform="translate(0 0.528)">
            <path id="Tracé_1429" data-name="Tracé 1429" d="M99.756,279.6s-1.462-.52-1.424-1.366,0-2.539,0-2.539H95.214s-.037,1.692,0,2.539-1.423,1.366-1.423,1.366a3.82,3.82,0,0,0,2.218,1.5.945.945,0,0,0,.5.127c.092,0,.179-.007.267-.012s.175.012.267.012a.945.945,0,0,0,.5-.127A3.82,3.82,0,0,0,99.756,279.6Z" transform="translate(-90.832 -269.923)" fill="#f97b6e"/>
            <g id="Groupe_1771" data-name="Groupe 1771" transform="translate(2.625)">
              <g id="Groupe_1770" data-name="Groupe 1770">
                <path id="Tracé_1430" data-name="Tracé 1430" d="M94.1,272.737s-.391-.207-.645.3a1.04,1.04,0,0,0,.652,1.337C94.541,274.4,94.1,272.737,94.1,272.737Z" transform="translate(-93.38 -269.361)" fill="#ffa194"/>
                <path id="Tracé_1431" data-name="Tracé 1431" d="M100.688,272.739s.418-.148.594.39a1.04,1.04,0,0,1-.84,1.228C100.006,274.316,100.688,272.739,100.688,272.739Z" transform="translate(-94.674 -269.366)" fill="#ffa194"/>
                <path id="Tracé_1432" data-name="Tracé 1432" d="M99.617,272.539c0,2.179-1.853,3.945-2.837,3.945-.941,0-2.836-1.766-2.836-3.945s1.27-3.945,2.836-3.945S99.617,270.36,99.617,272.539Z" transform="translate(-93.486 -268.594)" fill="#ffa194"/>
              </g>
            </g>
            <path id="Tracé_1433" data-name="Tracé 1433" d="M101.388,293.822a19.619,19.619,0,0,1-.61-4.566c.123-1.219.272-2.3.389-3.078.072-.408.138-.816.2-1.221l0-.015,0,0a41.917,41.917,0,0,0,.525-5.505,28.532,28.532,0,0,0-3.4.585,3.12,3.12,0,0,1-4.8,0,19.179,19.179,0,0,1-1.884-.383,2.509,2.509,0,0,0-1.657,0,14.4,14.4,0,0,0,.247,1.977c.18,1.015.423,2.288.661,3.5.083,1.222.619,3,.931,4.747a7.181,7.181,0,0,1-.011,1.541l-.006.047c-.026.212-.059.41-.1.584-.071.321-.162.714-.262,1.159v0h0a27.874,27.874,0,0,0-.723,4.872h11a16.367,16.367,0,0,0-.509-4.265Z" transform="translate(-90.151 -270.623)" fill="#fff"/>
          </g>
          <path id="Tracé_1434" data-name="Tracé 1434" d="M99.579,271.46a2.814,2.814,0,0,0-1.973-3.35c-2.893-.886-3.8,2.015-3.647,3.35Z" transform="translate(-90.86 -267.945)" fill="#442a69"/>
        </g>
      </g>
      <path id="Tracé_1435" data-name="Tracé 1435" d="M102.037,302.37s1.008,5.848-1.636,7.728c-3.43,2.441-8.007,1.84-9.275-1.574-.363-.976-.088-6.155-.088-6.155Z" transform="translate(-73.035 -267.279)" fill="#004cba"/>
      <path id="Tracé_1436" data-name="Tracé 1436" d="M103.141,346.893c-.393-2.97-.936-6.842-1.6-9.939a7.9,7.9,0,0,1-1.7-.545H91.388a7.986,7.986,0,0,1-1.758.558c-.433,2.9-.807,6.491-1.067,10.173,1.933,1.4,4.425,1.121,6.354.431.421-3.22.861-7.75.861-7.75A66.468,66.468,0,0,0,96.85,347.5C98.427,348.691,102.283,347.873,103.141,346.893Z" transform="translate(-72.591 -273.647)" fill="#22217f"/>
      <g id="Groupe_1775" data-name="Groupe 1775" transform="translate(15.282 40.353)">
        <path id="Tracé_1437" data-name="Tracé 1437" d="M96.182,328.6a55.615,55.615,0,0,1-7.6-.567l-.671,6.99A21.443,21.443,0,0,0,95.6,336.19a39.249,39.249,0,0,0,7.733-.749l-1.193-7.3A48.372,48.372,0,0,1,96.182,328.6Z" transform="translate(-87.75 -312.434)" fill="#00afff"/>
        <path id="Tracé_1438" data-name="Tracé 1438" d="M100.961,317.543l-.059-.363.126.324a49.394,49.394,0,0,1,1.414-7.235,15.63,15.63,0,0,0-3.723-1.145c-.952-.189-1.662-.281-1.662-.281s-.289.88-1.652.88a1.845,1.845,0,0,1-1.64-.88l-1.32.262c-1.327.263-3.305.648-4.231.8.065.428-.537,2.456-.5,2.791.2,1.723,1.384,2.916,1.474,4.552a36.723,36.723,0,0,0,6.624.643C96.72,317.894,99.221,317.693,100.961,317.543Z" transform="translate(-87.714 -308.843)" fill="#00afff"/>
        <path id="Tracé_1439" data-name="Tracé 1439" d="M102.3,326.485l-1.145-7.007c-1.74.15-4.241.351-5.148.351a36.724,36.724,0,0,1-6.624-.643,3.527,3.527,0,0,1,0,.5l-.643,6.7a55.62,55.62,0,0,0,7.6.567A48.372,48.372,0,0,0,102.3,326.485Z" transform="translate(-87.904 -310.778)" fill="#51bdff"/>
      </g>
      <path id="Tracé_1440" data-name="Tracé 1440" d="M90.947,308.616s.033,2.662.193,3.7a16.921,16.921,0,0,0,1.5,4.518s.221-6.52.915-8.088c.32-.065.623-.111.814-.153a8.243,8.243,0,0,0,.06-1.053,5.429,5.429,0,0,0-1.458.024A4.442,4.442,0,0,0,90.947,308.616Z" transform="translate(-73.037 -268.239)" fill="#0c97ec"/>
      <path id="Tracé_1441" data-name="Tracé 1441" d="M102.816,308.619s-.246,2.852-.406,3.889a13.354,13.354,0,0,1-1.584,4.325s-.126-6.52-.819-8.088c-.32-.065-.623-.111-.814-.153a8.245,8.245,0,0,1-.06-1.053,5.424,5.424,0,0,1,1.458.024A5.052,5.052,0,0,1,102.816,308.619Z" transform="translate(-74.568 -268.239)" fill="#0c97ec"/>
      <g id="Groupe_1776" data-name="Groupe 1776" transform="translate(14.959 49.843)">
        <path id="Tracé_1442" data-name="Tracé 1442" d="M88.179,322.45c.554-.537,1.181-.719,1.752,0s.7.65,1.362,0a6.28,6.28,0,0,1,.661-.562c.015-.548-.007-1.371-.007-1.371h-3.57a6.93,6.93,0,0,0-1.056,1.934,1.66,1.66,0,0,0,0,.213A.939.939,0,0,0,88.179,322.45Z" transform="translate(-87.317 -320.516)" fill="#fff"/>
        <path id="Tracé_1443" data-name="Tracé 1443" d="M88.734,323.946c.87.024,1.435-.024,2.215,0s.952-.743,1-1.554c0-.056,0-.121.007-.189a6.279,6.279,0,0,0-.661.563c-.663.65-.791.719-1.362,0s-1.2-.537-1.752,0a.94.94,0,0,1-.855.213C87.361,323.773,87.933,323.924,88.734,323.946Z" transform="translate(-87.319 -320.832)" fill="#442a69"/>
      </g>
      <g id="Groupe_1777" data-name="Groupe 1777" transform="translate(26.27 49.843)">
        <path id="Tracé_1444" data-name="Tracé 1444" d="M105.011,322.45c-.554-.537-1.181-.719-1.752,0s-.7.65-1.362,0a6.2,6.2,0,0,0-.66-.562c-.016-.548.007-1.371.007-1.371h3.57a6.928,6.928,0,0,1,1.057,1.934,1.822,1.822,0,0,1,0,.213A.939.939,0,0,1,105.011,322.45Z" transform="translate(-101.231 -320.516)" fill="#fff"/>
        <path id="Tracé_1445" data-name="Tracé 1445" d="M104.459,323.946c-.87.024-1.435-.024-2.216,0s-.952-.743-1-1.554c0-.056-.006-.121-.007-.189a6.2,6.2,0,0,1,.66.563c.663.65.791.719,1.362,0s1.2-.537,1.752,0a.939.939,0,0,0,.855.213C105.832,323.773,105.259,323.924,104.459,323.946Z" transform="translate(-101.232 -320.832)" fill="#442a69"/>
      </g>
      <path id="Tracé_1446" data-name="Tracé 1446" d="M90.842,299.462c-2.519,0-2.869,4.717-2.979,6.949-.071,1.427,0,10.828,0,10.828l4.513.249s.426-9.024.827-12.368C93.38,303.6,93.324,299.463,90.842,299.462Z" transform="translate(-72.454 -266.734)" fill="#4d4085"/>
      <path id="Tracé_1447" data-name="Tracé 1447" d="M102.225,299.462c2.519,0,2.869,4.717,2.979,6.949.071,1.427.006,10.828.006,10.828l-4.514.249s-.426-9.024-.827-12.368C99.687,303.6,99.743,299.463,102.225,299.462Z" transform="translate(-74.694 -266.734)" fill="#4d4085"/>
      <g id="Groupe_1778" data-name="Groupe 1778" transform="translate(19.462 31.402)">
        <path id="Tracé_1448" data-name="Tracé 1448" d="M95.2,306.894s.007,1.024-.042,1.557a1.732,1.732,0,0,0,1.512.907c.466.059,1.72-.11,1.78-.907-.045-.829-.06-1.706-.06-1.706Z" transform="translate(-93.287 -299.498)" fill="#f97b6e"/>
        <path id="Tracé_1449" data-name="Tracé 1449" d="M100.385,301.74c-.184-.558-.617-.4-.617-.4s-.036.085-.083.2c-.15-2.079-1.482-3.707-3.105-3.707-1.562,0-2.852,1.508-3.081,3.474-.137-.029-.386-.022-.568.343a1.087,1.087,0,0,0,.645,1.381c.367,1.728,1.571,3,3,3s2.647-1.28,3.008-3.02A1.1,1.1,0,0,0,100.385,301.74Z" transform="translate(-92.856 -297.831)" fill="#ffa194"/>
      </g>
      <path id="Tracé_1450" data-name="Tracé 1450" d="M99.677,297.677c-1.048-1.724-4.7-1.826-5.761-.127-.548.876-.476,3.463-.476,3.463l.476.635A11.457,11.457,0,0,1,94.5,299.5c.215-.394,1.152-.148,2.214-.1.941.041,2.017-.158,2.231.152a7.544,7.544,0,0,1,.571,2.094l.476-.635A12.418,12.418,0,0,0,99.677,297.677Z" transform="translate(-73.503 -266.148)" fill="#442a69"/>
      <path id="Tracé_1451" data-name="Tracé 1451" d="M101.588,276.294s2.825-2.53,3.861-3.395,3.732-4.6,4.423-5.377a39.716,39.716,0,0,0,3.278-3.967c.328-.593.285-2.668.617-2.9.576-.412.452,1.645.452,1.645s1.77-1.878,2.757-1.687,2.036.645.062,2.509a15.727,15.727,0,0,0-3.54,3.827c-1.333,2.008-.353,1.949-4.929,6.425-1.175,1.15-2.789,4.545-4.872,6.7A8.108,8.108,0,0,0,101.588,276.294Z" transform="translate(-75.028 -259.463)" fill="#ffa194"/>
      <path id="Tracé_1452" data-name="Tracé 1452" d="M89,276.163a15.607,15.607,0,0,0-3.175-3.264c-1.036-.866-3.348-3.8-4.039-4.573a37.786,37.786,0,0,1-3.333-4.178c-.328-.593-.615-3.261-.946-3.5-.576-.412-.452,1.645-.452,1.645s-1.77-1.878-2.757-1.687-2.222,1.358-.124,2.9c1.633,1.2,2.335,1.5,3.1,3.062,1.161,2.386,3.65,4.975,4.583,6.33,2.078,3.016,5.722,7.172,5.722,7.172A15.777,15.777,0,0,1,89,276.163Z" transform="translate(-69.685 -259.463)" fill="#ffa194"/>
      <path id="Tracé_1453" data-name="Tracé 1453" d="M114.106,262.22s1.645-3.274,4.827-2.341a2.5,2.5,0,0,1,1.656,1.317S115.848,262.663,114.106,262.22Z" transform="translate(-77.37 -259.298)" fill="#00afff"/>
      <path id="Tracé_1454" data-name="Tracé 1454" d="M79.278,262.22s-1.645-3.274-4.827-2.341a2.5,2.5,0,0,0-1.656,1.317S77.536,262.663,79.278,262.22Z" transform="translate(-69.641 -259.298)" fill="#00afff"/>
      <g id="Groupe_1779" data-name="Groupe 1779" transform="translate(17.979 10.25)">
        <path id="Tracé_1455" data-name="Tracé 1455" d="M91.912,271.812a.142.142,0,0,0-.069.265c-.419.106-.837.343-.809.837a.51.51,0,0,0,.487.5c-.146.466-.224.857.2,1.151.324.225.867.291,1.032,0a.757.757,0,0,0,.723.263,1.671,1.671,0,0,0,1.21-1.319C95.057,271.967,92.943,271.825,91.912,271.812Z" transform="translate(-91.032 -271.812)" fill="#442a69"/>
      </g>
      <g id="Groupe_1780" data-name="Groupe 1780" transform="translate(24.447 10.264)">
        <path id="Tracé_1456" data-name="Tracé 1456" d="M101.8,271.828a.143.143,0,0,1,.069.265c.419.106.838.343.809.837a.51.51,0,0,1-.487.5c.147.465.224.856-.2,1.15-.324.225-.868.291-1.033,0a.756.756,0,0,1-.723.263,1.672,1.672,0,0,1-1.21-1.319C98.66,271.983,100.773,271.841,101.8,271.828Z" transform="translate(-98.989 -271.828)" fill="#442a69"/>
      </g>
      <g id="Groupe_1781" data-name="Groupe 1781" transform="translate(19.438 1.315)">
        <path id="Tracé_1457" data-name="Tracé 1457" d="M93.25,266.618a16.812,16.812,0,0,1-.191,4.4,12.615,12.615,0,0,0,3.322.642v-4.388A7.805,7.805,0,0,1,93.25,266.618Z" transform="translate(-92.87 -261.905)" fill="#f20066"/>
        <path id="Tracé_1458" data-name="Tracé 1458" d="M96.337,261.439a6.571,6.571,0,0,1-2.113-.385c-1.258-.271-1.684,1.22-1.209,3.315a10.063,10.063,0,0,1,.191,1.2,7.806,7.806,0,0,0,3.131.65Z" transform="translate(-92.826 -260.858)" fill="#fff"/>
        <path id="Tracé_1459" data-name="Tracé 1459" d="M100.757,271.044a36.11,36.11,0,0,1-.5-4.261,11.336,11.336,0,0,1-3.056.517l-.051,0v4.388A6.748,6.748,0,0,0,100.757,271.044Z" transform="translate(-93.634 -261.936)" fill="#fff"/>
        <path id="Tracé_1460" data-name="Tracé 1460" d="M97.2,266.184a11.336,11.336,0,0,0,3.056-.517c0-.1,0-.188,0-.276.008-1.656.65-3.94-.184-4.375s-1.556-.059-2.457.27a2.226,2.226,0,0,1-.463.115v4.782Z" transform="translate(-93.634 -260.82)" fill="#f20066"/>
      </g>
      <path id="Tracé_1461" data-name="Tracé 1461" d="M91.666,270.879l-.375.932a15.245,15.245,0,0,0,5.028,1.156,10.988,10.988,0,0,0,4.66-1.316l-.457-.758a11.7,11.7,0,0,1-4.255.918A14.737,14.737,0,0,1,91.666,270.879Z" transform="translate(-73.101 -261.387)" fill="#e52c65"/>
      <g id="Groupe_1782" data-name="Groupe 1782" transform="translate(26.803 88.123)">
        <path id="Tracé_1462" data-name="Tracé 1462" d="M104.857,367.831s-1.466-.969-1.762,1.127c-.038.276-.9.65-.9.65s-.612,1.466-.1,1.934a19.271,19.271,0,0,0,2.347,1.707c.891.567.973,2.108,3.11,1.259.995-.4.994-1.524.067-2.343A16.532,16.532,0,0,1,104.857,367.831Z" transform="translate(-101.886 -367.607)" fill="#00afff"/>
        <path id="Tracé_1463" data-name="Tracé 1463" d="M108.274,374.428s-.246-.263-.772.12c-.582.425-.213.971-1.3.7s-1.067-.671-1.78-1.282a16.959,16.959,0,0,0-2.457-1.749l.177.61s1.364,1.038,2,1.6.962,1.19,1.974,1.258a1.92,1.92,0,0,0,1.929-.646A.7.7,0,0,0,108.274,374.428Z" transform="translate(-101.901 -368.47)" fill="#442a69"/>
        <path id="Tracé_1464" data-name="Tracé 1464" d="M106.1,369.932l.251.442a6.935,6.935,0,0,0-1.15.319c-.669.241-1.1.646-1.175.3s.411-.589.8-.758A7.166,7.166,0,0,1,106.1,369.932Z" transform="translate(-102.285 -368.042)" fill="#fff"/>
        <path id="Tracé_1465" data-name="Tracé 1465" d="M107.007,371.382s-.7.137-1.209.282-.781.507-.661.724.489-.157.9-.326a6.26,6.26,0,0,1,1.259-.262Z" transform="translate(-102.489 -368.313)" fill="#fff"/>
        <path id="Tracé_1466" data-name="Tracé 1466" d="M105.753,374.368a15.609,15.609,0,0,0-1.8-2.1,3.565,3.565,0,0,0-1.527-.628s1,.722,1.485,1.159A12.314,12.314,0,0,0,105.753,374.368Z" transform="translate(-101.987 -368.361)" fill="#442a69"/>
      </g>
      <g id="Groupe_1783" data-name="Groupe 1783" transform="translate(13.767 88.123)">
        <path id="Tracé_1467" data-name="Tracé 1467" d="M89.294,367.831s1.466-.969,1.762,1.127c.039.276.9.65.9.65s.612,1.466.1,1.934a19.271,19.271,0,0,1-2.347,1.707c-.891.567-.973,2.108-3.11,1.259-1-.4-.994-1.524-.067-2.343A16.532,16.532,0,0,0,89.294,367.831Z" transform="translate(-85.851 -367.607)" fill="#00afff"/>
        <path id="Tracé_1468" data-name="Tracé 1468" d="M85.9,374.428s.246-.263.772.12c.582.425.213.971,1.3.7s1.067-.671,1.78-1.282a16.96,16.96,0,0,1,2.457-1.749l-.177.61s-1.364,1.038-2,1.6-.962,1.19-1.974,1.258a1.92,1.92,0,0,1-1.929-.646A.7.7,0,0,1,85.9,374.428Z" transform="translate(-85.858 -368.47)" fill="#442a69"/>
        <path id="Tracé_1469" data-name="Tracé 1469" d="M88.993,369.932l-.251.442a6.936,6.936,0,0,1,1.15.319c.669.241,1.1.646,1.175.3s-.411-.589-.8-.758A7.166,7.166,0,0,0,88.993,369.932Z" transform="translate(-86.392 -368.042)" fill="#fff"/>
        <path id="Tracé_1470" data-name="Tracé 1470" d="M88.117,371.382s.7.137,1.209.282.781.507.661.724-.489-.157-.9-.326a6.249,6.249,0,0,0-1.259-.262Z" transform="translate(-86.221 -368.313)" fill="#fff"/>
        <path id="Tracé_1471" data-name="Tracé 1471" d="M89.108,374.368a15.608,15.608,0,0,1,1.8-2.1,3.565,3.565,0,0,1,1.527-.628s-.995.722-1.485,1.159A12.315,12.315,0,0,1,89.108,374.368Z" transform="translate(-86.46 -368.361)" fill="#442a69"/>
      </g>
      <path id="Tracé_1472" data-name="Tracé 1472" d="M103.021,306.707c1.278.3,1.736.991,3,3.074a23.727,23.727,0,0,1,2.6,4.847c.69,1.908.3,3.248-.6,3.769s-1.9-.408-2.681-1.138-.678-6.081-1.678-6.676-1.595-1.34-2.265-1.488-1.9.747-1.617-.529C99.9,308.026,99.777,305.955,103.021,306.707Z" transform="translate(-74.682 -268.059)" fill="#ffa194"/>
      <path id="Tracé_1473" data-name="Tracé 1473" d="M89.172,306.707c-1.278.3-1.736.991-3,3.074a23.727,23.727,0,0,0-2.6,4.847c-.69,1.908-.3,3.248.6,3.769s1.9-.408,2.681-1.138.678-6.081,1.678-6.676,1.595-1.34,2.265-1.488,1.9.747,1.617-.529C92.289,308.026,92.415,305.955,89.172,306.707Z" transform="translate(-71.592 -268.059)" fill="#ffa194"/>
    </g>
    <g id="Groupe_1785" data-name="Groupe 1785" transform="translate(56.996 332.328)" opacity="0.5">
      <path id="Tracé_1474" data-name="Tracé 1474" d="M67.217,352.386a3.229,3.229,0,1,1-3.23-3.229A3.23,3.23,0,0,1,67.217,352.386Z" transform="translate(-60.758 -349.157)" fill="#4d4085"/>
    </g>
    <path id="Tracé_1475" data-name="Tracé 1475" d="M128.587,345.965a3.511,3.511,0,1,1-3.51-3.51A3.51,3.51,0,0,1,128.587,345.965Z" transform="translate(-15.138 -15.576)" fill="#00afff"/>
    <path id="Tracé_1476" data-name="Tracé 1476" d="M124.452,385.9a1.755,1.755,0,1,1-1.755-1.755A1.756,1.756,0,0,1,124.452,385.9Z" transform="translate(-15.021 -23.374)" fill="#00afff"/>
    <path id="Tracé_1477" data-name="Tracé 1477" d="M44.162,315.3a1.755,1.755,0,1,1-1.755-1.755A1.755,1.755,0,0,1,44.162,315.3Z" transform="translate(0 -10.167)" fill="#00afff"/>
    <path id="Tracé_1478" data-name="Tracé 1478" d="M74.714,367.561a1.755,1.755,0,1,1-1.755-1.756A1.755,1.755,0,0,1,74.714,367.561Z" transform="translate(-5.716 -19.944)" fill="#00afff"/>
    <path id="Tracé_1479" data-name="Tracé 1479" d="M55.794,294.7a3.511,3.511,0,1,1-3.51-3.511A3.511,3.511,0,0,1,55.794,294.7Z" transform="translate(-1.519 -5.984)" fill="#f20066"/>
  </g>
</svg>
