<svg xmlns="http://www.w3.org/2000/svg" width="58.715" height="84.449" viewBox="0 0 58.715 84.449">
  <g id="yes-adhesion" transform="translate(-261.599 -262.008)">
    <g id="Groupe_1806" data-name="Groupe 1806" transform="translate(281.328 266.741)">
      <path id="Tracé_1491" data-name="Tracé 1491" d="M293.172,288.943a20.546,20.546,0,0,0-2.129-3.557c-1.085-1.412-2.988-4.274-2.988-4.274a26.675,26.675,0,0,0,1.427-5.512c.238-2.38.159-2.935.477-3.252s1.015.238,1.877-.4,2.008-1.165.846-2.313c-.819-.81-1.216-2.205-2.433-2.169-.993.03-2.01,1.481-2.327,2.592s-2.179,6.963-2.644,8.5c-.607,2-1.322,2.485-.627,4.231a59.805,59.805,0,0,0,3.8,7.428C289.721,292.1,293.172,288.943,293.172,288.943Z" transform="translate(-284.366 -267.469)" fill="#ffa194"/>
      <path id="Tracé_1492" data-name="Tracé 1492" d="M307.209,288.943a20.543,20.543,0,0,1,2.129-3.557c1.085-1.412,2.988-4.274,2.988-4.274A26.71,26.71,0,0,1,310.9,275.6c-.237-2.38-.159-2.935-.476-3.252s-1.015.238-1.877-.4-2.008-1.165-.846-2.313c.819-.81,1.216-2.205,2.433-2.169.993.03,2.01,1.481,2.327,2.592s2.179,6.963,2.644,8.5c.607,2,1.322,2.485.627,4.231a59.813,59.813,0,0,1-3.8,7.428C310.66,292.1,307.209,288.943,307.209,288.943Z" transform="translate(-287.413 -267.469)" fill="#ffa194"/>
      <g id="Groupe_1801" data-name="Groupe 1801" transform="translate(8.317 6.847)">
        <path id="Tracé_1493" data-name="Tracé 1493" d="M306.27,281.908a1.217,1.217,0,0,0-.274-2.044,1.19,1.19,0,0,0-1.055-2.02,6.107,6.107,0,0,0-4.516-1.61,1.667,1.667,0,0,0-1.628-.841,1.132,1.132,0,0,0-.991,1.029,1.209,1.209,0,0,0-1.27.242,2.126,2.126,0,0,0-.5,1.942.993.993,0,0,0-1.307.439,1.81,1.81,0,0,0,.367,2.031,1.2,1.2,0,0,0-1.13,1.016c-.018.62.45.873.963,1.282-.143.358-.38.591-.249,1.043a1.328,1.328,0,0,0,1.031.848c-.133.872.89,1.124,1.439.527a8.09,8.09,0,0,0,1.965.289c.55.014,1.091-.1,1.635-.1a12.834,12.834,0,0,1,2.115.431,1.467,1.467,0,0,0,1.785-.906,1.223,1.223,0,0,0,1.361-1.837c.363-.132.8-.22.927-.657C307.132,282.328,306.561,282.08,306.27,281.908Z" transform="translate(-293.962 -275.37)" fill="#442a69"/>
      </g>
      <path id="Tracé_1494" data-name="Tracé 1494" d="M294.167,327.914s-.322,1.361-.863,3.36c-.3,1.1.208,3.65.369,9.467.117,4.206.169,8.529.169,8.529l2.62,1.565s.276-2.265.737-4.752a71.377,71.377,0,0,0,1.332-7.669c.037-3.023-.517-3.979-.159-5.376a22.508,22.508,0,0,0,.862-4.895Z" transform="translate(-285.546 -275.533)" fill="#ffa194"/>
      <path id="Tracé_1495" data-name="Tracé 1495" d="M307.854,327.914s.322,1.361.863,3.36c.3,1.1-.208,3.65-.369,9.467-.117,4.206-.169,8.529-.169,8.529l-1.914,1.565a36.641,36.641,0,0,1-1.558-5.364,60.11,60.11,0,0,1-1.216-7.056c-.037-3.023.517-3.979.159-5.376a22.509,22.509,0,0,1-.862-4.895Z" transform="translate(-286.823 -275.533)" fill="#ffa194"/>
      <path id="Tracé_1496" data-name="Tracé 1496" d="M307.934,330.522c-.419-3.167-1-7.293-1.7-10.6a8.415,8.415,0,0,1-1.811-.581H295.4a8.514,8.514,0,0,1-1.874.6c-.462,3.094-.861,6.919-1.139,10.844,2.061,1.5,4.718,1.2,6.774.459.449-3.432.917-8.262.917-8.262a70.743,70.743,0,0,0,1.146,8.189C302.908,332.438,307.02,331.567,307.934,330.522Z" transform="translate(-285.436 -274.39)" fill="#51bdff"/>
      <g id="Groupe_1802" data-name="Groupe 1802" transform="translate(3.028 18.301)">
        <path id="Tracé_1497" data-name="Tracé 1497" d="M300.558,311.577a59.263,59.263,0,0,1-8.1-.6l-.716,7.451a22.854,22.854,0,0,0,8.2,1.242,41.836,41.836,0,0,0,8.243-.8l-1.27-7.782A51.759,51.759,0,0,1,300.558,311.577Z" transform="translate(-288.377 -291.573)" fill="#22217f"/>
        <path id="Tracé_1498" data-name="Tracé 1498" d="M305.353,299.57c.646-1.9,3.427-4.766,4.58-6.382a20.916,20.916,0,0,1-4.548-4.6c-.76.686-.986,1.464-2.221,2.346a8.519,8.519,0,0,0-2.152.46s-.309.939-1.76.939a1.969,1.969,0,0,1-1.75-.939,20.977,20.977,0,0,0-2.873-.42c-1.254-.9-1.482-1.678-2.222-2.346a20.888,20.888,0,0,1-4.548,4.6c1.322,1.851,4.669,5.384,4.765,7.129a39.159,39.159,0,0,0,7.061.685c.968,0,3.634-.214,5.488-.374A5.527,5.527,0,0,1,305.353,299.57Z" transform="translate(-287.86 -288.587)" fill="#22217f"/>
        <path id="Tracé_1499" data-name="Tracé 1499" d="M307.023,309.9l-1.221-7.471c-1.854.16-4.52.374-5.488.374a39.079,39.079,0,0,1-7.061-.685,3.764,3.764,0,0,1,0,.532l-.685,7.137a59.264,59.264,0,0,0,8.1.6A51.767,51.767,0,0,0,307.023,309.9Z" transform="translate(-288.488 -290.393)" fill="#f20066"/>
      </g>
      <g id="Groupe_1803" data-name="Groupe 1803" transform="translate(10.677 11.524)">
        <path id="Tracé_1500" data-name="Tracé 1500" d="M299.033,289.839s.006,1.132-.046,1.7a7.984,7.984,0,0,0,1.663,3.421A7.873,7.873,0,0,0,302.5,291.5c-.048-.883-.064-1.819-.064-1.819Z" transform="translate(-296.994 -281.956)" fill="#f97b6e"/>
        <path id="Tracé_1501" data-name="Tracé 1501" d="M304.713,284.934c-.195-.6-.658-.432-.658-.432s-.038.09-.087.217c-.16-2.218-1.581-3.953-3.311-3.953-1.665,0-3.04,1.608-3.284,3.7-.146-.031-.411-.023-.606.366a1.16,1.16,0,0,0,.689,1.472c.391,1.842,1.674,3.2,3.2,3.2s2.822-1.365,3.206-3.219A1.173,1.173,0,0,0,304.713,284.934Z" transform="translate(-296.687 -280.767)" fill="#ffa194"/>
      </g>
      <path id="Tracé_1502" data-name="Tracé 1502" d="M303.92,280.7c-1.117-1.839-5.01-1.946-6.142-.136-.585.935-.507,3.692-.507,3.692l.507.677a12.17,12.17,0,0,1,.627-2.286,1.7,1.7,0,0,0,2.361-.108,1.609,1.609,0,0,0,2.38.162,8.042,8.042,0,0,1,.608,2.232l.507-.677S304.3,281.324,303.92,280.7Z" transform="translate(-286.087 -269.043)" fill="#442a69"/>
      <g id="Groupe_1804" data-name="Groupe 1804" transform="translate(18.502 71.992)">
        <path id="Tracé_1503" data-name="Tracé 1503" d="M308.884,350.781s-1.562-1.032-1.878,1.2c-.042.295-.965.693-.965.693s-.653,1.563-.11,2.063a20.663,20.663,0,0,0,2.5,1.819c.95.6,1.036,2.247,3.315,1.342,1.062-.42,1.06-1.625.072-2.5C310.379,354.128,308.884,350.781,308.884,350.781Z" transform="translate(-305.716 -350.543)" fill="#4d4085"/>
        <path id="Tracé_1504" data-name="Tracé 1504" d="M312.522,357.511s-.263-.28-.824.128c-.62.453-.226,1.035-1.383.747s-1.138-.715-1.9-1.367a18.077,18.077,0,0,0-2.619-1.863l.188.649s1.454,1.108,2.134,1.707,1.027,1.27,2.1,1.342a2.051,2.051,0,0,0,2.056-.69A.753.753,0,0,0,312.522,357.511Z" transform="translate(-305.727 -351.159)" fill="#442a69"/>
        <path id="Tracé_1505" data-name="Tracé 1505" d="M310.064,352.868l.268.471a7.5,7.5,0,0,0-1.226.34c-.712.257-1.176.69-1.253.319s.438-.628.849-.809A7.657,7.657,0,0,1,310.064,352.868Z" transform="translate(-306 -350.853)" fill="#fff"/>
        <path id="Tracé_1506" data-name="Tracé 1506" d="M310.963,354.318s-.744.146-1.288.3-.834.541-.7.772.521-.167.954-.347a6.7,6.7,0,0,1,1.343-.28Z" transform="translate(-306.146 -351.047)" fill="#fff"/>
        <path id="Tracé_1507" data-name="Tracé 1507" d="M309.8,357.484a16.637,16.637,0,0,0-1.918-2.239,3.812,3.812,0,0,0-1.627-.669s1.06.77,1.582,1.236A13.122,13.122,0,0,0,309.8,357.484Z" transform="translate(-305.789 -351.081)" fill="#442a69"/>
      </g>
      <g id="Groupe_1805" data-name="Groupe 1805" transform="translate(4.607 71.992)">
        <path id="Tracé_1508" data-name="Tracé 1508" d="M293.351,350.781s1.562-1.032,1.878,1.2c.042.295.965.693.965.693s.653,1.563.11,2.063a20.663,20.663,0,0,1-2.5,1.819c-.95.6-1.036,2.247-3.316,1.342-1.061-.42-1.059-1.625-.071-2.5C291.856,354.128,293.351,350.781,293.351,350.781Z" transform="translate(-289.681 -350.543)" fill="#4d4085"/>
        <path id="Tracé_1509" data-name="Tracé 1509" d="M289.73,357.511s.263-.28.824.128c.62.453.226,1.035,1.383.747s1.138-.715,1.9-1.367a18.079,18.079,0,0,1,2.619-1.863l-.188.649s-1.454,1.108-2.134,1.707-1.027,1.27-2.1,1.342a2.051,2.051,0,0,1-2.056-.69A.753.753,0,0,1,289.73,357.511Z" transform="translate(-289.686 -351.159)" fill="#442a69"/>
        <path id="Tracé_1510" data-name="Tracé 1510" d="M292.841,352.868l-.268.471a7.5,7.5,0,0,1,1.226.34c.712.257,1.176.69,1.253.319s-.438-.628-.849-.809A7.658,7.658,0,0,0,292.841,352.868Z" transform="translate(-290.067 -350.853)" fill="#fff"/>
        <path id="Tracé_1511" data-name="Tracé 1511" d="M291.967,354.318s.744.146,1.288.3.834.541.7.772-.521-.167-.954-.347a6.7,6.7,0,0,0-1.343-.28Z" transform="translate(-289.945 -351.047)" fill="#fff"/>
        <path id="Tracé_1512" data-name="Tracé 1512" d="M292.939,357.484a16.64,16.64,0,0,1,1.918-2.239,3.812,3.812,0,0,1,1.627-.669s-1.06.77-1.582,1.236A13.12,13.12,0,0,1,292.939,357.484Z" transform="translate(-290.116 -351.081)" fill="#442a69"/>
      </g>
      <path id="Tracé_1513" data-name="Tracé 1513" d="M298.871,291.63a2.123,2.123,0,0,1-.843,0,7.007,7.007,0,0,0,1.052,3.583c1.005,1.23,1.534,1.758,1.534,1.758a9.145,9.145,0,0,0,1.755-2.089,11.449,11.449,0,0,0,.718-3.31l-.724.057a13.12,13.12,0,0,1-.929,2.063c-.476.767-.912,1.52-.912,1.52a9.979,9.979,0,0,1-1.2-2.076A13.348,13.348,0,0,1,298.871,291.63Z" transform="translate(-286.188 -270.685)" fill="#ff5188"/>
    </g>
    <path id="Tracé_1514" data-name="Tracé 1514" d="M271.747,277.636a5.074,5.074,0,1,1-5.074-5.073A5.074,5.074,0,0,1,271.747,277.636Z" transform="translate(0 -1.408)" fill="#51bdff"/>
    <path id="Tracé_1562" data-name="Tracé 1562" d="M264.234,273.88a1.318,1.318,0,1,1-1.318-1.317A1.318,1.318,0,0,1,264.234,273.88Z" transform="translate(2.439 50.617)" fill="#fff"/>
    <path id="Tracé_1515" data-name="Tracé 1515" d="M327.79,314.755a5.074,5.074,0,1,1-5.074-5.074A5.074,5.074,0,0,1,327.79,314.755Z" transform="translate(-7.476 -6.36)" fill="#e52c65"/>
    <path id="Tracé_1516" data-name="Tracé 1516" d="M325.419,263.879a1.871,1.871,0,1,1-1.871-1.871A1.871,1.871,0,0,1,325.419,263.879Z" transform="translate(-8.015)" fill="#dff3ff"/>
  </g>
</svg>
